<svg width="40" height="40" viewBox="0 0 40 40" fill="none" xmlns="http://www.w3.org/2000/svg">
<g id="Group">
<path id="Vector" d="M29.8866 40H10.1134C4.53515 40 0 35.4649 0 29.8866V10.1134C0 4.53515 4.53515 0 10.1134 0H29.8866C35.4649 0 40 4.53515 40 10.1134V29.8866C40 35.4649 35.4649 40 29.8866 40Z" fill="#1D1D1F"/>
<g id="Group_2">
<path id="Vector_2" d="M30.068 19.8644C30.068 21.4064 29.4331 22.7669 28.4353 23.7647C27.4376 24.7624 26.0771 25.3973 24.5351 25.3973H22.9932V14.3315H24.5351C27.619 14.3315 30.068 16.8259 30.068 19.8644Z" fill="#EAEAEB"/>
<path id="Vector_3" d="M30.0686 7.39307V19.8647C30.0686 16.8262 27.5742 14.3318 24.5357 14.3318H20.318C18.776 14.3318 17.4155 14.9668 16.4178 15.9645C15.42 16.9622 14.7851 18.3228 14.7851 19.8647C14.7851 22.9033 17.2794 25.3976 20.318 25.3976H22.9484V32.6085H20.1819C13.2432 32.6085 7.57422 26.9849 7.57422 20.0008C7.57422 16.5087 8.98011 13.3795 11.2477 11.1119C13.5153 8.84431 16.6899 7.43842 20.1366 7.43842H27.5742C28.4812 7.39307 29.2976 7.39307 30.0686 7.39307Z" fill="white"/>
</g>
</g>
</svg>
