<svg width="40" height="40" viewBox="0 0 40 40" fill="none" xmlns="http://www.w3.org/2000/svg">
<g id="Easy Content Manager 1">
<path id="Vector" d="M8.73828 19.5493H17.7472M8.73828 26.7566H12.2033" stroke="#13191B" stroke-width="2.7027" stroke-linecap="round" stroke-linejoin="round"/>
<path id="Vector_2" d="M31.41 28.559C31.41 30.1264 30.1395 31.3969 28.5722 31.3969C27.0049 31.3969 25.7344 30.1264 25.7344 28.559C25.7344 26.9919 27.0049 25.7212 28.5722 25.7212C30.1395 25.7212 31.41 26.9919 31.41 28.559Z" stroke="#13191B" stroke-width="1.8018"/>
<path id="Vector_3" d="M26.7651 21.005L26.1391 22.883L24.8744 23.683L22.8051 23.171C22.4581 23.0852 22.0959 23.2365 21.9132 23.5437L20.8072 25.4047C20.6079 25.74 20.6756 26.1697 20.9684 26.4275L22.4199 27.7054V29.4122L20.9689 30.69C20.6761 30.9477 20.6084 31.3775 20.8077 31.7127L21.9139 33.5737C22.0964 33.8809 22.4587 34.0324 22.8056 33.9465L24.8749 33.4345L26.0731 34.1063L26.6451 36.0815C26.7454 36.4282 27.0629 36.6669 27.4239 36.6669H29.7199C30.0807 36.6669 30.3982 36.4282 30.4987 36.0815L31.0706 34.1063L32.2681 33.4345L34.3374 33.9465C34.6844 34.0324 35.0466 33.8809 35.2293 33.5737L36.3562 31.6777C36.5461 31.3584 36.4946 30.9508 36.2314 30.6887L34.7669 29.2307L34.7674 27.8869L36.2319 26.4287C36.4952 26.1667 36.5467 25.7592 36.3569 25.4399L35.2297 23.5437C35.0472 23.2365 34.6849 23.0852 34.3381 23.171L32.2687 23.683L31.0039 22.883L30.3779 21.005C30.2676 20.674 29.9577 20.4507 29.6087 20.4507H27.5344C27.1852 20.4507 26.8754 20.674 26.7651 21.005Z" stroke="#13191B" stroke-width="1.8018" stroke-linecap="round" stroke-linejoin="round"/>
<path id="Vector_4" d="M36.6663 15.9461V6.9371C36.6663 4.94688 35.053 3.3335 33.0627 3.3335H6.93661C4.94639 3.3335 3.33301 4.94688 3.33301 6.9371V33.0632C3.33301 35.0535 4.94639 36.6668 6.93661 36.6668H15.0447" stroke="#13191B" stroke-width="2.7027" stroke-linecap="round" stroke-linejoin="round"/>
<path id="Vector_5" d="M3.78418 12.3242H36.2166" stroke="#13191B" stroke-width="2.7027" stroke-linecap="round" stroke-linejoin="round"/>
<path id="Vector_6" d="M9.61971 7.18485C9.61971 7.93118 9.01468 8.5362 8.26836 8.5362C7.52203 8.5362 6.91699 7.93118 6.91699 7.18485C6.91699 6.43851 7.52203 5.8335 8.26836 5.8335C9.01468 5.8335 9.61971 6.43851 9.61971 7.18485Z" fill="#13191B"/>
<path id="Vector_7" d="M15.9254 7.18485C15.9254 7.93118 15.3203 8.5362 14.574 8.5362C13.8277 8.5362 13.2227 7.93118 13.2227 7.18485C13.2227 6.43851 13.8277 5.8335 14.574 5.8335C15.3203 5.8335 15.9254 6.43851 15.9254 7.18485Z" fill="#13191B"/>
</g>
</svg>
