<svg width="41" height="35" viewBox="0 0 41 35" fill="none" xmlns="http://www.w3.org/2000/svg">
<g id="Group">
<g id="Group_2">
<path id="Vector" d="M14.2548 0C13.6937 0.931929 13.5847 1.06673 13.2136 1.5442C10.7842 4.67027 9.16461 8.13531 9.62735 12.2783C9.7816 13.5965 10.3986 14.8771 11.2084 15.9317C13.8692 19.472 17.6868 21.0915 21.543 22.5981C22.9698 23.163 24.4352 23.615 25.862 24.2176C26.9803 24.6696 28.0214 25.3475 28.9084 26.2514C30.6822 28.1346 30.4894 30.3568 28.407 31.8633C26.4789 33.2192 24.358 33.4075 22.1214 33.1062C21.0031 32.9555 19.9234 32.5789 18.8437 32.1646C16.5299 31.2607 14.1777 30.8841 11.7097 31.4113C9.70447 31.8256 8.04631 32.8426 6.69664 34.3868C6.07964 35.1024 5.80971 35.3283 5.15416 34.3114C4.30579 32.9932 3.26462 31.8256 2.45481 30.3944C1.49076 28.6242 0.83521 26.7411 0.44959 24.7826C-0.360213 20.6019 -0.0902778 16.4589 1.37508 12.4666C2.99468 8.02232 5.77115 4.55728 9.66591 2.10915C11.0927 1.20523 12.5966 0.527289 14.2548 0Z" fill="#008DFF"/>
</g>
<g id="Group_3">
<path id="Vector_2" d="M38.7805 26.9292C38.5491 26.0629 38.4334 25.385 38.2406 24.7447C36.6596 19.1705 32.8805 16.0068 27.7132 14.4249C25.5537 13.7469 23.3557 13.5586 21.2733 12.5417C19.7309 11.7884 19.1178 9.33836 19.7309 7.87144C20.7335 5.91294 22.2374 4.74537 24.3969 4.55706C27.4433 4.29341 30.3354 4.78304 32.9962 6.40257C37.5465 9.22733 40.4001 13.8599 40.1302 20.2251C40.053 22.4472 39.6674 24.594 38.7805 26.9292Z" fill="#FF5000"/>
</g>
</g>
</svg>
