<svg width="32" height="32" viewBox="0 0 32 32" fill="none" xmlns="http://www.w3.org/2000/svg">
<g id="vuesax/outline/note-2">
<g id="note-2">
<path id="Vector" d="M21.0801 26.9069C20.7334 26.9069 20.3734 26.8935 19.9868 26.8535C19.2934 26.8002 18.5068 26.6669 17.6934 26.4669L15.4534 25.9335C9.30676 24.4802 7.29343 21.2269 8.73343 15.0935L10.0401 9.50685C10.3334 8.24018 10.6801 7.21352 11.1068 6.36018C13.4001 1.62685 17.7868 2.05352 20.9068 2.78685L23.1334 3.30685C26.2534 4.04018 28.2268 5.20018 29.3334 6.97352C30.4268 8.74685 30.6001 11.0268 29.8668 14.1468L28.5601 19.7202C27.4134 24.6002 25.0268 26.9069 21.0801 26.9069ZM17.4934 4.33352C15.2668 4.33352 13.8534 5.25352 12.9068 7.22685C12.5601 7.94685 12.2534 8.84018 11.9868 9.96018L10.6801 15.5469C9.49343 20.5868 10.8668 22.7868 15.9068 23.9869L18.1468 24.5202C18.8668 24.6935 19.5468 24.8002 20.1601 24.8535C23.7868 25.2135 25.5868 23.6269 26.6001 19.2668L27.9068 13.6935C28.5068 11.1202 28.4268 9.32018 27.6268 8.02685C26.8268 6.73352 25.2534 5.85352 22.6668 5.25352L20.4401 4.73352C19.3334 4.46685 18.3468 4.33352 17.4934 4.33352Z" fill="#0F0E16"/>
<path id="Vector_2" d="M11.1066 29.6667C7.67991 29.6667 5.49324 27.6134 4.09324 23.2801L2.38657 18.0134C0.493239 12.1467 2.18657 8.84007 8.02657 6.94673L10.1332 6.26673C10.8266 6.0534 11.3466 5.90673 11.8132 5.82673C12.1999 5.74673 12.5732 5.8934 12.7999 6.20007C13.0266 6.50673 13.0666 6.90673 12.9066 7.2534C12.5599 7.96007 12.2532 8.8534 11.9999 9.9734L10.6932 15.5601C9.50657 20.6001 10.8799 22.8001 15.9199 24.0001L18.1599 24.5334C18.8799 24.7067 19.5599 24.8134 20.1732 24.8667C20.5999 24.9067 20.9466 25.2001 21.0666 25.6134C21.1732 26.0267 21.0132 26.4534 20.6666 26.6934C19.7866 27.2934 18.6799 27.8001 17.2799 28.2534L15.1732 28.9467C13.6399 29.4267 12.3066 29.6667 11.1066 29.6667ZM10.3732 8.2934L8.65324 8.8534C3.89324 10.3867 2.75991 12.6267 4.29324 17.4001L5.99991 22.6667C7.54657 27.4267 9.78657 28.5734 14.5466 27.0401L16.6532 26.3467C16.7332 26.3201 16.7999 26.2934 16.8799 26.2667L15.4666 25.9334C9.31991 24.4801 7.30657 21.2267 8.74657 15.0934L10.0532 9.50673C10.1466 9.08007 10.2532 8.66673 10.3732 8.2934Z" fill="#0F0E16"/>
<path id="Vector_3" d="M23.3198 14.0135C23.2398 14.0135 23.1598 14.0002 23.0665 13.9869L16.5998 12.3469C16.0665 12.2135 15.7465 11.6669 15.8798 11.1335C16.0132 10.6002 16.5598 10.2802 17.0932 10.4135L23.5598 12.0535C24.0932 12.1869 24.4132 12.7335 24.2798 13.2669C24.1732 13.7069 23.7598 14.0135 23.3198 14.0135Z" fill="#0F0E16"/>
<path id="Vector_4" d="M19.4133 18.5199C19.3333 18.5199 19.2533 18.5065 19.16 18.4932L15.28 17.5065C14.7467 17.3732 14.4267 16.8265 14.56 16.2932C14.6933 15.7599 15.24 15.4399 15.7733 15.5732L19.6533 16.5599C20.1867 16.6932 20.5067 17.2399 20.3733 17.7732C20.2667 18.2265 19.8667 18.5199 19.4133 18.5199Z" fill="#0F0E16"/>
</g>
</g>
</svg>
