<svg width="140" height="140" viewBox="0 0 140 140" fill="none" xmlns="http://www.w3.org/2000/svg">
<g id="Individual">
<rect width="140" height="140" fill="white"/>
<g id="Group 38">
<rect id="Rectangle 8" x="31.619" y="14.4667" width="87.7333" height="111.067" rx="5.13333" fill="#F4F2FF" stroke="#7B68EE" stroke-width="0.933333"/>
<g id="Group 37">
<rect id="Rectangle 8_2" x="70.8188" y="28" width="35" height="3.5" rx="1.75" fill="#7B68EE"/>
<rect id="Rectangle 9" x="54.4856" y="38.5" width="51.3333" height="3.5" rx="1.75" fill="#C1B7FF"/>
<rect id="Rectangle 10" x="63.8188" y="49" width="42" height="3.5" rx="1.75" fill="#DFDAFF"/>
</g>
<g id="Group 27">
<path id="Vector" d="M70.1254 111.559C69.8626 111.461 69.7337 111.264 69.7767 111.023C69.8232 110.765 70.0044 110.612 70.2722 110.641C70.789 110.693 71.3095 110.604 71.788 110.381C71.9606 110.302 72.0114 110.259 71.889 110.046C71.3319 109.084 71.2603 108.067 71.7401 107.037C71.8579 106.769 72.0297 106.534 72.2422 106.351C72.4547 106.168 72.7023 106.041 72.9659 105.98C73.7815 105.787 74.4846 106.466 74.5269 107.464C74.567 108.391 74.2462 109.178 73.7478 109.893C73.7099 109.948 73.6691 110 73.6282 110.052C73.5874 110.103 73.5481 110.153 73.5058 110.211C73.9848 110.491 74.8262 110.274 75.2694 109.756C75.4284 109.569 75.5651 109.359 75.7148 109.164C76.0012 108.788 76.3506 108.529 76.8017 108.479C77.2313 108.431 77.6316 108.704 77.8471 109.193C77.9553 109.442 78.034 109.705 78.1335 109.957C78.193 110.103 78.2811 110.174 78.42 110.036C78.9291 109.517 79.4618 109.576 80.0461 109.899C81.1244 110.496 82.3954 110.153 83.1465 109.105C83.3613 108.803 83.5926 108.738 83.8074 108.915C84.0222 109.093 84.0301 109.382 83.8189 109.696C82.9231 111.027 81.176 111.514 79.7747 110.82C79.6773 110.773 79.5799 110.723 79.4883 110.661C79.4173 110.61 79.3323 110.587 79.2477 110.596C79.1632 110.606 79.0843 110.648 79.0243 110.715C78.2703 111.44 77.5715 110.988 77.2736 110.159C77.2149 109.995 77.1683 109.823 77.1017 109.662C76.99 109.391 76.8769 109.357 76.637 109.517C76.3972 109.676 76.2568 109.931 76.0914 110.163C75.7067 110.717 75.1498 111.093 74.529 111.218C73.974 111.35 73.3951 111.276 72.8821 111.006C72.8296 110.972 72.7694 110.955 72.7087 110.958C72.6479 110.961 72.5891 110.982 72.5392 111.021C72.1024 111.313 71.6139 111.496 71.1071 111.559C71.0197 111.611 70.9138 111.538 70.8285 111.608H70.3989C70.3187 111.539 70.2128 111.612 70.1254 111.559Z" fill="#7B68EE"/>
<path id="Vector_2" d="M70.125 111.559C70.2238 111.538 70.3205 111.527 70.4035 111.609H70.1357L70.125 111.559Z" fill="#4C4C4C"/>
<path id="Vector_3" d="M70.8306 111.609C70.8695 111.576 70.9154 111.554 70.9641 111.545C71.0128 111.536 71.0627 111.542 71.1091 111.56C71.107 111.577 71.1034 111.593 71.0984 111.609H70.8306Z" fill="#535353"/>
<path id="Vector_4" d="M87.7636 104.906C87.8295 105.265 87.8839 105.593 87.9527 105.918C87.9741 106.008 87.9761 106.104 87.9583 106.195C87.9405 106.287 87.9035 106.373 87.8503 106.446C87.1213 107.52 86.3934 108.595 85.6663 109.672C85.541 109.857 85.3799 109.942 85.1773 109.884C84.9747 109.826 84.8844 109.657 84.8572 109.427C84.704 108.134 84.5467 106.841 84.3854 105.549C84.3625 105.418 84.3697 105.283 84.4063 105.156C84.4428 105.029 84.5075 104.915 84.5944 104.823C84.7763 104.62 84.936 104.393 85.1057 104.175C85.0828 104.102 85.0205 104.11 84.979 104.096C84.6532 103.966 84.5579 103.786 84.6438 103.418C85.0119 101.843 85.3814 100.268 85.7523 98.6927C86.4774 95.599 87.203 92.5052 87.929 89.4115C88.4422 87.2352 88.9596 85.06 89.4814 82.8858C89.7542 81.7525 90.7509 81.0318 91.7362 81.2342C92.816 81.4564 93.5191 82.4731 93.406 83.666C93.3917 83.82 93.4246 83.8676 93.5556 83.9041C93.928 84.0025 94.2967 84.1168 94.6648 84.2343C94.9748 84.3327 95.0844 84.5383 95.0042 84.8803C94.3955 87.4757 93.7845 90.0713 93.1711 92.6671C93.0995 92.9775 92.8711 93.1322 92.6355 93.056C92.4 92.9798 92.2739 92.7314 92.3491 92.4211C92.8981 90.0819 93.4487 87.7429 94.001 85.4042C94.0869 85.0391 94.0891 85.0367 93.7454 84.9399C93.5599 84.8875 93.3365 84.7208 93.1991 84.8232C93.0809 84.9105 93.0759 85.1946 93.0286 85.3946C91.6973 91.0467 90.3669 96.6982 89.0374 102.349C88.8756 103.037 88.714 103.725 88.5527 104.413C88.4238 104.942 88.282 105.036 87.7636 104.906Z" fill="#7B68EE"/>
<path id="Vector_5" d="M73.6777 107.753C73.6176 108.468 73.2903 109.096 72.8034 109.637C72.7211 109.728 72.6917 109.662 72.6445 109.601C72.2149 109.041 72.1748 107.971 72.5571 107.374C72.588 107.325 72.6227 107.28 72.6609 107.238C72.8657 107.02 73.097 106.808 73.392 106.949C73.6698 107.082 73.6691 107.403 73.6777 107.753Z" fill="#FEFEFE"/>
<path id="Vector_6" d="M90.8635 90.8202C90.7919 91.1195 90.7203 91.4052 90.6559 91.6933C89.8725 95.0125 89.0908 98.3321 88.3108 101.652C88.2579 101.879 88.1898 101.901 88.0029 101.842C87.4244 101.661 86.8408 101.499 86.2565 101.34C86.0926 101.295 86.0346 101.248 86.0861 101.031C86.9353 97.4657 87.7769 93.8984 88.6109 90.329C88.6553 90.1385 88.7004 90.1051 88.8758 90.1615C89.4787 90.3559 90.0895 90.5226 90.6974 90.6988C90.7704 90.7179 90.8678 90.6972 90.8635 90.8202Z" fill="#F0EDFF"/>
<path id="Vector_7" d="M91.4375 82.1556C92.15 82.1644 92.7049 82.8938 92.5345 83.6636C92.2022 85.1772 91.8342 86.6796 91.4805 88.1876C91.3709 88.6559 91.2442 89.1194 91.154 89.5916C91.116 89.7924 91.0415 89.7916 90.9033 89.7503C90.2876 89.5689 89.6715 89.3903 89.0553 89.2146C88.9335 89.1797 88.8891 89.1352 88.9285 88.9765C89.3982 87.0233 89.8529 85.0645 90.3219 83.1104C90.3808 82.8336 90.5238 82.5876 90.727 82.4137C90.9301 82.2399 91.181 82.1488 91.4375 82.1556Z" fill="#F0EDFF"/>
<path id="Vector_8" d="M85.5718 108.151C85.4658 107.291 85.3612 106.433 85.2524 105.576C85.2474 105.532 85.2522 105.487 85.2665 105.446C85.2807 105.404 85.3039 105.367 85.334 105.338C85.4407 105.206 85.5675 105.083 85.6455 104.932C85.8961 104.443 86.2348 104.358 86.6795 104.587C86.7768 104.637 86.8442 104.667 86.8649 104.794C86.9222 105.143 86.996 105.49 87.0597 105.837C87.0713 105.875 87.075 105.915 87.0704 105.954C87.0658 105.993 87.0531 106.031 87.0332 106.064C86.5935 106.711 86.1568 107.361 85.7164 108.008C85.682 108.062 85.6613 108.136 85.5718 108.151Z" fill="#FEFEFE"/>
<path id="Vector_9" d="M87.6427 103.872C86.9839 103.682 86.3245 103.491 85.665 103.304C85.5898 103.284 85.5576 103.259 85.5805 103.167C85.6521 102.892 85.718 102.616 85.7767 102.339C85.8039 102.211 85.8669 102.218 85.9543 102.244C86.5944 102.434 87.2345 102.627 87.8768 102.808C87.9864 102.839 88.0279 102.86 87.9892 102.997C87.9176 103.25 87.8654 103.511 87.8117 103.77C87.788 103.884 87.7358 103.916 87.6427 103.872Z" fill="#F0EDFF"/>
<path id="Vector_10" d="M86.4845 105.974C86.4878 106.086 86.4508 106.195 86.3816 106.277C86.3124 106.359 86.2166 106.407 86.1154 106.411C86.0142 106.415 85.9158 106.374 85.8418 106.297C85.7679 106.22 85.7245 106.114 85.7212 106.002C85.7186 105.945 85.7262 105.889 85.7434 105.836C85.7607 105.783 85.7873 105.734 85.8217 105.692C85.8562 105.65 85.8977 105.616 85.944 105.593C85.9903 105.569 86.0404 105.556 86.0914 105.553C86.1423 105.552 86.1931 105.561 86.2407 105.581C86.2883 105.602 86.3317 105.632 86.3684 105.671C86.405 105.711 86.4342 105.758 86.4542 105.81C86.4741 105.862 86.4844 105.918 86.4845 105.974Z" fill="#7B68EE"/>
</g>
<g id="Group 36">
<path id="Vector_11" d="M14.1612 107.565C19.2688 104.542 25.8199 102.764 32.9024 102.764C39.9849 102.764 46.5362 104.542 51.6437 107.565C54.1268 109.034 55.3024 111.725 55.3024 114.304V123.619C55.3024 124.899 54.2649 125.936 52.9852 125.936H12.8197C11.5399 125.936 10.5024 124.899 10.5024 123.619V114.304C10.5024 111.725 11.6779 109.034 14.1612 107.565Z" fill="#7B68EE"/>
<path id="Vector_12" d="M19.7715 84.9977C19.7715 77.7457 25.6504 71.8667 32.9025 71.8667C40.1546 71.8667 46.0336 77.7457 46.0336 84.9977C46.0336 92.2498 40.1546 98.1288 32.9025 98.1288C25.6504 98.1288 19.7715 92.2498 19.7715 84.9977Z" fill="#7B68EE"/>
</g>
<path id="Vector_13" d="M17.6008 73.4181L14.8191 73.0986M20.0807 68.066L17.6319 64.9664M25.8706 66.852L26.1784 64.1717" stroke="#7B68EE" stroke-width="2.8" stroke-linecap="round" stroke-linejoin="round"/>
<g id="Vector_14">
<path d="M118.45 68.9054L123.98 73.1966L118.974 79.6487L113.443 75.3575L118.45 68.9054Z" fill="#F4F2FF"/>
<path fill-rule="evenodd" clip-rule="evenodd" d="M122.813 67.4289C122.493 66.6031 121.563 66.1938 120.737 66.5148L112.581 69.6845C111.756 70.0054 111.346 70.935 111.667 71.7608L114.837 79.9165C115.158 80.7423 116.088 81.1515 116.913 80.8306L125.069 77.6609C125.895 77.34 126.304 76.4104 125.983 75.5846L122.813 67.4289ZM120.714 72.5738C120.858 71.7882 120.085 71.1493 119.34 71.4386L116.936 72.3728C116.192 72.6621 116.053 73.6556 116.69 74.1379L118.651 75.6238C119.257 76.0832 120.134 75.7421 120.271 74.9939L120.714 72.5738Z" fill="#7B68EE"/>
</g>
</g>
</g>
</svg>
