<svg width="140" height="140" viewBox="0 0 140 140" fill="none" xmlns="http://www.w3.org/2000/svg">
<rect width="140" height="140" fill="white"/>
<circle cx="67.7534" cy="75.7076" r="45.8951" fill="#F4F2FF" stroke="#7B68EE" stroke-width="0.771347"/>
<path d="M16.2946 96.0032C18.757 94.5458 21.9152 93.6885 25.3296 93.6885C28.744 93.6885 31.9023 94.5458 34.3646 96.0032C35.5617 96.7116 36.1285 98.0086 36.1285 99.252V103.743C36.1285 104.36 35.6283 104.86 35.0113 104.86H15.6479C15.0309 104.86 14.5308 104.36 14.5308 103.743V99.252C14.5308 98.0086 15.0975 96.7116 16.2946 96.0032Z" fill="#7442D3"/>
<path d="M18.9995 85.1238C18.9995 81.6277 21.8337 78.7935 25.3299 78.7935C28.826 78.7935 31.6602 81.6277 31.6602 85.1238C31.6602 88.62 28.826 91.4542 25.3299 91.4542C21.8337 91.4542 18.9995 88.62 18.9995 85.1238Z" fill="#7442D3"/>
<path d="M60.7809 28.7511C62.8915 27.502 65.5986 26.7671 68.5252 26.7671C71.4518 26.7671 74.1589 27.502 76.2695 28.7511C77.2956 29.3583 77.7814 30.4701 77.7814 31.5359V35.3849C77.7814 35.9137 77.3526 36.3424 76.8238 36.3424H60.2266C59.6978 36.3424 59.269 35.9137 59.269 35.3849V31.5359C59.269 30.4701 59.7548 29.3583 60.7809 28.7511Z" fill="#F9A216"/>
<path d="M63.0986 19.426C63.0986 16.4293 65.5279 14 68.5247 14C71.5214 14 73.9507 16.4293 73.9507 19.426C73.9507 22.4227 71.5214 24.8521 68.5247 24.8521C65.5279 24.8521 63.0986 22.4227 63.0986 19.426Z" fill="#F9A216"/>
<rect x="88.5801" y="97.3057" width="21.5977" height="21.5977" rx="10.7989" fill="#5558ED"/>
<path fill-rule="evenodd" clip-rule="evenodd" d="M99.3793 103.942C99.69 103.942 99.9418 104.194 99.9418 104.505V111.704C99.9418 112.015 99.69 112.266 99.3793 112.266C99.0687 112.266 98.8169 112.015 98.8169 111.704V104.505C98.8169 104.194 99.0687 103.942 99.3793 103.942Z" fill="white"/>
<path fill-rule="evenodd" clip-rule="evenodd" d="M95.2168 108.104C95.2168 107.794 95.4686 107.542 95.7792 107.542H102.978C103.289 107.542 103.541 107.794 103.541 108.104C103.541 108.415 103.289 108.667 102.978 108.667H95.7792C95.4686 108.667 95.2168 108.415 95.2168 108.104Z" fill="white"/>
<rect x="60.6987" y="98.3037" width="11.1619" height="11.1619" rx="5.58093" fill="#F9A216"/>
<g clip-path="url(#clip0_8230_15872)">
<path fill-rule="evenodd" clip-rule="evenodd" d="M66.2804 101.734C66.441 101.734 66.5711 101.864 66.5711 102.025V105.745C66.5711 105.906 66.441 106.036 66.2804 106.036C66.1199 106.036 65.9897 105.906 65.9897 105.745V102.025C65.9897 101.864 66.1199 101.734 66.2804 101.734Z" fill="white"/>
<path fill-rule="evenodd" clip-rule="evenodd" d="M64.1284 103.884C64.1284 103.724 64.2586 103.594 64.4191 103.594H68.1397C68.3003 103.594 68.4304 103.724 68.4304 103.884C68.4304 104.045 68.3003 104.175 68.1397 104.175H64.4191C64.2586 104.175 64.1284 104.045 64.1284 103.884Z" fill="white"/>
</g>
<path d="M53.0859 93.2749C52.7516 94.0586 53.1159 94.9649 53.8996 95.2992C54.6833 95.6335 55.5896 95.2692 55.9239 94.4855L53.0859 93.2749ZM126.99 46.185C126.848 45.3449 126.051 44.7792 125.211 44.9213L111.522 47.238C110.682 47.3802 110.116 48.1764 110.258 49.0165C110.4 49.8566 111.197 50.4223 112.037 50.2801L124.205 48.2209L126.264 60.3894C126.407 61.2295 127.203 61.7952 128.043 61.653C128.883 61.5109 129.449 60.7146 129.307 59.8746L126.99 46.185ZM55.9239 94.4855C62.3183 79.4947 70.6246 72.0917 77.6696 68.3299C84.7629 64.5423 90.6255 64.3831 92.6696 64.0326L92.1481 60.9916C90.4435 61.2839 83.8765 61.5179 76.2163 65.6083C68.5077 69.7244 59.7363 77.6841 53.0859 93.2749L55.9239 94.4855ZM92.6696 64.0326C96.1196 63.441 115.856 62.635 126.726 47.3359L124.211 45.5488C114.255 59.561 96.1956 60.2976 92.1481 60.9916L92.6696 64.0326Z" fill="url(#paint0_linear_8230_15872)"/>
<path fill-rule="evenodd" clip-rule="evenodd" d="M35.2689 42.8955C34.2028 44.0085 34.3103 45.8556 35.354 46.8554L35.5906 47.0821L36.044 46.6088L35.8074 46.3821C35.0149 45.623 34.936 44.1905 35.7422 43.3489L35.9688 43.1124L35.4955 42.659L35.2689 42.8955Z" fill="#7B68EE"/>
<path fill-rule="evenodd" clip-rule="evenodd" d="M35.7443 43.3497C34.6782 44.4626 32.8282 44.4345 31.7845 43.4347L31.5479 43.208L32.0012 42.7347L32.2379 42.9614C33.0303 43.7205 34.4649 43.7379 35.2711 42.8963L35.4976 42.6598L35.9709 43.1132L35.7443 43.3497Z" fill="#7B68EE"/>
<path fill-rule="evenodd" clip-rule="evenodd" d="M113.953 77.4449C113.929 75.9038 112.554 74.6658 111.109 74.6885L110.781 74.6937L110.791 75.349L111.119 75.3438C112.216 75.3266 113.28 76.2899 113.298 77.4552L113.303 77.7826L113.958 77.7723L113.953 77.4449Z" fill="#7B68EE"/>
<path fill-rule="evenodd" clip-rule="evenodd" d="M113.296 77.4564C113.272 75.9154 114.608 74.6348 116.053 74.6121L116.38 74.6069L116.391 75.2622L116.063 75.2674C114.966 75.2846 113.933 76.2808 113.952 77.4461L113.957 77.7736L113.302 77.7839L113.296 77.4564Z" fill="#7B68EE"/>
<path fill-rule="evenodd" clip-rule="evenodd" d="M68.5 122.025C70.0397 121.955 71.2367 120.544 71.1716 119.101L71.1568 118.773L70.5021 118.803L70.5168 119.13C70.5663 120.226 69.6347 121.317 68.4705 121.37L68.1433 121.385L68.1728 122.039L68.5 122.025Z" fill="#7B68EE"/>
<path fill-rule="evenodd" clip-rule="evenodd" d="M68.4698 121.369C70.0095 121.299 71.3287 122.596 71.3939 124.04L71.4087 124.368L70.754 124.397L70.7392 124.07C70.6897 122.974 69.6636 121.971 68.4993 122.023L68.1722 122.038L68.1426 121.384L68.4698 121.369Z" fill="#7B68EE"/>
<rect x="64.7593" y="62.3682" width="14.8825" height="14.8825" rx="7.44124" fill="#7442D3"/>
<g clip-path="url(#clip1_8230_15872)">
<path d="M73.9064 68.7645C73.9064 68.143 73.1429 67.6392 72.2011 67.6392C71.2593 67.6392 70.4958 68.143 70.4958 68.7645C70.4958 69.3861 70.9609 69.7291 72.2011 69.7291C73.4413 69.7291 74.0614 70.0507 74.0614 70.8545C74.0614 71.6584 73.2863 71.9799 72.2011 71.9799C71.1159 71.9799 70.3408 71.5148 70.3408 70.8947" stroke="white" stroke-width="0.465078" stroke-linecap="round"/>
<path d="M72.2007 67.019V72.6" stroke="white" stroke-width="0.465078" stroke-linecap="round"/>
</g>
<defs>
<linearGradient id="paint0_linear_8230_15872" x1="89.9868" y1="46.4424" x2="89.9868" y2="93.8802" gradientUnits="userSpaceOnUse">
<stop stop-color="#7442D3"/>
<stop offset="1" stop-color="#F0EDFF"/>
</linearGradient>
<clipPath id="clip0_8230_15872">
<rect width="5.58093" height="5.58093" fill="white" transform="translate(63.4893 101.094)"/>
</clipPath>
<clipPath id="clip1_8230_15872">
<rect width="7.44124" height="7.44124" fill="white" transform="translate(68.48 66.0889)"/>
</clipPath>
</defs>
</svg>
