<svg width="32" height="32" viewBox="0 0 32 32" fill="none" xmlns="http://www.w3.org/2000/svg">
<g id="vuesax/outline/frame">
<g id="frame">
<path id="Vector" d="M16.2124 15.4932C16.1724 15.4932 16.1458 15.4932 16.1058 15.4932C16.0391 15.4798 15.9458 15.4798 15.8658 15.4932C11.9991 15.3732 9.0791 12.3332 9.0791 8.5865C9.0791 4.77317 12.1858 1.6665 15.9991 1.6665C19.8124 1.6665 22.9191 4.77317 22.9191 8.5865C22.9058 12.3332 19.9724 15.3732 16.2524 15.4932C16.2391 15.4932 16.2258 15.4932 16.2124 15.4932ZM15.9991 3.6665C13.2924 3.6665 11.0791 5.87984 11.0791 8.5865C11.0791 11.2532 13.1591 13.3998 15.8124 13.4932C15.8791 13.4798 16.0658 13.4798 16.2391 13.4932C18.8524 13.3732 20.9058 11.2265 20.9191 8.5865C20.9191 5.87984 18.7058 3.6665 15.9991 3.6665Z" fill="#0F0E16"/>
<path id="Vector_2" d="M16.2261 30.0668C13.6128 30.0668 10.9861 29.4002 8.99948 28.0668C7.14615 26.8402 6.13281 25.1602 6.13281 23.3335C6.13281 21.5068 7.14615 19.8135 8.99948 18.5735C12.9995 15.9202 19.4795 15.9202 23.4528 18.5735C25.2928 19.8002 26.3195 21.4802 26.3195 23.3068C26.3195 25.1335 25.3061 26.8268 23.4528 28.0668C21.4528 29.4002 18.8395 30.0668 16.2261 30.0668ZM10.1061 20.2535C8.82615 21.1068 8.13281 22.2002 8.13281 23.3468C8.13281 24.4802 8.83948 25.5735 10.1061 26.4135C13.4261 28.6402 19.0261 28.6402 22.3461 26.4135C23.6261 25.5602 24.3195 24.4668 24.3195 23.3202C24.3195 22.1868 23.6128 21.0935 22.3461 20.2535C19.0261 18.0402 13.4261 18.0402 10.1061 20.2535Z" fill="#0F0E16"/>
</g>
</g>
</svg>
