<svg width="34" height="34" viewBox="0 0 34 34" fill="none" xmlns="http://www.w3.org/2000/svg">
<path fill-rule="evenodd" clip-rule="evenodd" d="M15.9269 4.84819C15.9263 4.11627 15.6353 3.41448 15.1178 2.89693C14.6002 2.37938 13.8984 2.08838 13.1665 2.08782H4.88538C4.15345 2.08838 3.45167 2.37938 2.93412 2.89693C2.41657 3.41448 2.12556 4.11627 2.125 4.84819V13.1293C2.12556 13.8612 2.41657 14.563 2.93412 15.0806C3.45167 15.5981 4.15345 15.8891 4.88538 15.8897H13.1665C13.8984 15.8891 14.6002 15.5981 15.1178 15.0806C15.6353 14.563 15.9263 13.8612 15.9269 13.1293V4.84819ZM15.9269 20.7857C15.9263 20.0538 15.6353 19.352 15.1178 18.8344C14.6002 18.3169 13.8984 18.0259 13.1665 18.0253H4.88538C4.15345 18.0259 3.45167 18.3169 2.93412 18.8344C2.41657 19.352 2.12556 20.0538 2.125 20.7857V29.0668C2.12556 29.7987 2.41657 30.5005 2.93412 31.0181C3.45167 31.5356 4.15345 31.8266 4.88538 31.8272H13.1665C13.8984 31.8266 14.6002 31.5356 15.1178 31.0181C15.6353 30.5005 15.9263 29.7987 15.9269 29.0668V20.7857ZM31.8644 20.7857C31.8638 20.0538 31.5728 19.352 31.0553 18.8344C30.5377 18.3169 29.8359 18.0259 29.104 18.0253H20.8229C20.091 18.0259 19.3892 18.3169 18.8716 18.8344C18.3541 19.352 18.0631 20.0538 18.0625 20.7857V29.0668C18.0631 29.7987 18.3541 30.5005 18.8716 31.0181C19.3892 31.5356 20.091 31.8266 20.8229 31.8272H29.104C29.8359 31.8266 30.5377 31.5356 31.0553 31.0181C31.5728 30.5005 31.8638 29.7987 31.8644 29.0668V20.7857ZM26.8951 2.88363C26.3815 2.37054 25.6852 2.08234 24.9592 2.08234C24.2332 2.08234 23.5369 2.37054 23.0233 2.88363L18.8583 7.04969C18.345 7.56298 18.0567 8.25914 18.0567 8.98504C18.0567 9.71093 18.345 10.4071 18.8583 10.9204L23.0233 15.0864C23.5368 15.5998 24.2331 15.8882 24.9592 15.8882C25.6853 15.8882 26.3816 15.5998 26.8951 15.0864L31.0601 10.9214C31.3144 10.6673 31.5161 10.3655 31.6538 10.0333C31.7914 9.70115 31.8622 9.34512 31.8622 8.98557C31.8622 8.62601 31.7914 8.26998 31.6538 7.93782C31.5161 7.60566 31.3144 7.30386 31.0601 7.04969L26.8951 2.88363Z" fill="#7B68EE"/>
</svg>
