<svg width="32" height="32" viewBox="0 0 32 32" fill="none" xmlns="http://www.w3.org/2000/svg">
<path d="M17.7889 4.11403C17.0518 2.63993 14.9482 2.63993 14.2111 4.11402L11.3978 9.74077C11.1077 10.3209 10.5543 10.7243 9.91326 10.823L3.86186 11.7547C2.2501 12.0029 1.59686 13.972 2.7407 15.1343L7.09435 19.5583C7.54319 20.0143 7.74669 20.6577 7.64181 21.2889L6.60676 27.5182C6.33664 29.1439 8.03836 30.3804 9.50108 29.6212L15.0786 26.7262C15.6563 26.4263 16.3437 26.4263 16.9214 26.7262L22.499 29.6212C23.9617 30.3804 25.6634 29.144 25.3933 27.5183L24.3582 21.2881C24.2533 20.6568 24.4568 20.0135 24.9057 19.5574L29.259 15.1343C30.4029 13.972 29.7497 12.0029 28.1379 11.7547L22.0867 10.823C21.4457 10.7243 20.8923 10.3209 20.6022 9.74077L17.7889 4.11403ZM16.4767 19.4193C15.6957 20.2003 14.4293 20.2003 13.6483 19.4193L12.5247 18.2957C12.1586 17.9296 12.1586 17.3361 12.5247 16.97C12.8907 16.6039 13.4842 16.6039 13.8503 16.97L14.125 17.2447C14.6428 17.7625 15.4822 17.7625 16 17.2447L18.1497 15.095C18.5157 14.729 19.1093 14.729 19.4753 15.095C19.8414 15.4611 19.8414 16.0546 19.4753 16.4207L16.4767 19.4193Z" fill="#7B68EE"/>
</svg>
