<svg width="32" height="32" viewBox="0 0 32 32" fill="none" xmlns="http://www.w3.org/2000/svg">
<g clip-path="url(#clip0_12387_6614)">
<path d="M30.0114 22.7879C28.7993 21.6243 27.1508 21.2849 25.5993 21.8182L19.0538 15.4667C19.5871 13.8667 19.1993 12.2667 17.9871 11.1031C17.0659 10.1819 15.8053 9.69702 14.4962 9.69702C13.575 9.69702 13.1387 10.8122 13.8174 11.4425L15.5144 13.091C15.8538 13.4304 15.8538 13.9152 15.5144 14.2546L14.1568 15.6607C13.8659 16.0001 13.2841 16.0001 12.9932 15.6607L11.2962 14.0122C10.9084 13.6243 10.2296 13.6243 9.84169 14.0122C9.64775 14.2061 9.55078 14.4485 9.55078 14.7394C9.59927 16.0001 10.0841 17.2122 11.0053 18.1334C12.169 19.3455 13.9144 19.6364 15.4659 19.1516L22.0114 25.5031C21.5265 27.1031 21.9629 28.8485 23.1265 29.9637C24.0478 30.8364 25.2599 31.3213 26.5205 31.3213H26.569C27.4902 31.3213 27.8781 30.2061 27.2478 29.5758L25.5508 27.9273C25.2114 27.5879 25.2114 27.1031 25.5023 26.7637L26.8599 25.3576C27.1508 25.0182 27.6841 25.0182 28.0235 25.3576L29.7205 27.0061C30.3023 27.5879 31.4659 27.2001 31.4659 26.2788C31.4659 24.9213 30.9326 23.7091 30.0114 22.7879Z" fill="#7B68EE"/>
<path d="M8.48403 14.497C8.48403 11.3939 11.0052 8.82423 14.1083 8.72726C15.1749 8.48483 17.2113 8.96968 18.6658 10.3757C20.0234 11.6848 20.5083 13.3818 20.1689 15.1757L23.8052 18.7151C23.9992 18.3273 24.1446 17.8909 24.2416 17.503L27.6355 17.1636C27.878 17.1636 28.0719 16.9212 28.0719 16.6788V12.3151C28.0719 12.0727 27.878 11.8788 27.6355 11.8303L24.2416 11.4909C24.0477 10.8121 23.7568 10.1818 23.4659 9.5515L25.5992 6.93332C25.7446 6.73938 25.7446 6.44847 25.5507 6.30301L22.4477 3.19998C22.2537 3.00604 22.0113 3.00604 21.8174 3.1515L19.1992 5.33332C18.5689 4.99392 17.9386 4.7515 17.2598 4.50908L16.9204 1.11514C16.9204 0.872711 16.678 0.678772 16.4355 0.678772H12.0719C11.8295 0.678772 11.6355 0.872711 11.5871 1.11514L11.2477 4.50908C10.5689 4.70301 9.93858 4.99392 9.30828 5.33332L6.69009 3.1515C6.49615 3.00604 6.20524 3.00604 6.05979 3.19998L2.95676 6.30301C2.76282 6.49695 2.76282 6.73938 2.90827 6.93332L5.09009 9.5515C4.7507 10.1818 4.45979 10.8121 4.26585 11.4909L0.871911 11.8303C0.629486 11.8303 0.435547 12.0727 0.435547 12.3151V16.6788C0.435547 16.9212 0.629486 17.1636 0.871911 17.1636L4.26585 17.503C4.45979 18.1818 4.7507 18.8121 5.04161 19.3939L2.85979 22.0121C2.71433 22.206 2.71433 22.497 2.90827 22.6424L6.0113 25.7454C6.20524 25.9394 6.49615 25.9394 6.64161 25.7939L9.25979 23.6121C9.89009 23.9515 10.5204 24.1939 11.1992 24.4363L11.5386 27.8303C11.5386 28.0727 11.781 28.2667 12.0234 28.2667H16.3871C16.6295 28.2667 16.8719 28.0727 16.8719 27.8303L17.2113 24.4363C17.6962 24.2424 18.2295 24 18.7628 23.7091L15.1265 20.1697C11.5871 20.9939 8.48403 17.9394 8.48403 14.497Z" fill="#7B68EE"/>
</g>
<defs>
<clipPath id="clip0_12387_6614">
<rect width="32" height="32" fill="white"/>
</clipPath>
</defs>
</svg>
