<svg width="18" height="18" viewBox="0 0 18 18" fill="none" xmlns="http://www.w3.org/2000/svg">
<path d="M12.375 6C12.5821 6 12.75 5.83211 12.75 5.625C12.75 5.41789 12.5821 5.25 12.375 5.25C12.1679 5.25 12 5.41789 12 5.625C12 5.83211 12.1679 6 12.375 6Z" fill="#738496"/>
<path d="M6.75 12.7499C6.75003 12.3521 6.90818 11.9706 7.18945 11.6893C7.47075 11.408 7.85221 11.2499 8.25 11.2499H8.37891L8.45288 11.2462C8.62458 11.2291 8.78612 11.1532 8.90918 11.0301L9.52002 10.4193L9.60059 10.3497C9.77013 10.2227 9.98595 10.1728 10.1938 10.2135L10.2964 10.242L10.4626 10.2955C11.2982 10.5475 12.194 10.5285 13.0203 10.2384C13.9015 9.92897 14.6516 9.32959 15.1479 8.53843C15.6443 7.74726 15.8578 6.81074 15.7529 5.88267C15.648 4.95484 15.231 4.09011 14.5708 3.42979C13.9104 2.76942 13.0452 2.35261 12.1172 2.24766C11.1891 2.14276 10.2526 2.35555 9.46143 2.85191C8.67029 3.34824 8.07089 4.09841 7.76147 4.97959C7.45207 5.86085 7.4513 6.82146 7.75854 7.70347C7.85305 7.9751 7.78394 8.27719 7.58057 8.48057L2.46973 13.5907C2.34666 13.7137 2.27075 13.8753 2.25366 14.047L2.25 14.121V15.7499H4.5V14.9999C4.50003 14.6021 4.65818 14.2206 4.93945 13.9393C5.22075 13.658 5.6022 13.4999 6 13.4999H6.75V12.7499ZM12.375 5.24986C12.1679 5.24986 12.0001 5.41781 12 5.62486L12.0073 5.7003C12.0422 5.87133 12.1937 5.99986 12.375 5.99986C12.5563 5.99986 12.7078 5.87133 12.7427 5.7003L12.75 5.62486L12.7427 5.54942C12.7127 5.40289 12.597 5.28787 12.4504 5.25792L12.375 5.24986ZM8.25 13.4999C8.25 13.8977 8.09181 14.2791 7.81055 14.5604C7.52924 14.8417 7.14782 14.9999 6.75 14.9999H6V15.7499C6 16.1477 5.84181 16.5291 5.56055 16.8104C5.27924 17.0917 4.89782 17.2499 4.5 17.2499H2.25C1.85218 17.2499 1.47076 17.0917 1.18945 16.8104C0.908186 16.5291 0.75 16.1477 0.75 15.7499V14.121C0.750127 13.5243 0.987236 12.952 1.40918 12.5301L6.20288 7.7357C5.92982 6.66452 5.9779 5.53273 6.34644 4.48301C6.76835 3.2813 7.58567 2.25801 8.66455 1.58116C9.74338 0.904418 11.0202 0.61415 12.2856 0.757182C13.5511 0.900267 14.7308 1.46801 15.6313 2.36851C16.5319 3.26903 17.1003 4.44876 17.2434 5.71421C17.3864 6.97967 17.0954 8.25649 16.4187 9.33531C15.7418 10.4142 14.7186 11.2315 13.5168 11.6534C12.4668 12.0221 11.3349 12.0696 10.2634 11.7962L9.96973 12.0907C9.60062 12.4599 9.11654 12.6876 8.60156 12.7389L8.37891 12.7499H8.25V13.4999ZM13.5 5.62486C13.5 6.24618 12.9963 6.74986 12.375 6.74986C11.7925 6.74986 11.3134 6.30721 11.2559 5.73985L11.25 5.62486L11.2559 5.50987C11.3135 4.94262 11.7925 4.49986 12.375 4.49986L12.49 4.50572C13.0573 4.56331 13.4999 5.04241 13.5 5.62486Z" fill="#738496"/>
</svg>
