<svg width="32" height="32" viewBox="0 0 12 12" xmlns="http://www.w3.org/2000/svg">
	<path d="M5.21227 4.00487C5.64135 4.0356 6.05888 4.15849 6.43639 4.36474C6.81391 4.57099 7.14259 4.8562 7.40026 5.20068C7.56556 5.42175 7.52066 5.73497 7.29967 5.90038C7.07855 6.06579 6.76488 6.02043 6.59948 5.79931C6.42771 5.56972 6.20852 5.37965 5.9569 5.24218C5.70526 5.10472 5.42698 5.02292 5.14098 5.00243C4.85497 4.98195 4.56785 5.02333 4.29918 5.12353C4.06402 5.21125 3.84772 5.34244 3.66149 5.50976L3.58336 5.58349L2.08971 7.07714L2.02331 7.14941C1.70093 7.51765 1.52392 7.9927 1.52819 8.48437C1.53281 9.00868 1.74336 9.51009 2.11413 9.88085C2.48489 10.2516 2.9863 10.4622 3.51061 10.4668C4.035 10.4713 4.54063 10.2696 4.91784 9.90526L5.76647 9.05663C5.96173 8.86137 6.27824 8.86137 6.4735 9.05663C6.66867 9.2519 6.66873 9.56843 6.4735 9.76366L5.61852 10.6186L5.50426 10.7241C4.95194 11.2076 4.23975 11.4731 3.50231 11.4668C2.71573 11.46 1.96332 11.1441 1.40709 10.5879C0.85087 10.0317 0.535023 9.27926 0.528188 8.49267C0.521818 7.75522 0.787322 7.04305 1.27086 6.49071L1.37633 6.37646L2.87633 4.87646L2.99303 4.76562C3.27237 4.51467 3.59686 4.31809 3.94957 4.18651C4.35258 4.03619 4.78324 3.97416 5.21227 4.00487ZM8.49791 0.533194C9.28447 0.540055 10.0369 0.855899 10.5931 1.4121C11.1493 1.96831 11.4647 2.72079 11.4715 3.50732C11.4783 4.29377 11.1761 5.05143 10.6298 5.61718L10.2596 5.25976L10.2699 5.27001L10.6298 5.61718L9.1234 7.12353C8.81929 7.42771 8.45316 7.66314 8.05016 7.81347C7.64718 7.96375 7.21646 8.02534 6.78747 7.99462C6.35842 7.96387 5.94082 7.84148 5.56334 7.63525C5.18588 7.429 4.85712 7.14375 4.59948 6.79931C4.43421 6.57819 4.47948 6.26497 4.70055 6.0996C4.92167 5.93424 5.23487 5.97956 5.40026 6.20068C5.57202 6.43028 5.79121 6.62032 6.04284 6.7578C6.29451 6.89531 6.57319 6.97706 6.85924 6.99755C7.14522 7.018 7.43241 6.97666 7.70104 6.87646C7.9697 6.77622 8.21365 6.61929 8.41637 6.4165L9.91637 4.9165C10.2769 4.53996 10.4761 4.03714 10.4715 3.51562C10.4669 2.99136 10.2568 2.48989 9.8861 2.11913C9.51528 1.74832 9.01352 1.53775 8.48913 1.53319C7.96473 1.52864 7.45959 1.7304 7.08239 2.09472L7.0819 2.09423L6.22741 2.94433C6.03158 3.13902 5.71507 3.1382 5.52038 2.94237C5.32576 2.74655 5.32655 2.43002 5.52233 2.23534L6.38268 1.38036L6.38756 1.37548C6.95337 0.829005 7.71132 0.526359 8.49791 0.533194Z"/>
</svg>
