<svg width="82" height="100" viewBox="0 0 82 100" fill="none" xmlns="http://www.w3.org/2000/svg">
<path d="M37.4543 36.5566L9.83046 20.7376C7.83622 19.5604 8.0578 17.5738 10.4213 16.2494L36.7157 1.09255C39.0054 -0.231834 42.5507 -0.378988 44.5449 0.798243L72.1688 16.6909C74.163 17.8681 73.9414 19.8547 71.5779 21.179L45.2835 36.2623C42.9938 37.5867 39.4485 37.7339 37.4543 36.5566Z" fill="#7B68EE"/>
<path d="M46.6114 15.9547L40.3332 12.8645C38.856 12.1287 37.1572 13.2324 37.1572 14.8511V21.1051C37.1572 22.7238 38.856 23.8275 40.3332 23.0917L46.6114 20.0015C48.2363 19.1185 48.2363 16.7641 46.6114 15.9547Z" fill="#F7F7F7"/>
<path d="M9.53698 37.1459C8.94609 37.1459 8.50293 36.7045 8.50293 36.1159V19.1932C8.50293 18.6045 8.94609 18.1631 9.53698 18.1631C10.1279 18.1631 10.571 18.6045 10.571 19.1932V36.1159C10.6449 36.7045 10.1279 37.1459 9.53698 37.1459Z" fill="#7B68EE"/>
<g opacity="0.5">
<path opacity="0.5" d="M63.7486 49.0656L45.5789 59.5136C44.5449 60.1022 43.7324 59.5136 43.7324 58.1156V45.5339C43.7324 44.136 44.5449 42.5173 45.5789 41.9287L63.6748 31.4808C64.7088 30.8921 65.5213 31.4808 65.5213 32.8787V45.4604C65.5951 46.9319 64.7827 48.477 63.7486 49.0656Z" fill="#7B68EE"/>
</g>
<path d="M54.7383 42.222L49.4203 45.2387C49.1249 45.3858 48.9033 45.2387 48.9033 44.7972C48.9033 44.4293 49.1249 43.9143 49.4203 43.7672L54.7383 40.7505C55.0338 40.6033 55.2553 40.7505 55.2553 41.192C55.3292 41.5598 55.0338 42.0013 54.7383 42.222Z" fill="#F7F7F7"/>
<path d="M56.6561 45.0908L49.4916 49.2847C49.1962 49.4319 48.9746 49.2847 48.9746 48.8433C48.9746 48.4754 49.1962 47.9603 49.4916 47.8132L56.73 43.6929C57.0254 43.5457 57.247 43.6929 57.247 44.1343C57.247 44.5022 56.9515 44.9437 56.6561 45.0908Z" fill="#F7F7F7"/>
<path d="M51.5597 52.0824L49.4916 53.2596C49.1962 53.4068 48.9746 53.2596 48.9746 52.8182C48.9746 52.4503 49.1962 51.9352 49.4916 51.7881L51.5597 50.6108C51.8552 50.4637 52.0768 50.6108 52.0768 51.0523C52.0768 51.4202 51.8552 51.9352 51.5597 52.0824Z" fill="#F7F7F7"/>
<g opacity="0.5">
<path opacity="0.5" d="M36.4225 59.5132L18.2528 49.0653C17.2187 48.4767 16.4062 46.858 16.4062 45.46V32.952C16.4062 31.554 17.2187 30.9654 18.2528 31.554L36.3486 42.0019C37.3827 42.5905 38.1951 44.2092 38.1951 45.6072V58.1153C38.269 59.5132 37.4565 60.1018 36.4225 59.5132Z" fill="#7B68EE"/>
</g>
<path d="M27.4102 42.296L22.0922 39.2793C21.7968 39.1322 21.5752 38.6172 21.5752 38.2493C21.5752 37.8814 21.7968 37.6607 22.0922 37.8078L27.4102 40.8245C27.7056 40.9716 27.9272 41.4867 27.9272 41.8545C28.0011 42.296 27.7056 42.4431 27.4102 42.296Z" fill="#F7F7F7"/>
<path d="M29.3306 47.4465L22.0922 43.3262C21.7968 43.1791 21.5752 42.664 21.5752 42.2961C21.5752 41.9283 21.7968 41.7075 22.0922 41.8547L29.3306 45.975C29.626 46.1222 29.8476 46.6372 29.8476 47.0051C29.9214 47.4465 29.626 47.5937 29.3306 47.4465Z" fill="#F7F7F7"/>
<path d="M24.2316 48.4761L22.1635 47.2989C21.8681 47.1517 21.6465 46.6367 21.6465 46.2688C21.6465 45.9009 21.8681 45.6802 22.1635 45.8273L24.2316 47.0046C24.527 47.1517 24.7486 47.6668 24.7486 48.0347C24.7486 48.4761 24.527 48.6968 24.2316 48.4761Z" fill="#F7F7F7"/>
<path d="M11.0847 84.1062H5.53144L4.44585 86.666H2.31641L7.32686 75.6836H9.37279L14.3832 86.666H12.212L11.0847 84.1062ZM10.4166 82.496L8.32895 77.7067L6.24126 82.496H10.4166Z" fill="#111111"/>
<path d="M17.0118 86.2072C16.302 85.8357 15.7592 85.3402 15.3834 84.6796C15.0076 84.019 14.7988 83.2759 14.7988 82.4501C14.7988 81.6244 15.0076 80.8812 15.3834 80.2206C15.7592 79.56 16.302 79.0646 17.0118 78.693C17.7216 78.3214 18.5149 78.1562 19.3917 78.1562C20.2268 78.1562 20.9784 78.3214 21.6047 78.6517C22.231 78.982 22.6903 79.4774 23.0243 80.0967L21.5212 80.9638C21.2707 80.5922 20.9784 80.3032 20.6026 80.0967C20.2268 79.8903 19.851 79.8077 19.3917 79.8077C18.6402 79.8077 18.0556 80.0555 17.5546 80.5096C17.0535 81.0051 16.8448 81.6244 16.8448 82.4088C16.8448 83.1933 17.0953 83.8539 17.5546 84.308C18.0556 84.8035 18.6402 85.0099 19.3917 85.0099C19.8093 85.0099 20.2268 84.9273 20.6026 84.7209C20.9784 84.5145 21.2707 84.2255 21.5212 83.8539L23.0243 84.7209C22.6903 85.3402 22.231 85.8357 21.6047 86.166C20.9784 86.4963 20.2686 86.6614 19.4335 86.6614C18.5149 86.744 17.7216 86.5788 17.0118 86.2072Z" fill="#111111"/>
<path d="M30.8349 79.0668C31.503 79.6448 31.837 80.5531 31.837 81.7505V86.6636H29.9581V85.6315C29.7076 86.003 29.3735 86.292 28.9142 86.4572C28.4549 86.6223 27.9121 86.7462 27.2858 86.7462C26.6595 86.7462 26.075 86.6223 25.6157 86.4159C25.1564 86.2095 24.7806 85.9205 24.5301 85.5076C24.2796 85.136 24.1543 84.6818 24.1543 84.2277C24.1543 83.4845 24.4466 82.8652 24.9894 82.4111C25.5739 81.9569 26.4508 81.7092 27.6616 81.7092H29.8328V81.5853C29.8328 81.0073 29.6658 80.5531 29.29 80.2228C28.956 79.8925 28.4132 79.7687 27.7034 79.7687C27.2441 79.7687 26.743 79.8512 26.2837 79.9751C25.8245 80.1403 25.4487 80.3054 25.1146 80.5944L24.3213 79.1494C24.7806 78.8191 25.2816 78.5713 25.908 78.3649C26.5343 78.1998 27.2023 78.1172 27.9121 78.1172C29.2065 78.1585 30.1669 78.4888 30.8349 79.0668ZM28.9977 85.0121C29.3735 84.8057 29.6658 84.4754 29.8328 84.0625V83.0716H27.7869C26.6595 83.0716 26.075 83.4432 26.075 84.1864C26.075 84.558 26.2002 84.8057 26.4925 85.0534C26.7848 85.2599 27.1606 85.3837 27.7034 85.3837C28.2044 85.3424 28.622 85.2186 28.9977 85.0121Z" fill="#111111"/>
<path d="M42.7356 75.0225V86.6654H40.8149V85.592C40.4809 86.0048 40.0634 86.2939 39.6041 86.5003C39.103 86.7067 38.602 86.7893 38.0174 86.7893C37.1824 86.7893 36.4725 86.6242 35.8045 86.2526C35.1364 85.881 34.6354 85.3855 34.2596 84.7249C33.8838 84.0643 33.7168 83.3212 33.7168 82.4541C33.7168 81.5871 33.8838 80.8439 34.2596 80.2246C34.6354 79.564 35.1364 79.0686 35.8045 78.7383C36.4725 78.3667 37.1824 78.2016 38.0174 78.2016C38.5602 78.2016 39.103 78.2841 39.5623 78.4906C40.0216 78.697 40.4392 78.9447 40.7732 79.3576V75.0225H42.7356ZM39.5206 84.7662C39.8964 84.5598 40.1886 84.2295 40.4392 83.8579C40.6479 83.445 40.7732 82.9909 40.7732 82.4954C40.7732 81.9587 40.6479 81.5045 40.4392 81.133C40.2304 80.7201 39.8964 80.4311 39.5206 80.2246C39.1448 80.0182 38.7272 79.8943 38.2262 79.8943C37.7252 79.8943 37.3076 80.0182 36.9318 80.2246C36.5561 80.4311 36.2638 80.7614 36.0133 81.133C35.8045 81.5458 35.6792 82 35.6792 82.4954C35.6792 83.0322 35.8045 83.4863 36.0133 83.8579C36.222 84.2708 36.5561 84.5598 36.9318 84.7662C37.3076 84.9727 37.7252 85.0965 38.2262 85.0965C38.7272 85.0965 39.1448 84.9727 39.5206 84.7662Z" fill="#111111"/>
<path d="M53.2553 83.075H46.6165C46.7417 83.6943 47.034 84.1898 47.5351 84.5614C48.0361 84.9329 48.6207 85.0981 49.3722 85.0981C50.2908 85.0981 51.0841 84.8091 51.6687 84.1898L52.7125 85.3871C52.3367 85.8413 51.8357 86.1716 51.2511 86.4193C50.6666 86.667 49.9985 86.7496 49.2887 86.7496C48.3701 86.7496 47.5351 86.5844 46.8253 86.2128C46.1154 85.8413 45.5726 85.3458 45.1969 84.6852C44.8211 84.0246 44.6123 83.2814 44.6123 82.4557C44.6123 81.63 44.7793 80.8868 45.1551 80.2675C45.5309 79.6069 46.0319 79.1114 46.7 78.7399C47.368 78.3683 48.1196 78.2031 48.9547 78.2031C49.7898 78.2031 50.4996 78.3683 51.1676 78.7399C51.8357 79.1114 52.3367 79.6069 52.6708 80.2675C53.0465 80.9281 53.2136 81.6712 53.2136 82.5383C53.2971 82.6621 53.2971 82.8273 53.2553 83.075ZM47.4098 80.3088C46.9505 80.6804 46.7 81.1758 46.6165 81.7951H51.4182C51.3346 81.1758 51.0841 80.6804 50.6248 80.3088C50.1655 79.9372 49.6645 79.7308 48.9964 79.7308C48.3701 79.7308 47.8273 79.9372 47.4098 80.3088Z" fill="#111111"/>
<path d="M68.4113 79.11C69.0376 79.7293 69.3299 80.6376 69.3299 81.8763V86.6656H67.3257V82.124C67.3257 81.3808 67.1587 80.8441 66.8246 80.4725C66.4906 80.1009 66.0313 79.9358 65.405 79.9358C64.7369 79.9358 64.1941 80.1422 63.8183 80.5964C63.4008 81.0505 63.2338 81.6698 63.2338 82.4543V86.7069H61.2296V82.1653C61.2296 81.4221 61.0626 80.8854 60.7286 80.5138C60.3945 80.1422 59.9352 79.977 59.3089 79.977C58.6409 79.977 58.0981 80.1835 57.6805 80.6376C57.263 81.0505 57.096 81.6698 57.096 82.4956V86.7481H55.0918V78.2843H56.9707V79.3577C57.3048 78.9862 57.6805 78.6971 58.1816 78.4907C58.6409 78.2843 59.1837 78.2017 59.7682 78.2017C60.3945 78.2017 60.9791 78.3256 61.4384 78.5733C61.8977 78.821 62.3152 79.1513 62.6075 79.6055C62.9415 79.1513 63.4008 78.821 63.9436 78.5733C64.4864 78.3256 65.1127 78.2017 65.7808 78.2017C66.9499 78.1604 67.8267 78.4907 68.4113 79.11Z" fill="#111111"/>
<path d="M79.6832 78.2845L75.7166 87.3263C75.3408 88.2347 74.8815 88.8953 74.3805 89.2668C73.8377 89.6384 73.2114 89.8036 72.4598 89.8036C72.0422 89.8036 71.6247 89.721 71.2072 89.5971C70.7896 89.4733 70.4556 89.2668 70.2051 89.0191L70.9984 87.5741C71.2072 87.7392 71.4159 87.9044 71.6665 87.9869C71.917 88.1108 72.1675 88.1521 72.4598 88.1521C72.7938 88.1521 73.0861 88.0695 73.3366 87.9044C73.5454 87.7392 73.7542 87.4089 73.9629 86.996L74.0882 86.6657L70.3721 78.2432H72.418L75.0903 84.4362L77.7625 78.2432H79.6832V78.2845Z" fill="#111111"/>
<path d="M3.23047 92.9404H4.85887V98.5555H8.36618V99.8767H3.23047V92.9404Z" fill="#111111"/>
<path d="M15.6757 99.8767V95.7067L13.6297 99.1335H12.8782L10.8322 95.7892V99.8767H9.3291V92.9404H10.6652L13.2957 97.2343L15.8844 92.9404H17.2206V99.8767H15.6757Z" fill="#111111"/>
<path d="M19.5583 99.7517C19.0572 99.5865 18.6397 99.4214 18.3057 99.1737L18.8485 97.9763C19.1407 98.1828 19.5165 98.3892 19.9341 98.5131C20.3516 98.6369 20.7691 98.7195 21.1867 98.7195C21.646 98.7195 21.98 98.6369 22.1888 98.5131C22.3975 98.3892 22.5228 98.1828 22.5228 97.9763C22.5228 97.8112 22.4393 97.6873 22.314 97.5635C22.1888 97.4396 22.0217 97.357 21.813 97.3157C21.6042 97.2332 21.3537 97.1919 20.9779 97.1093C20.4351 96.9854 20.0176 96.8616 19.6835 96.7377C19.3495 96.6138 19.0572 96.4074 18.8067 96.1184C18.5562 95.8294 18.4309 95.4578 18.4309 95.0036C18.4309 94.5908 18.5562 94.2192 18.765 93.8889C18.9737 93.5586 19.3078 93.3109 19.767 93.1044C20.2263 92.898 20.7691 92.8154 21.3954 92.8154C21.8547 92.8154 22.2723 92.8567 22.6898 92.9806C23.1073 93.1044 23.4831 93.2283 23.8172 93.4347L23.3161 94.6734C22.6481 94.3018 22.0217 94.1366 21.3537 94.1366C20.8944 94.1366 20.5604 94.2192 20.3516 94.3431C20.1428 94.4669 20.0176 94.6734 20.0176 94.9211C20.0176 95.1688 20.1428 95.3339 20.3934 95.4578C20.6439 95.5817 21.0197 95.7055 21.5207 95.7881C22.0635 95.912 22.481 96.0358 22.8151 96.1597C23.1491 96.2836 23.4414 96.49 23.6919 96.7377C23.9424 97.0267 24.0677 97.357 24.0677 97.8525C24.0677 98.2653 23.9424 98.5956 23.7336 98.9259C23.5249 99.2562 23.1909 99.5039 22.7316 99.7104C22.2723 99.9168 21.7295 99.9994 21.1032 99.9994C20.6021 99.9994 20.0593 99.9168 19.5583 99.7517Z" fill="#111111"/>
</svg>
