<svg width="800" height="216" viewBox="0 0 800 216" fill="none" xmlns="http://www.w3.org/2000/svg">
<g clip-path="url(#clip0_12840_4017)">
<rect width="800" height="216" rx="12" fill="#7B5CFF"/>
<path d="M159 -8C160.105 -8 161.002 -7.10442 160.984 -5.99998C160.732 10.2596 157.408 26.3313 151.18 41.3662C144.698 57.0172 135.196 71.238 123.217 83.2168C111.238 95.1955 97.0172 104.698 81.3662 111.18C65.7152 117.663 48.9405 121 32 121C15.0595 121 -1.71517 117.663 -17.3662 111.18C-33.0172 104.698 -47.238 95.1955 -59.2168 83.2168C-71.1955 71.238 -80.6976 57.0172 -87.1805 41.3662C-93.4081 26.3313 -96.7324 10.2596 -96.9845 -5.99999C-97.0016 -7.10443 -96.1046 -8.00001 -95 -8.00001L32 -8H159Z" fill="url(#paint0_linear_12840_4017)" fill-opacity="0.22"/>
<path d="M914 250C915.105 250 916.002 249.104 915.984 248C915.732 231.74 912.408 215.669 906.18 200.634C899.698 184.983 890.196 170.762 878.217 158.783C866.238 146.804 852.017 137.302 836.366 130.82C820.715 124.337 803.941 121 787 121C770.059 121 753.285 124.337 737.634 130.82C721.983 137.302 707.762 146.804 695.783 158.783C683.804 170.762 674.302 184.983 667.82 200.634C661.592 215.669 658.268 231.74 658.016 248C657.998 249.104 658.895 250 660 250L787 250H914Z" fill="url(#paint1_linear_12840_4017)" fill-opacity="0.22"/>
</g>
<defs>
<linearGradient id="paint0_linear_12840_4017" x1="32" y1="-137" x2="32" y2="121" gradientUnits="userSpaceOnUse">
<stop stop-color="#7B69EE"/>
<stop offset="1" stop-color="white"/>
</linearGradient>
<linearGradient id="paint1_linear_12840_4017" x1="787" y1="379" x2="787" y2="121" gradientUnits="userSpaceOnUse">
<stop stop-color="#7B69EE"/>
<stop offset="1" stop-color="white"/>
</linearGradient>
<clipPath id="clip0_12840_4017">
<rect width="800" height="216" rx="12" fill="white"/>
</clipPath>
</defs>
</svg>
