<svg width="163" height="26" viewBox="0 0 163 26" fill="none" xmlns="http://www.w3.org/2000/svg">
<g clip-path="url(#clip0_13280_9793)">
<path d="M25.1499 0.848927C24.8806 0.579647 24.5609 0.366067 24.2091 0.220399C23.8572 0.0747306 23.4801 -0.000172342 23.0993 -3.0316e-05H2.89842C2.5177 -3.03449e-05 2.14072 0.0749857 1.78899 0.220716C1.43726 0.366447 1.1177 0.580036 0.848544 0.8493C0.579385 1.11856 0.365885 1.43822 0.220291 1.79001C0.074698 2.14179 -0.000148267 2.51881 2.20506e-07 2.89954V14.5068C0.0178179 14.1707 0.0555654 13.8358 0.113044 13.5041C0.375628 11.8624 1.10694 10.3314 2.21903 9.09544C3.35434 7.8486 4.78483 6.90713 6.37904 6.35753C7.42224 5.97658 8.51911 5.76293 9.62904 5.72449C10.6515 5.68866 11.6723 5.83253 12.645 6.14954C13.5673 6.4509 14.4218 6.92977 15.1602 7.55919C15.8994 8.19482 16.4932 8.9821 16.9011 9.86754L11.7904 11.6909C11.613 11.4081 11.3868 11.1589 11.1223 10.955C10.8665 10.7619 10.5754 10.6206 10.2655 10.539C9.93355 10.4536 9.58964 10.4246 9.24809 10.4531C8.8489 10.4881 8.45616 10.5763 8.08035 10.7154C7.24232 11.0168 6.5961 11.472 6.14166 12.0809C5.68723 12.6899 5.44041 13.4322 5.40122 14.3079C5.36053 15.173 5.53384 16.1486 5.9212 17.2346C6.30857 18.3205 6.79051 19.1929 7.36703 19.8515C7.9428 20.511 8.59734 20.9386 9.33061 21.1346C10.0639 21.3305 10.8661 21.2733 11.7373 20.9628C12.4909 20.6937 13.0803 20.3591 13.5053 19.9589C13.9058 19.6048 14.1866 19.1352 14.3091 18.6148C14.4101 18.1252 14.3765 17.6173 14.2118 17.1453L10.8556 18.3424L9.56912 14.7374L17.8213 11.7904L18.7449 14.3723C19.3425 16.0476 19.4981 17.611 19.2117 19.0625C18.9351 20.4991 18.2461 21.824 17.2289 22.8754C16.192 23.9652 14.8573 24.8013 13.225 25.3839C12.3924 25.6866 11.5275 25.8915 10.6476 25.9943H23.0937C23.8624 25.9937 24.5994 25.688 25.1429 25.1443C25.6864 24.6007 25.9918 23.8635 25.9921 23.0948V2.89388C25.9921 2.12783 25.6894 1.39282 25.1499 0.848927ZM24.2128 4.14302C24.0577 4.29866 23.8734 4.42213 23.6705 4.50632C23.4676 4.59052 23.25 4.63378 23.0303 4.63362H13.2577C12.8214 4.62228 12.4067 4.44099 12.1021 4.12836C11.7975 3.81573 11.6271 3.39651 11.6271 2.96002C11.6271 2.52353 11.7975 2.1043 12.1021 1.79168C12.4067 1.47905 12.8214 1.29775 13.2577 1.28641H23.0326C23.3636 1.28641 23.6871 1.38458 23.9622 1.56849C24.2374 1.7524 24.4518 2.01379 24.5784 2.31958C24.705 2.62538 24.738 2.96185 24.6733 3.28643C24.6087 3.611 24.4492 3.9091 24.215 4.14302H24.2128Z" fill="#006BFF"/>
<path d="M23.193 2.41135V3.14839L22.751 2.41135H22.5249V3.51013H22.751V2.77309L23.1919 3.51013H23.4179V2.41135H23.193Z" fill="#006BFF"/>
<path d="M22.2301 2.53987C22.1898 2.49373 22.1396 2.45739 22.0831 2.43361C22.0231 2.40814 21.9584 2.39545 21.8932 2.39631C21.8284 2.39544 21.7641 2.40814 21.7044 2.43361C21.6477 2.45738 21.597 2.49371 21.5563 2.53987C21.5135 2.58952 21.4808 2.64714 21.4603 2.70943C21.4366 2.78241 21.4251 2.8588 21.4264 2.93552V2.98753C21.4251 3.06424 21.4366 3.14064 21.4603 3.21362C21.4811 3.27601 21.5142 3.33364 21.5575 3.38318C21.5987 3.42876 21.6492 3.46498 21.7056 3.48943C21.7653 3.51469 21.8295 3.52739 21.8943 3.52675C21.9596 3.52772 22.0242 3.515 22.0843 3.48943C22.1408 3.46527 22.1913 3.429 22.2323 3.38318C22.2749 3.3335 22.3072 3.27587 22.3273 3.21362C22.351 3.14064 22.3625 3.06424 22.3612 2.98753V2.93552C22.3625 2.8588 22.351 2.78241 22.3273 2.70943C22.3064 2.64707 22.2733 2.58945 22.2301 2.53987ZM22.1329 2.99204C22.1339 3.04374 22.1286 3.09539 22.117 3.14579C22.1083 3.18571 22.093 3.22391 22.0718 3.25884C22.053 3.28735 22.0274 3.31067 21.9972 3.32666C21.9654 3.34224 21.9304 3.35032 21.8949 3.35032C21.8595 3.35032 21.8245 3.34224 21.7926 3.32666C21.7625 3.31067 21.7368 3.28735 21.718 3.25884C21.6954 3.22435 21.6793 3.18604 21.6705 3.14579C21.6595 3.0953 21.6542 3.04372 21.6547 2.99204V2.93891C21.6542 2.88723 21.6595 2.83566 21.6705 2.78518C21.6795 2.74515 21.6951 2.70692 21.7169 2.67213C21.7353 2.64332 21.7611 2.61992 21.7915 2.60431C21.823 2.58841 21.8579 2.58012 21.8932 2.58012C21.9286 2.58012 21.9634 2.58841 21.995 2.60431C22.0257 2.61989 22.0518 2.64328 22.0707 2.67213C22.0929 2.7067 22.1086 2.745 22.117 2.78518C22.1287 2.83557 22.134 2.88721 22.1329 2.93891V2.99204Z" fill="#006BFF"/>
<path d="M21.2479 2.41135H21.0229V3.51013H21.2479V2.41135Z" fill="#006BFF"/>
<path d="M20.3153 2.41135H19.9829V2.58882H20.3153V3.51013H20.5402V2.58882H20.8782V2.41135H20.5402H20.3153Z" fill="#006BFF"/>
<path d="M19.5734 2.41135H19.4208L19.0127 3.51013H19.2524L19.3281 3.28404H19.7237L19.7995 3.51013H20.0414L19.631 2.41135H19.5734ZM19.3869 3.10091L19.5259 2.67813L19.665 3.10091H19.3869Z" fill="#006BFF"/>
<path d="M18.303 2.76843C18.3108 2.7284 18.3258 2.69011 18.3471 2.65539C18.3641 2.62811 18.3884 2.60618 18.4172 2.59209C18.4481 2.57693 18.4823 2.56955 18.5167 2.5706C18.558 2.56875 18.5991 2.57691 18.6365 2.59435C18.6668 2.60918 18.6911 2.6339 18.7055 2.66444C18.7215 2.70005 18.7303 2.73846 18.7315 2.77748H18.9576C18.9515 2.70729 18.9299 2.63932 18.8943 2.57852C18.8586 2.51971 18.8074 2.47195 18.7462 2.4406C18.6759 2.40618 18.5984 2.38913 18.5201 2.39087C18.4556 2.39002 18.3917 2.40272 18.3324 2.42817C18.2775 2.45241 18.2285 2.48829 18.1889 2.5333C18.1473 2.58243 18.1158 2.63928 18.0962 2.70061C18.0746 2.7709 18.0639 2.84411 18.0645 2.91765V2.99452C18.0634 3.06846 18.0741 3.14211 18.0962 3.2127C18.1141 3.27335 18.1445 3.32957 18.1855 3.37773C18.2245 3.42369 18.2737 3.46006 18.329 3.484C18.3888 3.50878 18.4531 3.52108 18.5178 3.52017C18.596 3.522 18.6734 3.50534 18.7439 3.47156C18.806 3.4422 18.8582 3.39548 18.8943 3.33704C18.9313 3.27786 18.9523 3.21009 18.9553 3.14035H18.7292C18.7275 3.17968 18.7175 3.2182 18.6998 3.25339C18.6843 3.28291 18.6598 3.30668 18.6297 3.32121C18.5941 3.33673 18.5556 3.34444 18.5167 3.34383C18.4811 3.3445 18.4458 3.33674 18.4138 3.32121C18.3854 3.30586 18.3616 3.28324 18.3449 3.25565C18.3251 3.22062 18.3117 3.18234 18.3053 3.14261C18.2957 3.09308 18.2912 3.0427 18.2917 2.99225V2.91426C18.2909 2.8654 18.2946 2.81657 18.303 2.76843Z" fill="#006BFF"/>
<path d="M17.8827 2.41135H17.6577V3.51013H17.8827V2.41135Z" fill="#006BFF"/>
<path d="M16.9588 2.41135H16.7949V3.51013H17.021V3.05682H17.4585V2.88048H17.021V2.58882H17.5105V2.41135H17.021H16.9588Z" fill="#006BFF"/>
<path d="M16.5824 2.41135H16.3574V3.51013H16.5824V2.41135Z" fill="#006BFF"/>
<path d="M15.9514 2.41135H15.8474L15.5659 3.21735L15.2833 2.41135H15.1793H15.0923H14.9883V3.51013H15.2144V3.197L15.1918 2.68604L15.4891 3.51013H15.6428L15.939 2.6883L15.9175 3.197V3.51013H16.1436V2.41135H16.0396H15.9514Z" fill="#006BFF"/>
<path d="M14.4197 2.41135H14.266L13.8579 3.51013H14.0987L14.1744 3.28404H14.5701L14.6458 3.51013H14.8866L14.4763 2.41135H14.4197ZM14.2332 3.10091L14.3722 2.677L14.5113 3.10091H14.2332Z" fill="#006BFF"/>
<path d="M13.3357 3.09759H13.5425V3.29203C13.5318 3.30153 13.52 3.30986 13.5075 3.31689C13.4894 3.32694 13.47 3.33455 13.4498 3.33951C13.4205 3.34597 13.3906 3.349 13.3605 3.34855C13.3216 3.34945 13.283 3.34174 13.2475 3.32595C13.2148 3.31056 13.1864 3.28725 13.165 3.25812C13.1417 3.22391 13.1252 3.18553 13.1164 3.14508C13.1044 3.09549 13.0987 3.04459 13.0994 2.99359V2.92237C13.0988 2.87144 13.1042 2.82062 13.1152 2.7709C13.124 2.73082 13.1397 2.69257 13.1616 2.65785C13.1804 2.62966 13.2061 2.60672 13.2362 2.59116C13.2672 2.575 13.3018 2.56683 13.3368 2.56741C13.3759 2.56576 13.4147 2.57393 13.4498 2.59116C13.4775 2.60622 13.5006 2.62848 13.5165 2.65559C13.5329 2.68579 13.5437 2.71874 13.5482 2.75281H13.7675C13.7619 2.6869 13.7414 2.62314 13.7076 2.5663C13.6745 2.51084 13.6257 2.4664 13.5674 2.43856C13.4939 2.40446 13.4133 2.38819 13.3323 2.39107C13.2677 2.39058 13.2036 2.40247 13.1435 2.42611C13.0882 2.44979 13.0389 2.4853 12.9988 2.53011C12.9562 2.57852 12.9239 2.63505 12.9038 2.69629C12.8816 2.76953 12.8709 2.84582 12.8722 2.92237V2.99133C12.8709 3.06805 12.8823 3.14445 12.9061 3.21741C12.9261 3.27892 12.9589 3.33554 13.0022 3.3836C13.0442 3.42849 13.0955 3.4636 13.1526 3.48646C13.2145 3.51062 13.2805 3.52253 13.347 3.52151C13.4161 3.52277 13.485 3.51401 13.5516 3.49551C13.6002 3.48191 13.6467 3.46135 13.6895 3.43446C13.7187 3.41584 13.7453 3.39342 13.7686 3.36777V2.94159H13.3357V3.09759Z" fill="#006BFF"/>
</g>
<path d="M156.838 19.1878C155.656 19.1878 154.632 18.9338 153.769 18.4259C152.913 17.9107 152.252 17.1959 151.788 16.2816C151.324 15.3601 151.091 14.2934 151.091 13.0816C151.091 11.877 151.327 10.814 151.799 9.89241C152.27 8.9636 152.924 8.23796 153.758 7.71551C154.6 7.19305 155.576 6.93182 156.686 6.93182C157.484 6.93182 158.217 7.06607 158.885 7.33455C159.559 7.60303 160.147 7.99488 160.648 8.51008C161.149 9.02528 161.537 9.66021 161.813 10.4149C162.088 11.1623 162.226 12.0185 162.226 12.9836V13.7891H152.289V11.8843H160.833L159.57 12.4176C159.57 11.75 159.458 11.1731 159.233 10.687C159.008 10.1935 158.681 9.81259 158.253 9.5441C157.832 9.26836 157.321 9.13049 156.719 9.13049C156.124 9.13049 155.608 9.26836 155.173 9.5441C154.745 9.81259 154.415 10.1899 154.183 10.6761C153.95 11.155 153.834 11.7065 153.834 12.3305V13.5823C153.834 14.2934 153.958 14.9065 154.204 15.4217C154.451 15.9297 154.803 16.3215 155.26 16.5973C155.717 16.8657 156.261 17 156.893 17C157.328 17 157.72 16.9383 158.068 16.8149C158.417 16.6843 158.71 16.4993 158.95 16.2598C159.189 16.0131 159.367 15.7229 159.483 15.3891L162.063 15.6285C161.903 16.3324 161.58 16.9528 161.094 17.4898C160.608 18.0268 160.002 18.444 159.276 18.7415C158.551 19.039 157.738 19.1878 156.838 19.1878Z" fill="#006BFF"/>
<path d="M141.263 12.1566V18.9376H138.476V7.13882H141.175L141.186 10.1103H140.794C141.15 9.07264 141.662 8.28532 142.329 7.74835C142.997 7.21139 143.828 6.9429 144.822 6.9429C145.642 6.9429 146.36 7.12068 146.977 7.47624C147.594 7.82455 148.076 8.33975 148.425 9.02184C148.773 9.69668 148.947 10.5275 148.947 11.5144V18.9376H146.161V11.9498C146.161 11.1153 145.954 10.4767 145.54 10.0341C145.134 9.58421 144.561 9.35926 143.82 9.35926C143.327 9.35926 142.888 9.46085 142.503 9.66403C142.119 9.8672 141.814 10.1792 141.589 10.6001C141.371 11.0137 141.263 11.5325 141.263 12.1566Z" fill="#006BFF"/>
<path d="M133.012 18.9374V7.1386H135.798V18.9374H133.012ZM134.405 5.42974C133.941 5.42974 133.549 5.28098 133.23 4.98347C132.918 4.67871 132.762 4.30864 132.762 3.87326C132.762 3.43062 132.918 3.06055 133.23 2.76304C133.549 2.46553 133.941 2.31677 134.405 2.31677C134.87 2.31677 135.258 2.46553 135.57 2.76304C135.889 3.06055 136.049 3.43062 136.049 3.87326C136.049 4.30864 135.889 4.67871 135.57 4.98347C135.251 5.28098 134.862 5.42974 134.405 5.42974Z" fill="#006BFF"/>
<path d="M124.773 23.6833C123.779 23.6833 122.915 23.5454 122.182 23.2696C121.457 23.0012 120.869 22.6202 120.419 22.1268C119.976 21.6333 119.679 21.0637 119.526 20.4179L122.095 20.037C122.197 20.3199 122.36 20.5739 122.585 20.7989C122.817 21.0311 123.115 21.2125 123.477 21.3431C123.84 21.481 124.272 21.5499 124.773 21.5499C125.636 21.5499 126.315 21.3286 126.808 20.8859C127.309 20.4506 127.559 19.7975 127.559 18.9267V16.924H127.45C127.254 17.3013 127 17.6424 126.688 17.9471C126.376 18.2446 125.999 18.4805 125.556 18.6546C125.114 18.8215 124.595 18.905 124 18.905C123.035 18.905 122.175 18.6691 121.42 18.1975C120.666 17.7186 120.074 17.0401 119.646 16.1621C119.218 15.2768 119.004 14.221 119.004 12.9947C119.004 11.7538 119.218 10.6835 119.646 9.78376C120.081 8.87671 120.676 8.17648 121.431 7.68305C122.186 7.18962 123.042 6.9429 124 6.9429C124.595 6.9429 125.117 7.03723 125.567 7.2259C126.017 7.40731 126.402 7.65402 126.721 7.96604C127.04 8.27081 127.302 8.61186 127.505 8.98919H127.581V7.13882H130.324V18.7852C130.324 19.9245 130.081 20.8533 129.595 21.5717C129.116 22.2973 128.455 22.8306 127.614 23.1717C126.779 23.5127 125.832 23.6833 124.773 23.6833ZM124.707 16.6519C125.317 16.6519 125.839 16.5031 126.275 16.2056C126.717 15.9008 127.055 15.4727 127.287 14.9212C127.519 14.3698 127.635 13.7167 127.635 12.962C127.635 12.2146 127.519 11.5616 127.287 11.0028C127.055 10.4441 126.717 10.0087 126.275 9.69668C125.839 9.38466 125.317 9.22865 124.707 9.22865C124.112 9.22865 123.601 9.38103 123.173 9.6858C122.745 9.99056 122.414 10.4223 122.182 10.9811C121.957 11.5398 121.845 12.2001 121.845 12.962C121.845 13.7312 121.957 14.3915 122.182 14.943C122.414 15.4945 122.745 15.919 123.173 16.2165C123.601 16.5067 124.112 16.6519 124.707 16.6519Z" fill="#006BFF"/>
<path d="M109.175 12.1566V18.9376H106.389V7.13882H109.088L109.099 10.1103H108.707C109.063 9.07264 109.574 8.28532 110.242 7.74835C110.909 7.21139 111.74 6.9429 112.734 6.9429C113.554 6.9429 114.273 7.12068 114.889 7.47624C115.506 7.82455 115.989 8.33975 116.337 9.02184C116.685 9.69668 116.86 10.5275 116.86 11.5144V18.9376H114.073V11.9498C114.073 11.1153 113.866 10.4767 113.453 10.0341C113.046 9.58421 112.473 9.35926 111.733 9.35926C111.24 9.35926 110.801 9.46085 110.416 9.66403C110.031 9.8672 109.727 10.1792 109.502 10.6001C109.284 11.0137 109.175 11.5325 109.175 12.1566Z" fill="#006BFF"/>
<path d="M93.1099 18.9374V2.71951H104.06V5.19029H96.0051V9.51144H103.461V11.9387H96.0051V16.4666H104.081V18.9374H93.1099Z" fill="#006BFF"/>
<path d="M84.8922 19.1988C83.9561 19.1988 83.1398 19.0174 82.4432 18.6546C81.7538 18.2917 81.2168 17.7475 80.8322 17.0219C80.4477 16.289 80.2554 15.3783 80.2554 14.2899C80.2554 13.2232 80.4186 12.24 80.7452 11.3402C81.079 10.4331 81.5397 9.64945 82.1275 8.98913C82.7225 8.32154 83.4119 7.80272 84.1956 7.43264C84.9865 7.06257 85.8391 6.87753 86.7534 6.87753C87.5371 6.87753 88.2192 7.00815 88.7997 7.26938C89.3875 7.5306 89.841 7.9043 90.1603 8.39048C90.4868 8.87665 90.6501 9.46079 90.6501 10.1429C90.6501 10.8322 90.4687 11.42 90.1058 11.9062C89.7503 12.3851 89.2024 12.7733 88.4623 13.0708C87.7221 13.3683 86.7824 13.586 85.6432 13.7239C84.5112 13.8618 83.1688 13.9307 81.6159 13.9307L81.8772 12.396C83.2051 12.396 84.3117 12.3561 85.1969 12.2762C86.0822 12.1964 86.7824 12.0658 87.2976 11.8844C87.8201 11.703 88.1902 11.4708 88.4079 11.1878C88.6328 10.8975 88.7453 10.5456 88.7453 10.132C88.7453 9.66034 88.553 9.28664 88.1684 9.01089C87.7838 8.7279 87.2505 8.5864 86.5684 8.5864C85.7774 8.5864 85.099 8.76055 84.533 9.10886C83.967 9.45716 83.5062 9.91431 83.1506 10.4803C82.7951 11.0463 82.5339 11.6667 82.367 12.3416C82.2001 13.0164 82.1166 13.684 82.1166 14.3443C82.1166 14.9103 82.2037 15.4327 82.3778 15.9117C82.552 16.3906 82.8495 16.7752 83.2704 17.0654C83.6912 17.3557 84.2717 17.5008 85.0119 17.5008C85.8246 17.5008 86.5321 17.323 87.1344 16.9675C87.7366 16.6046 88.1793 16.1294 88.4623 15.5416L90.3018 15.7702C89.8809 16.8078 89.1952 17.6387 88.2446 18.2627C87.294 18.8868 86.1765 19.1988 84.8922 19.1988Z" fill="#006BFF"/>
<path d="M60.8916 18.9373L62.8399 7.13847H64.6903L64.2876 9.66367L64.0808 9.60925C64.3783 8.99972 64.7375 8.49903 65.1583 8.10719C65.5792 7.70809 66.0363 7.41058 66.5298 7.21466C67.0232 7.01874 67.5203 6.92078 68.0209 6.92078C68.6377 6.92078 69.1674 7.05139 69.6101 7.31262C70.0527 7.56659 70.3901 7.90764 70.6223 8.33576C70.8618 8.75663 70.9924 9.22103 71.0142 9.72898L70.6985 9.60925C70.9453 9.07954 71.279 8.61513 71.6999 8.21603C72.128 7.80968 72.6178 7.49403 73.1693 7.26908C73.7281 7.03688 74.3194 6.92078 74.9435 6.92078C75.6691 6.92078 76.304 7.08042 76.8483 7.39969C77.3925 7.71172 77.7916 8.18338 78.0456 8.81468C78.2995 9.43872 78.3467 10.2224 78.1871 11.1657L76.9027 18.9373H74.9979L76.3041 11.0569C76.4056 10.4691 76.373 10.0011 76.2061 9.65279C76.0464 9.29723 75.7997 9.04325 75.4659 8.89087C75.1322 8.73849 74.7584 8.6623 74.3448 8.6623C73.7643 8.6623 73.2455 8.78565 72.7884 9.03237C72.3312 9.27183 71.9539 9.59836 71.6564 10.012C71.3661 10.4256 71.1775 10.89 71.0904 11.4052L69.8387 18.9373H67.9448L69.2727 10.8718C69.3888 10.1825 69.2618 9.6419 68.8917 9.25006C68.5216 8.85822 68.0101 8.6623 67.357 8.6623C66.8563 8.6623 66.3665 8.7784 65.8876 9.0106C65.4159 9.2428 65.0059 9.58748 64.6576 10.0446C64.3166 10.4945 64.0916 11.0496 63.9828 11.71L62.7855 18.9373H60.8916Z" fill="#006BFF"/>
<path d="M52.2384 19.1768C51.237 19.1768 50.3953 18.9228 49.7132 18.4148C49.0384 17.8996 48.5631 17.1849 48.2874 16.2706C48.0189 15.349 47.9862 14.2751 48.1894 13.0488C48.3926 11.8152 48.7808 10.7449 49.354 9.83785C49.9345 8.92355 50.6493 8.21606 51.4983 7.71538C52.3473 7.20743 53.2688 6.95346 54.2629 6.95346C54.8942 6.95346 55.424 7.05142 55.8521 7.24734C56.2875 7.43601 56.6394 7.68272 56.9079 7.98749C57.1764 8.29225 57.3795 8.61516 57.5174 8.95621H57.6045L57.8984 7.1385H59.7814L57.8331 18.9373H55.9827L56.2657 17.1305H56.1568C55.8811 17.486 55.5582 17.8198 55.1881 18.1318C54.818 18.4439 54.3863 18.6978 53.8929 18.8938C53.4067 19.0824 52.8552 19.1768 52.2384 19.1768ZM52.8153 17.4679C53.5409 17.4679 54.1904 17.2828 54.7636 16.9128C55.3369 16.5427 55.8158 16.0239 56.2004 15.3563C56.5922 14.6887 56.8571 13.9159 56.9949 13.0379C57.1401 12.1526 57.1292 11.3835 56.9623 10.7304C56.8027 10.0701 56.4943 9.55848 56.0371 9.19567C55.5872 8.83285 54.9995 8.65144 54.2738 8.65144C53.5627 8.65144 52.9205 8.83285 52.3473 9.19567C51.774 9.55123 51.2951 10.0592 50.9105 10.7195C50.5259 11.3726 50.2611 12.1454 50.1159 13.0379C49.9636 13.9377 49.9708 14.7214 50.1377 15.3889C50.3119 16.0493 50.6239 16.5608 51.0738 16.9237C51.5309 17.2865 52.1114 17.4679 52.8153 17.4679Z" fill="#006BFF"/>
<path d="M38.3933 19.177C37.1234 19.177 36.0241 18.9049 35.0953 18.3606C34.1665 17.8164 33.4481 17.0509 32.9401 16.064C32.4322 15.0699 32.1782 13.9053 32.1782 12.5701C32.1782 11.293 32.385 10.0521 32.7986 8.8476C33.2122 7.64304 33.8 6.56185 34.5619 5.60401C35.3238 4.64618 36.2381 3.88789 37.3048 3.32915C38.3788 2.76316 39.5688 2.48016 40.8749 2.48016C41.7457 2.48016 42.5403 2.61078 43.2586 2.87201C43.9843 3.13323 44.6083 3.50693 45.1308 3.99311C45.6532 4.47203 46.0596 5.04165 46.3498 5.70198C46.6401 6.3623 46.7888 7.09156 46.7961 7.88976H44.7498C44.7063 7.36005 44.5866 6.8775 44.3906 6.44212C44.1947 6.00674 43.9262 5.63304 43.5852 5.32102C43.2514 5.009 42.8487 4.76954 42.377 4.60264C41.9053 4.42849 41.3793 4.34141 40.7987 4.34141C39.7829 4.34141 38.8649 4.57724 38.045 5.04891C37.2323 5.51331 36.532 6.13736 35.9443 6.92104C35.3638 7.70472 34.9175 8.58274 34.6055 9.55509C34.3007 10.5202 34.1483 11.5034 34.1483 12.5048C34.1483 14.0141 34.5365 15.1933 35.313 16.0423C36.0966 16.8912 37.1488 17.3157 38.4695 17.3157C39.3983 17.3157 40.2654 17.1126 41.0709 16.7062C41.8836 16.2926 42.5657 15.7193 43.1171 14.9865C43.6686 14.2536 44.0242 13.4046 44.1838 12.4395L44.7716 12.581H39.928L40.2219 10.8068H46.426L46.1213 12.6354C45.9544 13.6077 45.6387 14.493 45.1743 15.2912C44.7172 16.0894 44.1403 16.7788 43.4437 17.3593C42.7543 17.9398 41.9779 18.3897 41.1144 18.709C40.2581 19.021 39.3511 19.177 38.3933 19.177Z" fill="#006BFF"/>
<defs>
<clipPath id="clip0_13280_9793">
<rect width="26" height="26" fill="white"/>
</clipPath>
</defs>
</svg>
