<svg width="114" height="24" viewBox="0 0 114 24" fill="none" xmlns="http://www.w3.org/2000/svg">
<g clip-path="url(#clip0_13280_9954)">
<path d="M23.1112 0.784352C22.8626 0.535155 22.5675 0.337634 22.2428 0.203083C21.9181 0.068532 21.5702 -0.000411459 21.219 0.000193746H2.6562C2.30492 -0.000801039 1.95689 0.0679647 1.63215 0.202538C1.30742 0.337111 1.01238 0.534838 0.763964 0.784352C0.515705 1.034 0.318945 1.33044 0.184999 1.65666C0.051053 1.98288 -0.0174542 2.33246 -0.0165936 2.68534V13.3927C0.000701273 13.0818 0.0370286 12.7723 0.0922007 12.4659C0.334329 10.9512 1.00611 9.53873 2.02702 8.39782C3.07064 7.24775 4.38491 6.37924 5.84934 5.87188C6.80821 5.51997 7.81647 5.32268 8.83671 5.28732C9.77567 5.25447 10.7131 5.38717 11.6065 5.6794C12.454 5.95761 13.2391 6.40001 13.9174 6.98158C14.5979 7.56997 15.1434 8.2996 15.5163 9.12019L10.8212 10.8026C10.6581 10.5411 10.4498 10.3109 10.2062 10.123C9.97113 9.9443 9.70357 9.81353 9.41856 9.73802C9.11366 9.65976 8.79786 9.63326 8.48425 9.6596C8.11728 9.68982 7.75608 9.76976 7.41043 9.89722C6.70459 10.1284 6.0841 10.5671 5.62936 11.1566C5.2005 11.7566 4.96371 12.4736 4.95052 13.2121C4.93188 14.135 5.09257 15.0527 5.42358 15.9139C5.717 16.7992 6.17443 17.6207 6.77178 18.3352C7.23971 18.9058 7.86905 19.3201 8.5765 19.5234C9.3124 19.7006 10.0848 19.645 10.7881 19.3642C11.3866 19.17 11.9394 18.8555 12.413 18.4398C12.7798 18.1112 13.0374 17.6774 13.151 17.197C13.2433 16.7465 13.2123 16.2792 13.0611 15.8449L9.98624 16.9499L8.80359 13.6232L16.3891 10.9047L17.2382 13.281C17.7869 14.8287 17.9297 16.2727 17.6663 17.6129C17.4124 18.9388 16.7795 20.1616 15.845 21.1321C14.8178 22.1853 13.5565 22.9785 12.1647 23.4465C11.4008 23.7262 10.607 23.9152 9.79937 24.0097H21.2356C21.5862 24.0097 21.9334 23.9402 22.2573 23.8052C22.5812 23.6701 22.8754 23.4722 23.123 23.2228C23.3706 22.9734 23.5668 22.6773 23.7004 22.3516C23.8339 22.0258 23.9022 21.6768 23.9012 21.3246V2.67821C23.9001 2.32585 23.8297 1.97718 23.6941 1.65219C23.5585 1.3272 23.3605 1.03229 23.1112 0.784352ZM22.2243 4.02792C22.0691 4.18379 21.8846 4.30713 21.6816 4.39075C21.4786 4.47438 21.261 4.51663 21.0416 4.51505H18.0803C17.6411 4.51505 17.22 4.3398 16.9095 4.02786C16.599 3.71591 16.4246 3.29283 16.4246 2.85168C16.4214 2.41221 16.5914 1.98934 16.8976 1.67544C17.0528 1.51957 17.2372 1.39623 17.4403 1.3126C17.6433 1.22898 17.8608 1.18673 18.0803 1.18831H21.0629C21.502 1.18831 21.9231 1.36356 22.2336 1.6755C22.5441 1.98744 22.7186 2.41053 22.7186 2.85168C22.7174 3.07079 22.6731 3.28749 22.5882 3.48935C22.5034 3.6912 22.3797 3.87423 22.2243 4.02792Z" fill="#006BFF"/>
<path d="M21.2892 2.17618H21.1615L20.8162 3.16945L20.4709 2.17618H20.3431H20.2367H20.1113V3.52826H20.3857V3.14331L20.3573 2.5136L20.7216 3.52826H20.9108L21.2751 2.52073L21.2467 3.14331V3.52826H21.5258V2.17618H21.398H21.2892Z" fill="#006BFF"/>
<path d="M19.7568 2.8898C19.8013 2.85609 19.837 2.81206 19.8609 2.76148C19.886 2.70219 19.898 2.63816 19.8963 2.57376C19.8991 2.49506 19.8785 2.4173 19.8372 2.35039C19.7946 2.28872 19.7344 2.24149 19.6645 2.21494C19.5818 2.18572 19.4943 2.17281 19.4067 2.17692H18.9053V3.529H19.1702V3.02762H19.3902L19.6456 3.529H19.9413V3.51475L19.6503 2.96108C19.6888 2.94215 19.7246 2.91818 19.7568 2.8898ZM19.5959 2.70207C19.5799 2.73378 19.5542 2.75957 19.5226 2.77574C19.4851 2.79404 19.4437 2.80301 19.402 2.80187H19.1654V2.38603H19.402C19.4443 2.38423 19.4864 2.39237 19.525 2.4098C19.5565 2.42596 19.5822 2.45175 19.5983 2.48346C19.6151 2.5182 19.6232 2.55654 19.622 2.59514C19.6241 2.63562 19.6151 2.6759 19.5959 2.71158V2.70207Z" fill="#006BFF"/>
<path d="M17.917 2.6181C17.9258 2.57084 17.9434 2.52569 17.969 2.48503C17.9903 2.45118 18.0206 2.42401 18.0565 2.40662C18.0937 2.38734 18.1354 2.37832 18.1772 2.38048C18.2276 2.37811 18.2779 2.38789 18.3238 2.40899C18.3615 2.42742 18.3917 2.45852 18.409 2.49692C18.4288 2.54025 18.4401 2.58707 18.4421 2.63474H18.7188C18.7102 2.55078 18.6836 2.4697 18.6407 2.39711C18.5987 2.32433 18.5361 2.26564 18.461 2.2284C18.3731 2.18413 18.2754 2.16288 18.1772 2.16662C18.096 2.16397 18.0152 2.17939 17.9406 2.21177C17.8727 2.24181 17.8122 2.28641 17.7632 2.34246C17.7129 2.40236 17.675 2.47187 17.652 2.54682C17.6246 2.63362 17.611 2.72425 17.6119 2.81533V2.89137C17.6113 2.98226 17.624 3.07273 17.6497 3.15989C17.6732 3.23461 17.711 3.30402 17.7609 3.36424C17.8083 3.42091 17.8682 3.46566 17.9359 3.49494C18.0109 3.5258 18.0914 3.54116 18.1724 3.54008C18.2703 3.54215 18.3673 3.52184 18.4562 3.48068C18.5314 3.44366 18.5946 3.38598 18.6384 3.31434C18.6834 3.24294 18.7095 3.16112 18.7141 3.07672H18.4373C18.4369 3.12413 18.4247 3.17068 18.4019 3.21216C18.3837 3.24878 18.3536 3.2781 18.3167 3.29533C18.2715 3.31598 18.2221 3.32575 18.1724 3.32385C18.1292 3.32492 18.0863 3.31598 18.0471 3.29771C18.0116 3.27835 17.9822 3.24958 17.9619 3.21454C17.9386 3.17304 17.9218 3.12815 17.9122 3.08147C17.9021 3.02023 17.8973 2.95821 17.898 2.89612V2.80107C17.898 2.73959 17.9044 2.67827 17.917 2.6181Z" fill="#006BFF"/>
<path d="M109.971 2.26385L107.057 10.3027C106.96 10.5997 106.849 10.9728 106.717 11.4219C106.584 11.871 106.449 12.332 106.305 12.8286C106.161 13.3252 106.047 13.7648 105.927 14.2116C105.806 13.7601 105.673 13.292 105.534 12.8072C105.394 12.3225 105.262 11.8567 105.132 11.41C105.002 10.9633 104.895 10.5997 104.791 10.3027L101.837 2.26385H97.8159V17.6809H100.515V9.8393C100.515 9.50187 100.515 9.10029 100.493 8.65118C100.472 8.20207 100.477 7.70069 100.463 7.19217C100.448 6.68366 100.437 6.15613 100.422 5.64049C100.422 5.52643 100.422 5.42187 100.422 5.31257C100.472 5.47415 100.519 5.63336 100.571 5.78782L101.066 7.38227C101.222 7.89079 101.371 8.36128 101.508 8.789C101.645 9.21673 101.766 9.56128 101.868 9.84405L104.784 17.6856H107.059L109.943 9.84405C110.044 9.55415 110.165 9.19772 110.302 8.77712C110.439 8.35653 110.584 7.88128 110.735 7.37039L111.208 5.77831C111.272 5.56683 111.331 5.35772 111.393 5.15098C111.393 5.31732 111.393 5.48128 111.393 5.65237C111.379 6.17831 111.364 6.6995 111.35 7.21593C111.336 7.73237 111.323 8.21475 111.31 8.66306C111.31 9.1193 111.31 9.51138 111.31 9.85118V17.6928H114.018V2.26385H109.971Z" fill="#006BFF"/>
<path d="M93.2982 11.464C94.0866 11.1019 94.7519 10.5152 95.2117 9.7769C95.6713 8.99851 95.9033 8.10579 95.8811 7.20105C95.9053 6.2868 95.6813 5.38318 95.233 4.58719C94.7975 3.83946 94.1481 3.24079 93.3691 2.86917C92.4513 2.43896 91.4462 2.22985 90.4338 2.25848H84.5537V17.6826H87.2903V12.0533H90.3203L93.2651 17.6826H96.2927L93.0451 11.5733L93.2982 11.464ZM87.2903 4.58482H90.1642C90.7269 4.56661 91.2863 4.67627 91.8009 4.90561C92.2194 5.09303 92.5692 5.40704 92.8015 5.80383C93.0365 6.23084 93.1533 6.71331 93.1397 7.20105C93.1522 7.68189 93.0354 8.1572 92.8015 8.5769C92.5675 8.97052 92.218 9.28178 91.8009 9.46798C91.2874 9.68904 90.732 9.79448 90.1736 9.7769H87.2903V4.58482Z" fill="#006BFF"/>
<path d="M79.4972 13.7392C79.277 14.097 78.9951 14.4124 78.6646 14.6706C78.3348 14.9289 77.9615 15.1253 77.5623 15.2504C77.1318 15.3833 76.6834 15.449 76.233 15.4453C75.4072 15.4645 74.5942 15.238 73.8961 14.7942C73.2159 14.3272 72.6832 13.6741 72.3611 12.9122C71.9754 11.9852 71.7892 10.9867 71.8147 9.98232C71.7891 8.97868 71.9753 7.98096 72.3611 7.0548C72.6788 6.28521 73.2121 5.62482 73.8961 5.15381C74.5916 4.70308 75.4056 4.47215 76.233 4.49084C76.6836 4.48674 77.1321 4.55328 77.5623 4.68807C77.9649 4.81077 78.3416 5.00647 78.674 5.26549C79.0061 5.52676 79.2855 5.84938 79.4972 6.21599C79.7287 6.60477 79.8889 7.03214 79.9702 7.47777H82.7305C82.6214 6.6819 82.3664 5.91326 81.9783 5.21084C81.6211 4.55152 81.139 3.96871 80.5592 3.49519C79.9727 3.01273 79.3022 2.64372 78.5818 2.40688C77.8105 2.15493 77.0038 2.02976 76.1928 2.03618C74.9004 2.00967 73.6254 2.33833 72.5053 2.98668C71.4182 3.64388 70.5396 4.59826 69.9721 5.73836C69.333 7.05385 69.019 8.50475 69.0567 9.96807C69.0192 11.4291 69.3332 12.8776 69.9721 14.1906C70.5425 15.3262 71.4206 16.2768 72.5053 16.9328C73.6242 17.5853 74.8993 17.9181 76.1928 17.8952C77.0228 17.9035 77.8482 17.7701 78.6338 17.5007C79.3549 17.2475 80.0247 16.866 80.6112 16.3744C81.1859 15.8911 81.667 15.3054 82.0304 14.6469C82.3961 13.9679 82.6365 13.2281 82.74 12.4631H79.982C79.8957 12.9136 79.7316 13.3455 79.4972 13.7392Z" fill="#006BFF"/>
<path d="M66.1822 6.48526C65.6335 6.17247 65.0106 6.01481 64.3799 6.02903C63.8036 6.02638 63.2326 6.13949 62.7005 6.3617C62.185 6.57092 61.7132 6.87562 61.3097 7.25992C61.0295 7.5274 60.7867 7.83198 60.5883 8.16526C60.5287 7.88808 60.4282 7.62138 60.2903 7.37398C60.0715 6.96753 59.7438 6.63083 59.3442 6.40209C58.8853 6.14385 58.3656 6.01495 57.8398 6.02903C57.3533 6.03055 56.8715 6.12573 56.4207 6.30942C55.9369 6.50866 55.4959 6.79994 55.1221 7.16724C54.8386 7.43833 54.592 7.74596 54.3889 8.08209L54.6798 6.24526H52.9295L51.0869 17.4611H52.8775L54.0104 10.5914C54.0919 10.0195 54.3111 9.47624 54.6491 9.00883C54.9546 8.59355 55.3533 8.2565 55.8128 8.02506C56.2452 7.80963 56.721 7.69664 57.2036 7.69477C57.4712 7.67918 57.7391 7.72091 57.9895 7.81718C58.2398 7.91345 58.467 8.06206 58.6558 8.25318C59.0059 8.62704 59.1258 9.1411 59.0154 9.79536L57.7594 17.4611H59.5523L60.735 10.3015C60.8126 9.82536 60.9961 9.37295 61.2719 8.97794C61.5615 8.57408 61.9439 8.24651 62.3866 8.02309C62.8293 7.79968 63.3192 7.68704 63.8146 7.69477C64.18 7.6889 64.5423 7.76267 64.8766 7.91101C65.1953 8.05451 65.4486 8.31323 65.5862 8.63576C65.7505 9.06133 65.7826 9.52691 65.6784 9.9712L64.4414 17.4611H66.239L67.4548 10.0734C67.6124 9.17675 67.5675 8.43219 67.3199 7.83972C67.1093 7.26891 66.7069 6.78987 66.1822 6.48526Z" fill="#006BFF"/>
<path d="M45.3069 12.4968C46.2182 12.4037 47.114 12.1945 47.9726 11.8742C48.5826 11.6565 49.121 11.2742 49.529 10.7693C49.8792 10.282 50.0596 9.69235 50.0423 9.09163C50.0559 8.50185 49.8909 7.92182 49.5692 7.42827C49.2536 6.95427 48.8061 6.58404 48.2825 6.36371C47.6752 6.09949 47.0188 5.96827 46.3571 5.97876C45.5209 5.97238 44.6936 6.15255 43.9351 6.50629C43.19 6.86161 42.5245 7.36525 41.979 7.98668C41.4069 8.64187 40.9631 9.39971 40.671 10.2203C40.3518 11.1202 40.1917 12.0691 40.1979 13.0243C40.168 13.9217 40.3555 14.813 40.7443 15.6215C41.0818 16.2834 41.6135 16.825 42.2675 17.1732C42.9872 17.5316 43.7825 17.7094 44.5855 17.6912C45.7075 17.7179 46.8119 17.4077 47.7574 16.8001C48.6371 16.2315 49.3177 15.4006 49.704 14.4239L47.9632 14.2077C47.688 14.7746 47.2507 15.2462 46.7072 15.5621C46.0957 15.9103 45.4017 16.0852 44.6991 16.0683C44.1183 16.1018 43.5409 15.9577 43.0434 15.6548C42.6536 15.3887 42.3579 15.0051 42.1989 14.5594C42.0348 14.0802 41.9548 13.5761 41.9624 13.0695C41.9624 12.9364 41.9624 12.8057 41.9624 12.6726C43.0796 12.6761 44.1962 12.6174 45.3069 12.4968ZM42.9417 9.40767C43.2743 8.8816 43.7236 8.43998 44.2544 8.11738C44.8377 7.77291 45.5058 7.60077 46.1821 7.62074C46.7163 7.58967 47.2466 7.73033 47.6959 8.02233C47.8683 8.14013 48.0085 8.29957 48.1035 8.486C48.1986 8.67243 48.2455 8.87987 48.2399 9.08926C48.2501 9.45028 48.1375 9.804 47.9206 10.092C47.6407 10.4092 47.2763 10.6393 46.8704 10.755C46.2251 10.9578 45.5582 11.083 44.8835 11.1281C44.1479 11.1946 43.2515 11.2302 42.1942 11.2398C42.1942 11.2231 42.1942 11.2065 42.2061 11.1899C42.357 10.5615 42.6069 9.9615 42.9464 9.41243L42.9417 9.40767Z" fill="#006BFF"/>
<path d="M37.2527 8.01767L37.1486 8.03668C37.0414 7.7742 36.8998 7.52727 36.7276 7.30242C36.5481 7.06084 36.3327 6.84845 36.0889 6.67272C35.8163 6.46644 35.5085 6.31183 35.1807 6.21648C34.7867 6.10104 34.3776 6.04577 33.9673 6.05252C33.1326 6.03914 32.3089 6.24559 31.5783 6.65133C30.8676 7.05531 30.2495 7.60504 29.7642 8.2648C29.2654 8.94517 28.8825 9.704 28.6312 10.5103C28.3719 11.3335 28.2403 12.1919 28.2409 13.0553C28.2195 13.8699 28.3888 14.6781 28.7352 15.4149C29.0503 16.0527 29.5434 16.5844 30.1544 16.9452C30.813 17.3088 31.5556 17.4908 32.3068 17.4727C33.289 17.4983 34.2463 17.16 34.9962 16.5222C35.3239 16.2412 35.6241 15.9293 35.8926 15.5907L35.9731 15.5717L35.6656 17.4537C35.6174 17.8773 35.484 18.2866 35.2734 18.6567C35.0627 19.0269 34.7793 19.35 34.4403 19.6066C33.7242 20.1228 32.8591 20.3883 31.9781 20.3622C31.5071 20.3782 31.0378 20.2974 30.5991 20.1246C30.2705 19.9967 29.9822 19.7825 29.7642 19.5044C29.5733 19.2525 29.4364 18.9637 29.362 18.6561L27.6851 19.0482C27.7318 19.6047 27.9436 20.1345 28.2929 20.569C28.6766 21.0352 29.1783 21.389 29.7452 21.5931C30.4481 21.8501 31.1924 21.9734 31.9402 21.9567C32.7796 21.9623 33.6131 21.8149 34.4001 21.5218C35.1615 21.2445 35.8363 20.7698 36.3562 20.146C36.9397 19.4283 37.3109 18.5606 37.4277 17.6414L39.3034 6.23549H37.5531L37.2527 8.01767ZM36.51 12.5064C36.3382 13.1131 36.0663 13.6866 35.7058 14.203C35.3669 14.6971 34.9245 15.1108 34.4096 15.4149C33.8634 15.7252 33.244 15.882 32.6167 15.8688C31.7936 15.8688 31.1573 15.6311 30.7245 15.125C30.2916 14.6189 30.0551 13.925 30.0551 13.0149C30.0548 12.364 30.1448 11.7162 30.3224 11.0901C30.4974 10.4763 30.7724 9.89582 31.136 9.37213C31.4759 8.86956 31.9227 8.44913 32.444 8.14124C32.9756 7.82247 33.5848 7.65796 34.2038 7.66599C35.0474 7.66599 35.69 7.93133 36.1315 8.46203C36.573 8.99272 36.7922 9.70559 36.7891 10.6006C36.7873 11.246 36.6933 11.8878 36.51 12.5064Z" fill="#006BFF"/>
</g>
<defs>
<clipPath id="clip0_13280_9954">
<rect width="114" height="24" fill="white"/>
</clipPath>
</defs>
</svg>
