<svg xmlns="http://www.w3.org/2000/svg" width="20" height="20" viewBox="0 0 20 20" fill="none">
    <path d="M15.8338 18.9583C14.6672 18.9583 13.5755 18.45 12.8255 17.5583C12.8172 17.5417 12.7672 17.5 12.7255 17.4333C12.6339 17.3417 12.5255 17.175 12.4338 17.0167C12.0672 16.425 11.8672 15.725 11.8672 14.9917C11.8672 13.775 12.4089 12.65 13.3505 11.9C14.0505 11.3417 14.9339 11.0333 15.8255 11.0333C16.7922 11.0333 17.6839 11.3667 18.4005 11.9917C18.5005 12.0583 18.6172 12.1833 18.7255 12.3C19.4005 13.0417 19.7755 13.9917 19.7755 14.9833C19.7755 15.7083 19.5755 16.4167 19.2005 17.025C19.0005 17.375 18.7255 17.6917 18.4088 17.9583C17.7338 18.6083 16.8088 18.9583 15.8338 18.9583ZM15.8338 12.2917C15.2172 12.2917 14.6339 12.5 14.1422 12.8916C13.5005 13.4 13.1255 14.175 13.1255 15C13.1255 15.4917 13.2589 15.975 13.5172 16.3917C13.5839 16.5083 13.6505 16.6 13.7255 16.6917C13.7422 16.7084 13.7922 16.7583 13.8339 16.825C14.2922 17.3667 15.0422 17.7167 15.8338 17.7167C16.4922 17.7167 17.1255 17.475 17.6089 17.0417C17.8255 16.8583 18.0089 16.6417 18.1422 16.4083C18.4089 15.9833 18.5422 15.5 18.5422 15.0083C18.5422 14.3333 18.2839 13.675 17.8172 13.1667C17.7589 13.1 17.6922 13.0333 17.6255 12.9833C17.1005 12.5167 16.4922 12.2917 15.8338 12.2917Z" fill="#7B68EE"/>
    <path d="M17.0747 15.6083H14.583C14.2413 15.6083 13.958 15.3249 13.958 14.9833C13.958 14.6416 14.2413 14.3583 14.583 14.3583H17.0747C17.4163 14.3583 17.6997 14.6416 17.6997 14.9833C17.6997 15.3249 17.4247 15.6083 17.0747 15.6083Z" fill="#7B68EE"/>
    <path d="M15.833 16.8834C15.4913 16.8834 15.208 16.6 15.208 16.2584V13.7667C15.208 13.4251 15.4913 13.1417 15.833 13.1417C16.1747 13.1417 16.458 13.4251 16.458 13.7667V16.2584C16.458 16.6084 16.1747 16.8834 15.833 16.8834Z" fill="#7B68EE"/>
    <path d="M9.99978 11.0833C9.89145 11.0833 9.78311 11.0583 9.68311 10.9999L2.32478 6.74162C2.02478 6.56662 1.92479 6.18327 2.09979 5.88327C2.27479 5.58327 2.65811 5.48325 2.94978 5.65825L9.99145 9.73326L16.9914 5.68327C17.2914 5.50827 17.6748 5.61662 17.8415 5.90829C18.0165 6.20829 17.9081 6.5916 17.6164 6.7666L10.3081 10.9999C10.2164 11.0499 10.1081 11.0833 9.99978 11.0833Z" fill="#7B68EE"/>
    <path d="M10 18.6332C9.65833 18.6332 9.375 18.3498 9.375 18.0082V10.4498C9.375 10.1082 9.65833 9.82483 10 9.82483C10.3417 9.82483 10.625 10.1082 10.625 10.4498V18.0082C10.625 18.3498 10.3417 18.6332 10 18.6332Z" fill="#7B68EE"/>
    <path d="M10.0001 18.9582C9.26673 18.9582 8.53339 18.7999 7.96673 18.4749L3.51673 16.0082C2.3084 15.3416 1.3584 13.7332 1.3584 12.3499V7.63321C1.3584 6.24987 2.3084 4.64991 3.51673 3.97491L7.96673 1.50823C9.10006 0.866561 10.8834 0.866561 12.0251 1.50823L16.4751 3.97491C17.6834 4.64158 18.6334 6.24987 18.6334 7.63321V12.3499C18.6334 12.4332 18.6334 12.4999 18.6167 12.5832C18.5751 12.7999 18.4167 12.9832 18.2084 13.0499C18.0001 13.1249 17.7667 13.0749 17.5917 12.9332C16.6334 12.0999 15.1501 12.0666 14.1417 12.8749C13.5001 13.3832 13.1251 14.1582 13.1251 14.9832C13.1251 15.4749 13.2584 15.9582 13.5167 16.3749C13.5834 16.4916 13.6501 16.5832 13.7251 16.6749C13.8501 16.8166 13.9001 17.0082 13.8667 17.1916C13.8334 17.3749 13.7167 17.5332 13.5501 17.6249L12.0251 18.4665C11.4584 18.7999 10.7334 18.9582 10.0001 18.9582ZM10.0001 2.29156C9.48339 2.29156 8.9584 2.3999 8.5834 2.60823L4.1334 5.07492C3.32507 5.51658 2.62506 6.71654 2.62506 7.63321V12.3499C2.62506 13.2666 3.3334 14.4666 4.1334 14.9082L8.5834 17.3749C9.34173 17.7999 10.6667 17.7999 11.4251 17.3749L12.3584 16.8582C12.0501 16.2999 11.8834 15.6499 11.8834 14.9832C11.8834 13.7665 12.4251 12.6416 13.3667 11.8916C14.5001 10.9832 16.1251 10.7915 17.3917 11.3332V7.61657C17.3917 6.69991 16.6834 5.4999 15.8834 5.05824L11.4334 2.59155C11.0417 2.39988 10.5167 2.29156 10.0001 2.29156Z" fill="#7B68EE"/>
</svg>