<svg width="97" height="26" viewBox="0 0 97 26" fill="none" xmlns="http://www.w3.org/2000/svg">
<rect width="26" height="26" rx="13" fill="#006BFF"/>
<path d="M14.6962 13.0371C14.6962 14.034 13.888 14.8422 12.8911 14.8422C11.8941 14.8422 11.0859 14.034 11.0859 13.0371C11.0859 12.0401 11.8941 11.2319 12.8911 11.2319C13.888 11.2319 14.6962 12.0401 14.6962 13.0371Z" fill="white" stroke="white" stroke-width="0.773623" stroke-linejoin="round"/>
<path d="M20.6947 13.0434C20.6947 14.0403 19.8865 14.8485 18.8896 14.8485C17.8927 14.8485 17.0845 14.0403 17.0845 13.0434C17.0845 12.0465 17.8927 11.2383 18.8896 11.2383C19.8865 11.2383 20.6947 12.0465 20.6947 13.0434Z" stroke="white" stroke-width="0.773623" stroke-linejoin="round"/>
<path d="M8.91346 13.0371C8.91346 14.034 8.10528 14.8422 7.10834 14.8422C6.1114 14.8422 5.30322 14.034 5.30322 13.0371C5.30322 12.0401 6.1114 11.2319 7.10834 11.2319C8.10528 11.2319 8.91346 12.0401 8.91346 13.0371Z" fill="white" stroke="white" stroke-width="0.773623" stroke-linejoin="round"/>
<path d="M17.164 13.0378H14.5853M8.65625 13.0378H11.235" stroke="white" stroke-width="0.773623" stroke-linejoin="round"/>
<path d="M41.2295 16.972V19H31.538V17.011L38.4215 9.3475L38.3045 9.0745C37.1345 9.211 35.7305 9.328 34.5995 9.328H31.7525V7.3H41.171V9.2695L34.229 16.9915L34.346 17.245C35.594 17.1085 37.037 16.972 38.129 16.972H41.2295ZM45.3877 19.195C43.7497 19.195 42.5992 18.415 42.5992 16.621C42.5992 14.983 43.5937 13.7935 45.9142 13.7935H48.6442V13.1695C48.6442 11.98 48.1567 11.2975 46.8697 11.2975C45.7972 11.2975 45.1732 11.8435 44.9392 12.916L42.9502 12.4675C43.3012 10.732 44.6077 9.6205 46.9477 9.6205C49.5997 9.6205 50.7307 10.8685 50.7307 13.15V19H48.7417V16.816H48.5467C48.0787 18.298 46.9867 19.195 45.3877 19.195ZM48.6442 15.178H46.2652C45.2122 15.178 44.6077 15.568 44.6077 16.3285C44.6077 16.9915 45.0172 17.557 46.2067 17.557C47.6692 17.557 48.6442 16.699 48.6442 15.5485V15.178ZM61.6126 14.437C61.6126 17.557 60.3451 19.2535 58.2781 19.2535C56.6011 19.2535 55.5286 18.142 55.0801 16.5625H54.9436V21.964H52.8571V9.835H54.9436V12.214H55.0996C55.5676 10.6345 56.5816 9.601 58.2391 9.601C60.4036 9.601 61.6126 11.317 61.6126 14.437ZM54.9436 14.8075C54.9436 16.348 55.8796 17.401 57.2836 17.401C58.8241 17.401 59.5456 16.4065 59.5456 14.437C59.5456 12.448 58.8436 11.4925 57.3031 11.4925C55.8601 11.4925 54.9436 12.5065 54.9436 14.1055V14.8075ZM65.4381 6.481V19H63.3321V6.481H65.4381ZM69.9151 19.195C68.2771 19.195 67.1266 18.415 67.1266 16.621C67.1266 14.983 68.1211 13.7935 70.4416 13.7935H73.1716V13.1695C73.1716 11.98 72.6841 11.2975 71.3971 11.2975C70.3246 11.2975 69.7006 11.8435 69.4666 12.916L67.4776 12.4675C67.8286 10.732 69.1351 9.6205 71.4751 9.6205C74.1271 9.6205 75.2581 10.8685 75.2581 13.15V19H73.2691V16.816H73.0741C72.6061 18.298 71.5141 19.195 69.9151 19.195ZM73.1716 15.178H70.7926C69.7396 15.178 69.1351 15.568 69.1351 16.3285C69.1351 16.9915 69.5446 17.557 70.7341 17.557C72.1966 17.557 73.1716 16.699 73.1716 15.5485V15.178ZM79.432 12.253H79.6075C80.1145 10.5565 81.304 9.601 82.825 9.601C84.736 9.601 85.6525 10.888 85.6525 12.877V19H83.566V13.423C83.566 12.3115 83.0785 11.4925 81.811 11.4925C80.407 11.4925 79.471 12.4285 79.471 13.813V19H77.3845V9.835H79.432V12.253ZM91.8389 19.234C89.0309 19.234 87.2174 17.596 87.2174 14.5345C87.2174 11.434 88.9724 9.601 91.8389 9.601C94.6079 9.601 95.9534 11.278 95.9534 13.7935C95.9534 14.1445 95.9534 14.554 95.9144 15.022H89.3234C89.4794 16.699 90.3179 17.518 91.8584 17.518C93.3209 17.518 93.8279 16.816 94.0814 15.9385L95.8754 16.4455C95.4269 18.103 94.2959 19.234 91.8389 19.234ZM89.3234 13.618H94.0229C93.9449 12.0385 93.2429 11.2195 91.7804 11.2195C90.3569 11.2195 89.5184 11.9605 89.3234 13.618Z" fill="#006BFF"/>
</svg>
