<svg xmlns="http://www.w3.org/2000/svg" width="162" height="26" viewBox="0 0 162 26" fill="none">
  <path d="M18.6747 24.1651H5.92176C3.55523 24.1651 1.62695 22.2368 1.62695 19.8703V5.67115C1.62695 3.30462 3.55523 1.37634 5.92176 1.37634H18.6747C21.0412 1.37634 22.9695 3.30462 22.9695 5.67115V19.8703C22.9695 22.2368 21.0412 24.1651 18.6747 24.1651Z" fill="#2A3BEE"/>
  <path d="M11.6189 11.4117C11.6189 10.7543 11.6189 10.1408 11.6189 9.48339C11.6189 9.30809 11.6189 9.17661 11.5751 9.00131C11.3998 7.59893 10.1289 6.54714 8.68269 6.63479C7.2803 6.72244 6.18469 7.9057 6.14087 9.30808C6.14087 10.0093 6.14087 10.6666 6.14087 11.3678C6.14087 12.9017 7.36795 14.085 8.90181 14.085C9.64683 14.085 10.3918 14.085 11.1369 14.085C11.4875 14.085 11.5751 13.9535 11.5751 13.6467C11.6189 12.9017 11.6189 12.1567 11.6189 11.4117Z" fill="white"/>
  <path d="M12.9775 14.085C12.9775 14.7423 12.9775 15.3997 12.9775 16.1009C12.9775 17.2841 13.5473 18.1606 14.5991 18.6427C16.3959 19.4315 18.368 18.1606 18.4118 16.1885C18.4118 15.5312 18.4118 14.8738 18.4118 14.2164C18.4118 12.6387 17.2285 11.4555 15.6508 11.4117C14.9058 11.4117 14.1608 11.4117 13.4596 11.4117C13.1528 11.4117 13.0214 11.5431 13.0214 11.8499C12.9775 12.5949 12.9775 13.3399 12.9775 14.085Z" fill="white"/>
  <path d="M14.6429 10.0532C15.607 10.0532 16.352 9.30814 16.352 8.344C16.352 7.37986 15.607 6.63485 14.6429 6.63485C13.7226 6.63485 12.9337 7.37986 12.9337 8.344C12.9775 9.26432 13.7226 10.0532 14.6429 10.0532Z" fill="white"/>
  <path d="M9.95364 15.4436C9.03333 15.4436 8.24448 16.1886 8.24448 17.109C8.24448 18.0731 8.9895 18.8181 9.90982 18.8181C10.8301 18.8181 11.619 18.0731 11.619 17.109C11.619 16.2325 10.874 15.4436 9.95364 15.4436Z" fill="white"/>
  <path d="M28.9297 20.102V17.7793L35.9416 8.18168H29.0612V5.90281H39.0093V8.13786L31.9536 17.8231H39.1408V20.102H28.9297Z" fill="#141A24"/>
  <path d="M39.6667 15.2812C39.6667 12.2573 41.6388 10.1975 44.4436 10.1975C47.336 10.1975 49.1328 12.1258 49.1328 15.1059V15.8071H41.9018C42.0771 17.5162 42.9536 18.3489 44.5312 18.3489C45.846 18.3489 46.6787 17.823 46.9416 16.9465H49.1328C48.7384 19.0501 46.9854 20.321 44.4874 20.321C41.6388 20.3648 39.6667 18.2612 39.6667 15.2812ZM41.9894 14.3609H46.8101C46.8101 13.0461 45.8898 12.1696 44.4874 12.1696C43.0412 12.1696 42.2085 12.9146 41.9894 14.3609Z" fill="#141A24"/>
  <path d="M50.4476 20.1019V10.5043H52.6388L52.8141 11.7314C53.4277 10.7672 54.5671 10.1975 55.8818 10.1975C58.2922 10.1975 59.5193 11.6876 59.5193 14.1856V20.1019H57.1528V14.7553C57.1528 13.1338 56.3639 12.3449 55.1368 12.3449C53.6906 12.3449 52.7703 13.3529 52.7703 14.9306V20.1019H50.4476Z" fill="#141A24"/>
  <path d="M60.8778 13.0023C60.8778 8.57602 63.6387 5.63977 67.802 5.63977C71.1765 5.63977 73.6745 7.61187 74.1566 10.6358H71.5271C71.045 8.97043 69.6427 8.00629 67.7582 8.00629C65.1287 8.00629 63.4634 9.89075 63.4634 12.9585C63.4634 15.9824 65.1287 17.9106 67.7582 17.9106C69.6865 17.9106 71.1765 16.9027 71.6148 15.325H74.2004C73.6745 18.3051 71.045 20.321 67.6706 20.321C63.551 20.321 60.8778 17.4724 60.8778 13.0023Z" fill="#141A24"/>
  <path d="M80.073 10.2414C83.053 10.2414 85.2004 12.3012 85.2004 15.2812C85.2004 18.2613 83.053 20.3211 80.073 20.3211C77.0929 20.3211 74.9455 18.2613 74.9455 15.2812C74.9455 12.3012 77.0929 10.2414 80.073 10.2414ZM80.073 18.2175C81.6945 18.2175 82.8339 17.0342 82.8339 15.2812C82.8339 13.5283 81.6945 12.345 80.073 12.345C78.4514 12.345 77.312 13.5283 77.312 15.2812C77.312 17.0342 78.4514 18.2175 80.073 18.2175Z" fill="#141A24"/>
  <path d="M86.5151 20.1019V10.5044H88.7063L88.8817 11.6438C89.3637 10.855 90.3279 10.2414 91.7302 10.2414C93.1765 10.2414 94.1844 10.9426 94.7103 12.082C95.1924 10.9864 96.3318 10.2414 97.778 10.2414C100.101 10.2414 101.372 11.6438 101.372 13.835V20.1019H99.0051V14.4486C99.0051 13.09 98.2601 12.345 97.1207 12.345C95.9812 12.345 95.1047 13.09 95.1047 14.6677V20.1019H92.7382V14.4486C92.7382 13.09 92.037 12.3888 90.8976 12.3888C89.7581 12.3888 88.8378 13.1338 88.8378 14.6677V20.1019H86.5151Z" fill="#141A24"/>
  <path d="M103.125 20.1019V10.5044H105.316L105.491 11.6438C105.973 10.855 106.937 10.2414 108.34 10.2414C109.786 10.2414 110.794 10.9426 111.32 12.082C111.802 10.9864 112.941 10.2414 114.388 10.2414C116.71 10.2414 117.981 11.6438 117.981 13.835V20.1019H115.615V14.4486C115.615 13.09 114.87 12.345 113.73 12.345C112.591 12.345 111.714 13.09 111.714 14.6677V20.1019H109.392V14.4486C109.392 13.09 108.69 12.3888 107.551 12.3888C106.411 12.3888 105.491 13.1338 105.491 14.6677V20.1019H103.125Z" fill="#141A24"/>
  <path d="M128.631 10.5044V20.1019H126.439L126.264 18.831C125.694 19.7513 124.423 20.3649 123.152 20.3649C120.917 20.3649 119.647 18.8748 119.647 16.5083V10.5044H122.013V15.6756C122.013 17.5163 122.714 18.2613 124.073 18.2613C125.563 18.2613 126.308 17.3848 126.308 15.5442V10.5044H128.631Z" fill="#141A24"/>
  <path d="M130.471 20.1019V10.5043H132.662L132.838 11.7314C133.451 10.7672 134.591 10.1975 135.905 10.1975C138.316 10.1975 139.543 11.6876 139.543 14.1856V20.1019H137.176V14.7553C137.176 13.1338 136.387 12.3449 135.16 12.3449C133.714 12.3449 132.794 13.3529 132.794 14.9306V20.1019H130.471Z" fill="#141A24"/>
  <path d="M141.077 7.12993C141.077 6.34109 141.734 5.72755 142.523 5.72755C143.312 5.72755 143.925 6.34109 143.925 7.12993C143.925 7.91877 143.268 8.57614 142.523 8.57614C141.734 8.57614 141.077 7.91877 141.077 7.12993ZM141.34 10.5044H143.706V20.102H141.34V10.5044Z" fill="#141A24"/>
  <path d="M146.467 20.1018V12.4763H144.626V10.5042H146.467V7.52414H148.834V10.5042H150.718V12.4763H148.834V20.1018H146.467Z" fill="#141A24"/>
  <path d="M150.762 22.5561H152.164C153.085 22.5561 153.698 22.337 154.093 21.1975L154.355 20.4963L150.499 10.5044H152.997L155.451 17.5163L158.037 10.5044H160.491L155.846 22.2493C155.144 24.0461 154.136 24.7911 152.559 24.7911C151.901 24.7911 151.332 24.7035 150.806 24.572V22.5561H150.762Z" fill="#141A24"/>
</svg>