<svg width="18" height="18" viewBox="0 0 18 18" fill="none" xmlns="http://www.w3.org/2000/svg">
<path d="M9.63006 10.4622C9.63006 10.3529 9.60898 10.2442 9.56713 10.1432C9.52528 10.0422 9.46357 9.95067 9.38628 9.87339C9.309 9.79611 9.21743 9.73439 9.11646 9.69255C9.01544 9.6507 8.90681 9.62961 8.79745 9.62961C8.68826 9.62961 8.58007 9.65082 8.47917 9.69255C8.40343 9.72392 8.33254 9.76661 8.26939 9.81841L8.20862 9.87339L4.49769 13.5858C4.40963 13.6738 4.34523 13.7831 4.31033 13.9026L3.8792 15.379L5.35634 14.9486L5.44387 14.9175C5.52905 14.8805 5.60642 14.8273 5.67245 14.7613H5.67318L9.38628 11.0511L9.44126 10.9903C9.49307 10.9271 9.53576 10.8562 9.56713 10.7805C9.60886 10.6796 9.63006 10.5714 9.63006 10.4622ZM2.22266 9.99998V2.96294C2.22266 2.37357 2.45695 1.80851 2.8737 1.39176C3.29045 0.975017 3.85551 0.740723 4.44488 0.740723H11.1115C11.308 0.740723 11.4964 0.818821 11.6353 0.957737L15.339 4.66144C15.4779 4.80036 15.556 4.98871 15.556 5.18517V14.8148C15.556 15.4042 15.3217 15.9692 14.9049 16.386C14.4882 16.8027 13.9231 17.037 13.3338 17.037H9.25969C8.85059 17.037 8.51895 16.7054 8.51895 16.2963C8.51895 15.8872 8.85059 15.5555 9.25969 15.5555H13.3338C13.5302 15.5555 13.7186 15.4774 13.8575 15.3385C13.9964 15.1996 14.0745 15.0113 14.0745 14.8148V6.66665H11.8523C11.2629 6.66665 10.6979 6.43235 10.2811 6.01561C9.86436 5.59886 9.63006 5.0338 9.63006 4.44443V2.2222H4.44488C4.24842 2.2222 4.06007 2.3003 3.92115 2.43922C3.78224 2.57813 3.70414 2.76649 3.70414 2.96294V9.99998C3.70414 10.4091 3.3725 10.7407 2.9634 10.7407C2.5543 10.7407 2.22266 10.4091 2.22266 9.99998ZM11.1115 10.4622C11.1115 10.766 11.052 11.0669 10.9358 11.3476C10.834 11.5932 10.6907 11.8195 10.5126 12.016L10.4337 12.0985L6.72063 15.8094L6.71991 15.8087C6.45594 16.0727 6.12992 16.2661 5.77156 16.3708L3.64554 16.9914C3.45442 17.0472 3.25174 17.0502 3.05888 17.0008C2.86593 16.9514 2.68974 16.8509 2.5489 16.7101C2.40806 16.5692 2.30754 16.393 2.2581 16.2001C2.20872 16.0072 2.21179 15.8045 2.26751 15.6134L2.88817 13.4874L2.93157 13.3543C3.04233 13.0481 3.2191 12.7693 3.45023 12.5383L7.16117 8.82594L7.24363 8.74709C7.44022 8.56899 7.66644 8.42564 7.91204 8.32391C8.19273 8.20768 8.49364 8.14813 8.79745 8.14813C9.10126 8.14813 9.40218 8.20768 9.68287 8.32391C9.96364 8.44021 10.2188 8.61104 10.4337 8.82594C10.6486 9.04083 10.8195 9.29603 10.9358 9.5768C11.052 9.8575 11.1115 10.1584 11.1115 10.4622ZM11.1115 4.44443C11.1115 4.64088 11.1896 4.82924 11.3286 4.96815C11.4675 5.10707 11.6558 5.18517 11.8523 5.18517H13.7678L11.1115 2.52892V4.44443Z" fill="#EA580C"/>
</svg>
