<svg width="30" height="30" viewBox="0 0 30 30" fill="none" xmlns="http://www.w3.org/2000/svg">
<path d="M8.75 20C8.75 19.6685 8.61821 19.3506 8.38379 19.1162C8.14937 18.8818 7.83152 18.75 7.5 18.75H5V23.75C5 24.0815 5.13179 24.3994 5.36621 24.6338C5.60063 24.8682 5.91848 25 6.25 25H7.5C7.83152 25 8.14937 24.8682 8.38379 24.6338C8.61821 24.3994 8.75 24.0815 8.75 23.75V20ZM18.75 23.75V20C18.75 19.0054 19.1454 18.0519 19.8486 17.3486C20.5519 16.6454 21.5054 16.25 22.5 16.25H25V15C25 12.3478 23.9469 9.80383 22.0715 7.92847C20.1962 6.0531 17.6522 5 15 5C12.3478 5 9.80383 6.0531 7.92847 7.92847C6.0531 9.80383 5 12.3478 5 15V16.25H7.5C8.49456 16.25 9.44811 16.6454 10.1514 17.3486C10.8546 18.0519 11.25 19.0054 11.25 20V23.75C11.25 24.7446 10.8546 25.6981 10.1514 26.4014C9.44811 27.1046 8.49456 27.5 7.5 27.5H6.25C5.25544 27.5 4.30189 27.1046 3.59863 26.4014C2.89537 25.6981 2.5 24.7446 2.5 23.75V15C2.5 11.6848 3.81668 8.50509 6.16089 6.16089C8.50509 3.81668 11.6848 2.5 15 2.5C18.3152 2.5 21.4949 3.81668 23.8391 6.16089C26.1833 8.50509 27.5 11.6848 27.5 15V23.75C27.5 24.7446 27.1046 25.6981 26.4014 26.4014C25.6981 27.1046 24.7446 27.5 23.75 27.5H22.5C21.5054 27.5 20.5519 27.1046 19.8486 26.4014C19.1454 25.6981 18.75 24.7446 18.75 23.75ZM21.25 23.75C21.25 24.0815 21.3818 24.3994 21.6162 24.6338C21.8506 24.8682 22.1685 25 22.5 25H23.75C24.0815 25 24.3994 24.8682 24.6338 24.6338C24.8682 24.3994 25 24.0815 25 23.75V18.75H22.5C22.1685 18.75 21.8506 18.8818 21.6162 19.1162C21.3818 19.3506 21.25 19.6685 21.25 20V23.75Z" fill="#141A24"/>
</svg>
