<svg width="64" height="64" viewBox="0 0 64 64" fill="none" xmlns="http://www.w3.org/2000/svg">
<path d="M48.4563 61.4401H15.5424C9.41888 61.4401 4.41406 56.4353 4.41406 50.3117V13.6884C4.41406 7.56486 9.41888 2.56006 15.5424 2.56006H48.4563C54.5798 2.56006 59.5846 7.56486 59.5846 13.6884V50.3117C59.5846 56.3764 54.5798 61.4401 48.4563 61.4401Z" fill="#2A3BEE"/>
<path d="M30.2625 28.5262C30.2625 26.8776 30.2625 25.2289 30.2625 23.5803C30.2625 23.1681 30.2624 22.756 30.2036 22.3438C29.7325 18.6932 26.4941 16.0436 22.7847 16.2792C19.193 16.4558 16.3079 19.5176 16.249 23.227C16.249 24.9934 16.249 26.7598 16.249 28.5262C16.3079 32.53 19.3697 35.5918 23.3735 35.5918C25.2577 35.5918 27.2007 35.5918 29.0849 35.5918C29.9092 35.5918 30.2625 35.2974 30.2625 34.4142C30.2625 32.3534 30.2625 30.4104 30.2625 28.5262Z" fill="white"/>
<path d="M33.7365 35.4152C33.7365 37.1227 33.7365 38.8302 33.7365 40.5966C33.7954 43.5995 35.1496 45.8958 37.917 47.1323C42.5685 49.1931 47.691 45.8369 47.7499 40.7732C47.7499 39.0657 47.7499 37.3582 47.7499 35.7096C47.7499 31.588 44.6882 28.5262 40.5666 28.5262C38.6824 28.5262 36.7394 28.5262 34.8552 28.5262C34.0309 28.5262 33.7365 28.8206 33.7365 29.7038C33.7365 31.588 33.7365 33.4721 33.7365 35.4152Z" fill="white"/>
<path d="M38.0935 24.9935C40.5665 24.9935 42.5095 23.0505 42.5095 20.6364C42.5095 18.2223 40.5665 16.2793 38.1524 16.2793C35.7383 16.2793 33.7953 18.2223 33.7953 20.6364C33.7364 22.9916 35.6794 24.9935 38.0935 24.9935Z" fill="white"/>
<path d="M25.9053 38.9481C23.4912 38.9481 21.5481 40.8911 21.4893 43.2463C21.4893 45.7193 23.4323 47.6623 25.8464 47.6623C28.2605 47.6623 30.2624 45.7193 30.2624 43.3052C30.2624 40.95 28.3193 38.9481 25.9053 38.9481Z" fill="white"/>
</svg>
