<svg width="18" height="18" viewBox="0 0 18 18" fill="none" xmlns="http://www.w3.org/2000/svg">
<path d="M6.14193 10.5873C6.4312 10.298 6.9001 10.298 7.18938 10.5873C7.47866 10.8766 7.47866 11.3455 7.18938 11.6348L4.22642 14.5977C3.93714 14.887 3.46824 14.887 3.17896 14.5977L1.69748 13.1162C1.40821 12.827 1.40821 12.3581 1.69748 12.0688C1.98676 11.7795 2.45566 11.7795 2.74494 12.0688L3.70269 13.0265L6.14193 10.5873ZM15.5545 12.5925C15.9636 12.5925 16.2953 12.9242 16.2953 13.3333C16.2953 13.7424 15.9636 14.074 15.5545 14.074H9.62862C9.21952 14.074 8.88788 13.7424 8.88788 13.3333C8.88788 12.9242 9.21952 12.5925 9.62862 12.5925H15.5545ZM15.5545 8.14808C15.9636 8.14808 16.2953 8.47972 16.2953 8.88882C16.2953 9.29792 15.9636 9.62956 15.5545 9.62956H9.62862C9.21952 9.62956 8.88788 9.29792 8.88788 8.88882C8.88788 8.47972 9.21952 8.14808 9.62862 8.14808H15.5545ZM2.96195 4.44437V7.40734H5.92491V4.44437H2.96195ZM15.5545 3.70363C15.9636 3.70363 16.2953 4.03527 16.2953 4.44437C16.2953 4.85347 15.9636 5.18511 15.5545 5.18511H9.62862C9.21952 5.18511 8.88788 4.85347 8.88788 4.44437C8.88788 4.03527 9.21952 3.70363 9.62862 3.70363H15.5545ZM7.4064 7.40734C7.4064 8.22553 6.74311 8.88882 5.92491 8.88882H2.96195C2.14375 8.88882 1.48047 8.22553 1.48047 7.40734V4.44437C1.48047 3.62617 2.14375 2.96289 2.96195 2.96289H5.92491C6.74311 2.96289 7.4064 3.62617 7.4064 4.44437V7.40734Z" fill="#CD519D"/>
</svg>
