<svg width="162" height="26" viewBox="0 0 162 26" fill="none" xmlns="http://www.w3.org/2000/svg">
<path d="M18.6767 24.1651H5.92371C3.55719 24.1651 1.62891 22.2368 1.62891 19.8703V5.67117C1.62891 3.30464 3.55719 1.37636 5.92371 1.37636H18.6767C21.0432 1.37636 22.9715 3.30464 22.9715 5.67117V19.8703C22.9715 22.2368 21.0432 24.1651 18.6767 24.1651Z" fill="#2A3BEE"/>
<path d="M11.6209 11.4117C11.6209 10.7543 11.6209 10.1408 11.6209 9.4834C11.6209 9.3081 11.6209 9.17663 11.5771 9.00133C11.4018 7.59894 10.1309 6.54715 8.68464 6.6348C7.28225 6.72245 6.18664 7.90571 6.14282 9.3081C6.14282 10.0093 6.14282 10.6667 6.14282 11.3679C6.14282 12.9017 7.3699 14.085 8.90376 14.085C9.64878 14.085 10.3938 14.085 11.1388 14.085C11.4894 14.085 11.5771 13.9535 11.5771 13.6467C11.6209 12.9017 11.6209 12.1567 11.6209 11.4117Z" fill="white"/>
<path d="M12.9795 14.085C12.9795 14.7423 12.9795 15.3997 12.9795 16.1009C12.9795 17.2842 13.5492 18.1606 14.601 18.6427C16.3978 19.4316 18.3699 18.1607 18.4137 16.1886C18.4137 15.5312 18.4137 14.8738 18.4137 14.2164C18.4137 12.6388 17.2305 11.4555 15.6528 11.4117C14.9078 11.4117 14.1628 11.4117 13.4616 11.4117C13.1548 11.4117 13.0233 11.5431 13.0233 11.8499C12.9795 12.5949 12.9795 13.34 12.9795 14.085Z" fill="white"/>
<path d="M14.6448 10.0532C15.609 10.0532 16.354 9.30816 16.354 8.34402C16.354 7.37988 15.609 6.63487 14.6448 6.63487C13.7245 6.63487 12.9357 7.37988 12.9357 8.34402C12.9795 9.26433 13.7245 10.0532 14.6448 10.0532Z" fill="white"/>
<path d="M9.9556 15.4436C9.03528 15.4436 8.24644 16.1887 8.24644 17.109C8.24644 18.0731 8.99146 18.8181 9.91177 18.8181C10.8321 18.8181 11.6209 18.0731 11.6209 17.109C11.6209 16.2325 10.8759 15.4436 9.9556 15.4436Z" fill="white"/>
<path d="M28.9297 20.1019V17.7792L35.9416 8.18161H29.0612V5.90273H39.0093V8.13778L31.9536 17.823H39.1408V20.1019H28.9297Z" fill="#141A24"/>
<path d="M39.6667 15.2811C39.6667 12.2572 41.6388 10.1974 44.4436 10.1974C47.336 10.1974 49.1328 12.1257 49.1328 15.1058V15.807H41.9018C42.0771 17.5161 42.9536 18.3488 44.5312 18.3488C45.846 18.3488 46.6786 17.8229 46.9416 16.9464H49.1328C48.7384 19.05 46.9854 20.3209 44.4874 20.3209C41.6388 20.3647 39.6667 18.2612 39.6667 15.2811ZM41.9894 14.3608H46.8101C46.8101 13.046 45.8898 12.1696 44.4874 12.1696C43.0412 12.1696 42.2085 12.9146 41.9894 14.3608Z" fill="#141A24"/>
<path d="M50.4476 20.1018V10.5042H52.6388L52.8141 11.7313C53.4277 10.7672 54.5671 10.1974 55.8818 10.1974C58.2922 10.1974 59.5193 11.6875 59.5193 14.1855V20.1018H57.1527V14.7552C57.1527 13.1337 56.3639 12.3449 55.1368 12.3449C53.6906 12.3449 52.7703 13.3528 52.7703 14.9305V20.1018H50.4476Z" fill="#141A24"/>
<path d="M60.8777 13.0022C60.8777 8.57594 63.6387 5.63969 67.802 5.63969C71.1765 5.63969 73.6745 7.6118 74.1566 10.6357H71.5271C71.045 8.97036 69.6427 8.00622 67.7582 8.00622C65.1287 8.00622 63.4634 9.89067 63.4634 12.9584C63.4634 15.9823 65.1287 17.9106 67.7582 17.9106C69.6865 17.9106 71.1765 16.9026 71.6148 15.3249H74.2004C73.6745 18.305 71.045 20.3209 67.6705 20.3209C63.551 20.3209 60.8777 17.4723 60.8777 13.0022Z" fill="#141A24"/>
<path d="M80.0729 10.2413C83.053 10.2413 85.2004 12.3011 85.2004 15.2812C85.2004 18.2612 83.053 20.321 80.0729 20.321C77.0929 20.321 74.9455 18.2612 74.9455 15.2812C74.9455 12.3011 77.0929 10.2413 80.0729 10.2413ZM80.0729 18.2174C81.6945 18.2174 82.8339 17.0341 82.8339 15.2812C82.8339 13.5282 81.6945 12.3449 80.0729 12.3449C78.4514 12.3449 77.312 13.5282 77.312 15.2812C77.312 17.0341 78.4514 18.2174 80.0729 18.2174Z" fill="#141A24"/>
<path d="M86.5151 20.1019V10.5043H88.7063L88.8816 11.6437C89.3637 10.8549 90.3279 10.2413 91.7302 10.2413C93.1764 10.2413 94.1844 10.9425 94.7103 12.082C95.1924 10.9864 96.3318 10.2413 97.778 10.2413C100.101 10.2413 101.372 11.6437 101.372 13.8349V20.1019H99.0051V14.4485C99.0051 13.0899 98.2601 12.3449 97.1206 12.3449C95.9812 12.3449 95.1047 13.0899 95.1047 14.6676V20.1019H92.7382V14.4485C92.7382 13.0899 92.037 12.3887 90.8976 12.3887C89.7581 12.3887 88.8378 13.1338 88.8378 14.6676V20.1019H86.5151Z" fill="#141A24"/>
<path d="M103.125 20.1019V10.5043H105.316L105.491 11.6437C105.973 10.8549 106.937 10.2413 108.34 10.2413C109.786 10.2413 110.794 10.9425 111.32 12.082C111.802 10.9864 112.941 10.2413 114.388 10.2413C116.71 10.2413 117.981 11.6437 117.981 13.8349V20.1019H115.615V14.4485C115.615 13.0899 114.87 12.3449 113.73 12.3449C112.591 12.3449 111.714 13.0899 111.714 14.6676V20.1019H109.392V14.4485C109.392 13.0899 108.69 12.3887 107.551 12.3887C106.411 12.3887 105.491 13.1338 105.491 14.6676V20.1019H103.125Z" fill="#141A24"/>
<path d="M128.631 10.5043V20.1018H126.439L126.264 18.8309C125.694 19.7513 124.423 20.3648 123.152 20.3648C120.917 20.3648 119.646 18.8748 119.646 16.5082V10.5043H122.013V15.6756C122.013 17.5162 122.714 18.2612 124.073 18.2612C125.563 18.2612 126.308 17.3847 126.308 15.5441V10.5043H128.631Z" fill="#141A24"/>
<path d="M130.471 20.1018V10.5042H132.662L132.838 11.7313C133.451 10.7672 134.591 10.1974 135.905 10.1974C138.316 10.1974 139.543 11.6875 139.543 14.1855V20.1018H137.176V14.7552C137.176 13.1337 136.387 12.3449 135.16 12.3449C133.714 12.3449 132.794 13.3528 132.794 14.9305V20.1018H130.471Z" fill="#141A24"/>
<path d="M141.077 7.12986C141.077 6.34102 141.734 5.72747 142.523 5.72747C143.312 5.72747 143.925 6.34102 143.925 7.12986C143.925 7.9187 143.268 8.57607 142.523 8.57607C141.734 8.57607 141.077 7.9187 141.077 7.12986ZM141.34 10.5044H143.706V20.1019H141.34V10.5044Z" fill="#141A24"/>
<path d="M146.467 20.1017V12.4762H144.626V10.5041H146.467V7.52406H148.834V10.5041H150.718V12.4762H148.834V20.1017H146.467Z" fill="#141A24"/>
<path d="M150.762 22.556H152.164C153.085 22.556 153.698 22.3369 154.093 21.1975L154.355 20.4963L150.499 10.5043H152.997L155.451 17.5162L158.037 10.5043H160.491L155.846 22.2492C155.144 24.0461 154.136 24.7911 152.559 24.7911C151.901 24.7911 151.332 24.7034 150.806 24.5719V22.556H150.762Z" fill="#141A24"/>
</svg>
