<svg width="18" height="18" viewBox="0 0 18 18" fill="none" xmlns="http://www.w3.org/2000/svg">
<path d="M14.8138 3.70367C14.8138 3.50721 14.7357 3.31886 14.5968 3.17994C14.4579 3.04102 14.2695 2.96293 14.0731 2.96293H3.70269C3.50623 2.96293 3.31788 3.04102 3.17896 3.17994C3.04005 3.31886 2.96195 3.50721 2.96195 3.70367V13.7673L4.66045 12.0688L4.7147 12.0196C4.84652 11.9116 5.01225 11.8518 5.18417 11.8518H14.0731C14.2695 11.8518 14.4579 11.7737 14.5968 11.6348C14.7357 11.4959 14.8138 11.3075 14.8138 11.1111V3.70367ZM5.93215 6.66663C6.34125 6.66663 6.67289 6.99827 6.67289 7.40737C6.67289 7.81647 6.34125 8.14811 5.93215 8.14811H5.92491C5.51581 8.14811 5.18417 7.81647 5.18417 7.40737C5.18417 6.99827 5.51581 6.66663 5.92491 6.66663H5.93215ZM8.89511 6.66663C9.30421 6.66663 9.63585 6.99827 9.63585 7.40737C9.63585 7.81647 9.30421 8.14811 8.89511 8.14811H8.88788C8.47878 8.14811 8.14714 7.81647 8.14714 7.40737C8.14714 6.99827 8.47878 6.66663 8.88788 6.66663H8.89511ZM11.8581 6.66663C12.2672 6.66663 12.5988 6.99827 12.5988 7.40737C12.5988 7.81647 12.2672 8.14811 11.8581 8.14811H11.8508C11.4417 8.14811 11.1101 7.81647 11.1101 7.40737C11.1101 6.99827 11.4417 6.66663 11.8508 6.66663H11.8581ZM16.2953 11.1111C16.2953 11.7004 16.061 12.2655 15.6442 12.6823C15.2275 13.099 14.6624 13.3333 14.0731 13.3333H5.49089L2.74494 16.0792C2.53309 16.2911 2.21444 16.3545 1.93764 16.2398C1.6609 16.1252 1.48047 15.8551 1.48047 15.5555V3.70367C1.48047 3.1143 1.71476 2.54923 2.13151 2.13249C2.54826 1.71574 3.11332 1.48145 3.70269 1.48145H14.0731C14.6624 1.48145 15.2275 1.71574 15.6442 2.13249C16.061 2.54923 16.2953 3.1143 16.2953 3.70367V11.1111Z" fill="#22A06B"/>
</svg>
