<svg width="30" height="30" viewBox="0 0 30 30" fill="none" xmlns="http://www.w3.org/2000/svg">
<path d="M26.25 13.75C26.25 13.4185 26.1182 13.1006 25.8838 12.8662C25.6494 12.6318 25.3315 12.5 25 12.5H22.5C21.8096 12.5 21.25 11.9404 21.25 11.25C21.25 10.5596 21.8096 10 22.5 10H25C25.9946 10 26.9481 10.3954 27.6514 11.0986C28.3546 11.8019 28.75 12.7554 28.75 13.75V27.5C28.75 28.0055 28.4455 28.4613 27.9785 28.6548C27.5114 28.8483 26.9737 28.7413 26.6162 28.3838L21.9824 23.75H15C14.0054 23.75 13.0519 23.3546 12.3486 22.6514C11.6454 21.9481 11.25 20.9946 11.25 20V18.75C11.25 18.0596 11.8096 17.5 12.5 17.5C13.1904 17.5 13.75 18.0596 13.75 18.75V20C13.75 20.3315 13.8818 20.6494 14.1162 20.8838C14.3506 21.1182 14.6685 21.25 15 21.25H22.5C22.8315 21.25 23.1494 21.3818 23.3838 21.6162L26.25 24.4824V13.75ZM16.25 5C16.25 4.66848 16.1182 4.35063 15.8838 4.11621C15.6494 3.88179 15.3315 3.75 15 3.75H5C4.31536 3.75 3.75 4.31536 3.75 5V15.7324L6.61621 12.8662L6.70776 12.7832C6.93021 12.6009 7.20988 12.5 7.5 12.5H15C15.3315 12.5 15.6494 12.3682 15.8838 12.1338C16.1182 11.8994 16.25 11.5815 16.25 11.25V5ZM18.75 11.25C18.75 12.2446 18.3546 13.1981 17.6514 13.9014C16.9481 14.6046 15.9946 15 15 15H8.01758L3.38379 19.6338C3.02629 19.9913 2.48858 20.0983 2.02148 19.9048C1.55448 19.7113 1.25 19.2555 1.25 18.75V5C1.25 2.93464 2.93464 1.25 5 1.25H15C15.9946 1.25 16.9481 1.64537 17.6514 2.34863C18.3546 3.05189 18.75 4.00544 18.75 5V11.25Z" fill="#141A24"/>
</svg>
