<svg width="18" height="18" viewBox="0 0 18 18" fill="none" xmlns="http://www.w3.org/2000/svg">
<g clip-path="url(#clip0_9304_6833)">
<path d="M15.557 3.56962C15.5571 3.21229 15.4147 2.86963 15.162 2.61693C14.9095 2.36434 14.5673 2.2221 14.2101 2.22196C13.8529 2.22192 13.5093 2.36305 13.2567 2.61548L13.2574 2.6162L12.1651 3.70851L14.0705 5.61389L15.162 4.52231L15.2517 4.4232C15.4481 4.18354 15.5569 3.88218 15.557 3.56962ZM3.37024 12.5055L3.3102 12.5735C3.25443 12.6448 3.21173 12.726 3.18505 12.813L2.40814 15.3694L4.96891 14.5932L5.05354 14.5621C5.13626 14.5254 5.21189 14.4737 5.27634 14.4095L13.023 6.66134L11.1176 4.75596L3.37024 12.5055ZM17.0385 3.56962C17.0384 4.27303 16.7764 4.94961 16.3064 5.46849L16.2095 5.56976L14.6629 7.11562C14.6433 7.14127 14.6227 7.16666 14.5993 7.19013C14.5756 7.21379 14.5499 7.23473 14.524 7.25451L6.32235 15.4584C6.06479 15.7151 5.74797 15.9052 5.40004 16.011L2.17521 16.989L1.95965 16.2801L1.97773 16.3402L2.17521 16.989L2.17304 16.9898L2.02692 17.023C1.87954 17.0463 1.72847 17.0394 1.58277 17.0028C1.38836 16.9539 1.21035 16.8536 1.06844 16.712C0.926495 16.5703 0.825414 16.3921 0.776197 16.1977C0.727076 16.0034 0.731157 15.7994 0.788494 15.6074L0.789941 15.6045L1.47643 15.8121L1.49813 15.8193L0.789941 15.6045L1.76795 12.3804L2.47686 12.5952L2.38355 12.5663L1.76795 12.3804L1.76867 12.3782L1.8128 12.2494C1.90843 11.9945 2.05026 11.7595 2.23091 11.5557L2.32423 11.4559L10.5266 3.25133C10.5457 3.22667 10.5662 3.20235 10.5888 3.17971C10.6116 3.15693 10.6356 3.13597 10.6605 3.11678L12.2092 1.56875L12.3112 1.47182C12.8302 1.00208 13.5068 0.74039 14.2101 0.740479C14.9603 0.740617 15.6798 1.03894 16.2102 1.56947C16.7405 2.10002 17.0386 2.81946 17.0385 3.56962Z" fill="#8270DB"/>
</g>
<defs>
<clipPath id="clip0_9304_6833">
<rect width="17.7778" height="17.7778" fill="white"/>
</clipPath>
</defs>
</svg>
