<svg width="30" height="30" viewBox="0 0 30 30" fill="none" xmlns="http://www.w3.org/2000/svg">
<path d="M14.1162 14.1162C14.4697 13.7627 14.9997 13.6536 15.4639 13.8391L27.9639 18.8391C28.4393 19.0293 28.751 19.4904 28.75 20.0024C28.749 20.5145 28.4352 20.9739 27.959 21.1621L23.0872 23.0872L21.1621 27.959C20.9739 28.4352 20.5145 28.749 20.0024 28.75C19.4904 28.751 19.0293 28.4393 18.8391 27.9639L13.8391 15.4639C13.6536 14.9997 13.7627 14.4697 14.1162 14.1162ZM19.9927 24.1174L20.9631 21.665L21.0156 21.5479C21.1538 21.2823 21.3841 21.0744 21.665 20.9631L24.1174 19.9927L17.2437 17.2437L19.9927 24.1174ZM25 13.75V6.25C25 5.91848 24.8682 5.60063 24.6338 5.36621C24.3994 5.13179 24.0815 5 23.75 5H6.25C5.91848 5 5.60063 5.13179 5.36621 5.36621C5.13179 5.60063 5 5.91848 5 6.25V23.75C5 24.0815 5.13179 24.3994 5.36621 24.6338C5.60063 24.8682 5.91848 25 6.25 25H13.75C14.4404 25 15 25.5596 15 26.25C15 26.9404 14.4404 27.5 13.75 27.5H6.25C5.25544 27.5 4.30189 27.1046 3.59863 26.4014C2.89537 25.6981 2.5 24.7446 2.5 23.75V6.25C2.5 5.25544 2.89537 4.30189 3.59863 3.59863C4.30189 2.89537 5.25544 2.5 6.25 2.5H23.75C24.7446 2.5 25.6981 2.89537 26.4014 3.59863C27.1046 4.30189 27.5 5.25544 27.5 6.25V13.75C27.5 14.4404 26.9404 15 26.25 15C25.5596 15 25 14.4404 25 13.75Z" fill="#141A24"/>
</svg>
