<svg width="32" height="32" viewBox="0 0 32 32" fill="none" xmlns="http://www.w3.org/2000/svg">
<path d="M23.0083 30.1825H8.99232C5.02432 30.1825 1.81152 26.9697 1.81152 23.0017V8.99208C1.81152 5.02408 5.02432 1.81128 8.99232 1.81128H23.0019C26.9699 1.81128 30.1827 5.02408 30.1827 8.99208V23.0017C30.1827 26.9697 26.9699 30.1825 23.0083 30.1825Z" fill="#1D1D1F"/>
<path d="M23.1426 15.9168C23.1426 16.9984 22.701 17.9776 21.997 18.6816C21.2866 19.392 20.3074 19.8272 19.2322 19.8272H18.125V12H19.2322C21.389 12 23.1426 13.7536 23.1426 15.9168Z" fill="#EAEAEB"/>
<path d="M23.1423 7.06567V15.9169C23.1423 13.7537 21.3887 12.0001 19.2255 12.0001H16.2495C15.1679 12.0001 14.1887 12.4417 13.4847 13.1457C12.7743 13.8561 12.3391 14.8353 12.3391 15.9105C12.3391 18.0737 14.0927 19.8273 16.2559 19.8273H18.1311V24.9345H16.1727C11.2383 24.9345 7.23828 20.9345 7.23828 16.0001C7.23828 13.5297 8.23668 11.2961 9.85588 9.68327C11.4751 8.07047 13.7087 7.06567 16.1727 7.06567H21.4399C22.0223 7.06567 22.5791 7.06567 23.1423 7.06567Z" fill="white"/>
</svg>
