<svg width="32" height="32" viewBox="0 0 32 32" fill="none" xmlns="http://www.w3.org/2000/svg">
<path d="M23.7715 1.66699C25.9195 1.66699 27.661 3.41653 27.6611 5.5752V19.9268C27.6611 20.2725 27.5247 20.6043 27.2812 20.8486L18.2031 29.9521C17.9601 30.1959 17.6306 30.333 17.2871 30.333H8.21777C6.06725 30.333 4.32477 28.5792 4.32812 26.418L4.36035 5.56934C4.3637 3.41297 6.10424 1.66702 8.25 1.66699H23.7715ZM18.751 19.3857C17.6465 19.3859 16.751 20.2812 16.751 21.3857V27.7256L25.0674 19.3857H18.751ZM10.667 12.333C10.1148 12.333 9.66715 12.7809 9.66699 13.333C9.66699 13.8853 10.1147 14.333 10.667 14.333H16C16.5523 14.333 17 13.8853 17 13.333C16.9998 12.7809 16.5522 12.333 16 12.333H10.667ZM10.667 7C10.1147 7 9.66699 7.44772 9.66699 8C9.66701 8.55226 10.1147 9 10.667 9H21.333C21.8853 9 22.333 8.55226 22.333 8C22.333 7.44772 21.8853 7 21.333 7H10.667Z" fill="#9383F1"/>
</svg>
