<svg width="32" height="32" viewBox="0 0 32 32" fill="none" xmlns="http://www.w3.org/2000/svg">
<path fill-rule="evenodd" clip-rule="evenodd" d="M23.6665 17C20.3527 17 17.6665 19.6862 17.6665 23C17.6665 26.3138 20.3527 29 23.6665 29C26.9803 29 29.6665 26.3138 29.6665 23C29.6665 19.6862 26.9803 17 23.6665 17ZM26.2311 22.4067C26.6011 22.0367 26.6011 21.437 26.2311 21.067C25.8611 20.697 25.2614 20.697 24.8914 21.067L23.0349 22.9233L22.4416 22.3301C22.0716 21.9602 21.4719 21.9602 21.1019 22.3301C20.7319 22.7001 20.7319 23.2999 21.1019 23.6699L22.3651 24.933C22.7351 25.303 23.3348 25.303 23.7048 24.933L26.2311 22.4067Z" fill="#2C73D2"/>
<path d="M18.013 17.822C16.763 19.1861 16.0002 21.004 16.0002 23C16.0002 24.756 16.5906 26.3741 17.5836 27.6667H3.3335C2.78122 27.6667 2.3335 27.2189 2.3335 26.6667C2.3335 21.7645 5.74712 17.6596 10.327 16.5993C7.61159 15.6365 5.66683 13.0454 5.66683 10C5.66683 6.13401 8.80083 3 12.6668 3C16.5328 3 19.6668 6.13401 19.6668 10C19.6668 13.0454 17.722 15.6365 15.0067 16.5993C16.0828 16.8485 17.0947 17.2657 18.013 17.822Z" fill="#2C73D2"/>
</svg>
