<svg width="32" height="32" viewBox="0 0 32 32" fill="none" xmlns="http://www.w3.org/2000/svg">
<g clip-path="url(#clip0_11257_1137)">
<path d="M31.9275 14.72C31.8962 14.0504 31.8052 13.385 31.6555 12.7317C31.2128 10.6278 30.3512 8.63458 29.1221 6.8706C27.8931 5.10662 26.3216 3.608 24.5013 2.46397C23.6459 1.9174 22.7357 1.4616 21.7856 1.10397C21.1672 0.875661 20.5374 0.679488 19.8987 0.51624C19.306 0.368046 18.7061 0.250204 18.1013 0.163174C17.664 0.0970405 17.2181 0.0906405 16.7755 0.0565072C16.711 0.0448387 16.6477 0.0269783 16.5867 0.00317383H15.4667C15.3297 0.0379272 15.1903 0.0618233 15.0496 0.0746403C14.4636 0.0847584 13.8799 0.148671 13.3056 0.265574C12.7125 0.386107 12.1163 0.502374 11.5328 0.663441C10.6504 0.911832 9.79334 1.24253 8.9728 1.65117C5.96939 3.12109 3.50268 5.49603 1.92 8.44157C1.52776 9.15165 1.20211 9.89652 0.9472 10.6666C0.753066 11.2736 0.557866 11.8816 0.413866 12.5013C0.285866 13.056 0.216533 13.6256 0.139733 14.1909C0.0927997 14.5376 0.0842669 14.8896 0.0544002 15.2384C0.041322 15.3156 0.0231487 15.3918 0 15.4666V16.5866C0.0349767 16.7268 0.0592247 16.8695 0.0725334 17.0133C0.0948507 17.5761 0.155794 18.1367 0.254933 18.6912C0.37425 19.4345 0.550048 20.1676 0.7808 20.8842C1.6828 23.6953 3.34391 26.2024 5.5808 28.129C6.61778 29.0345 7.77374 29.7939 9.01653 30.3861C9.64693 30.6837 10.3019 30.9333 10.9589 31.1712C11.4252 31.3379 11.9015 31.4751 12.3851 31.5818C12.9077 31.7002 13.4389 31.777 13.9691 31.8581C14.2357 31.8986 14.5077 31.9061 14.7765 31.9349C14.8397 31.9489 14.9009 31.9704 14.9589 31.9989H17.0389C17.1429 31.964 17.2501 31.9393 17.3589 31.9253C17.9568 31.8975 18.5509 31.8154 19.1339 31.68C19.6821 31.5573 20.2357 31.4442 20.768 31.2704C21.4285 31.0547 22.0775 30.8055 22.7125 30.5237C23.9012 29.9865 25.0153 29.2974 26.0267 28.4736C27.5858 27.2218 28.896 25.6884 29.8891 23.953C30.3898 23.0961 30.7995 22.1891 31.1115 21.2469C31.2853 20.7082 31.4592 20.1674 31.5861 19.616C31.7718 18.8713 31.885 18.1104 31.9243 17.344C31.9385 17.2404 31.9632 17.1386 31.9979 17.04V15.0133C31.9637 14.9184 31.9401 14.82 31.9275 14.72ZM14.0715 17.3962C13.9776 18.688 13.5381 19.8421 12.5845 20.7562C12.0945 21.2112 11.5125 21.5557 10.8779 21.7664C10.0918 22.0355 9.26484 22.1654 8.43413 22.1504C7.3984 22.145 6.36373 22.1504 5.328 22.1504C5.11467 22.1504 5.11467 22.1504 5.11467 21.937V11.6725C5.11467 11.4506 5.1264 11.4389 5.3472 11.4389C6.35627 11.4389 7.36427 11.4389 8.37333 11.4389C8.9648 11.4314 9.55522 11.4908 10.1333 11.616C11.5637 11.9541 12.7051 12.7018 13.4325 14.0096C13.6835 14.4736 13.8633 14.9727 13.9659 15.4901C14.0919 16.1183 14.1275 16.7612 14.0715 17.3994V17.3962ZM14.8768 9.51997C14.881 9.24222 14.9944 8.97728 15.1924 8.78246C15.3904 8.58764 15.6571 8.4786 15.9349 8.47891C16.5003 8.47891 16.9867 9.00477 16.9675 9.57117C16.9504 10.0576 16.4981 10.6293 15.9179 10.5834C15.2981 10.6101 14.88 10.0693 14.8768 9.52317V9.51997ZM26.0832 11.585C26.0832 11.6373 26.0832 11.6917 26.0832 11.745V21.9029C26.0832 22.1354 26.0832 22.1354 25.8464 22.1354C25.4997 22.1354 25.1531 22.1354 24.8064 22.1354C24.6805 22.1354 24.6347 22.0896 24.6347 21.9626C24.6347 19.5328 24.6347 17.1022 24.6347 14.6709V14.5322H24.5952C24.4224 14.9098 24.2492 15.2874 24.0757 15.665C23.6711 16.5461 23.2658 17.4272 22.8597 18.3082C22.4537 19.1893 22.0462 20.0782 21.6373 20.9749C21.4773 21.3248 21.3173 21.6757 21.1467 22.0213C21.1299 22.0492 21.1073 22.0732 21.0804 22.0916C21.0535 22.11 21.023 22.1224 20.9909 22.128C20.7557 22.1408 20.52 22.1408 20.2848 22.128C20.2501 22.1213 20.2172 22.107 20.1886 22.0862C20.1601 22.0654 20.1364 22.0385 20.1195 22.0074C19.632 20.9642 19.152 19.9178 18.6688 18.8736C18.218 17.8965 17.766 16.9202 17.3131 15.9445C17.1125 15.5104 16.9163 15.0741 16.7168 14.6389C16.6985 14.5957 16.6703 14.5574 16.6347 14.5269V21.8869C16.6347 22.1322 16.6347 22.1354 16.3925 22.1354C16.0363 22.1354 15.6811 22.1354 15.3259 22.1354C15.2117 22.1354 15.1637 22.0949 15.168 21.9797C15.168 21.8378 15.168 21.6949 15.168 21.553V11.665C15.168 11.4389 15.168 11.4389 15.4005 11.4389C15.7611 11.4389 16.1205 11.4389 16.48 11.4389C16.5259 11.4361 16.5714 11.4482 16.6098 11.4734C16.6483 11.4986 16.6776 11.5355 16.6933 11.5786C17.366 13.0485 18.0398 14.518 18.7147 15.9872C19.3383 17.3475 19.9634 18.7068 20.5899 20.065C20.6055 20.0911 20.623 20.1161 20.6421 20.1397C20.7349 19.9413 20.8213 19.761 20.9045 19.5786L21.9467 17.2949C22.4167 16.2631 22.8875 15.232 23.3589 14.2016C23.7216 13.4087 24.0857 12.6165 24.4512 11.825C24.6645 11.36 24.5365 11.4496 25.0635 11.4421C25.3515 11.4368 25.6405 11.4421 25.9296 11.4421C26.0427 11.4357 26.0907 11.4794 26.0832 11.5882V11.585ZM25.3867 10.5866C24.8448 10.625 24.3424 10.1056 24.3413 9.54131C24.3458 9.26472 24.4566 9.00047 24.6506 8.80329C24.8446 8.60611 25.107 8.49111 25.3835 8.48211C25.5212 8.48253 25.6574 8.51011 25.7844 8.56329C25.9114 8.61646 26.0267 8.69418 26.1236 8.79198C26.2205 8.88979 26.2972 9.00575 26.3492 9.13324C26.4012 9.26073 26.4275 9.39722 26.4267 9.53491C26.416 10.1056 25.9637 10.624 25.3867 10.5866Z" fill="#6B35B6"/>
<path d="M12.5375 17.7376C12.3796 18.816 11.9412 19.7386 11.0143 20.3722C10.5807 20.6594 10.0896 20.8483 9.57533 20.9258C8.61533 21.0901 7.6436 21.0112 6.67613 21.0325C6.58973 21.0325 6.5556 20.9984 6.55666 20.9152C6.55666 20.7818 6.55666 20.6485 6.55666 20.5152V12.8501C6.55666 12.673 6.55667 12.672 6.73373 12.672C7.3108 12.672 7.88893 12.672 8.466 12.672C9.03505 12.6638 9.602 12.7429 10.1471 12.9066C10.9506 13.1519 11.6274 13.6995 12.0351 14.4341C12.3207 14.9557 12.4981 15.5297 12.5567 16.1216C12.623 16.6586 12.6165 17.2022 12.5375 17.7376Z" fill="#6B35B6"/>
</g>
<defs>
<clipPath id="clip0_11257_1137">
<rect width="32" height="32" fill="white"/>
</clipPath>
</defs>
</svg>
