
<svg width="32" height="32" viewBox="0 0 32 32" fill="none" xmlns="http://www.w3.org/2000/svg">
<g clip-path="url(#clip0_277_326)">
<path d="M25.6667 2.66577H6.33335C5.36089 2.66577 4.42826 3.05208 3.74063 3.73971C3.053 4.42735 2.66669 5.35998 2.66669 6.33244V25.6658C2.66669 26.1473 2.76153 26.6241 2.9458 27.0689C3.13006 27.5138 3.40015 27.918 3.74063 28.2585C4.08111 28.599 4.48532 28.869 4.93018 29.0533C5.37504 29.2376 5.85184 29.3324 6.33335 29.3324H12.3333C12.5986 29.3324 12.8529 29.2271 13.0405 29.0395C13.228 28.852 13.3333 28.5976 13.3333 28.3324C13.3333 28.0672 13.228 27.8129 13.0405 27.6253C12.8529 27.4378 12.5986 27.3324 12.3333 27.3324H6.33335C5.89132 27.3324 5.4674 27.1568 5.15484 26.8443C4.84228 26.5317 4.66669 26.1078 4.66669 25.6658V10.8658H27.3333V12.9991C27.3333 13.2643 27.4387 13.5187 27.6262 13.7062C27.8138 13.8937 28.0681 13.9991 28.3333 13.9991C28.5986 13.9991 28.8529 13.8937 29.0404 13.7062C29.228 13.5187 29.3333 13.2643 29.3333 12.9991V6.33244C29.3333 5.85092 29.2385 5.37412 29.0542 4.92926C28.87 4.4844 28.5999 4.08019 28.2594 3.73971C27.9189 3.39923 27.5147 3.12915 27.0698 2.94488C26.625 2.76061 26.1482 2.66577 25.6667 2.66577ZM7.33335 7.73244C7.13557 7.73244 6.94223 7.67379 6.77778 7.5639C6.61333 7.45402 6.48516 7.29785 6.40947 7.11512C6.33378 6.93239 6.31398 6.73133 6.35257 6.53735C6.39115 6.34336 6.48639 6.16518 6.62624 6.02533C6.7661 5.88548 6.94428 5.79024 7.13826 5.75165C7.33224 5.71307 7.53331 5.73287 7.71603 5.80856C7.89876 5.88424 8.05494 6.01242 8.16482 6.17687C8.2747 6.34131 8.33335 6.53465 8.33335 6.73244C8.3299 6.99658 8.22343 7.24893 8.03664 7.43572C7.84985 7.62252 7.59749 7.72898 7.33335 7.73244ZM12 7.73244C11.8022 7.73244 11.6089 7.67379 11.4444 7.5639C11.28 7.45402 11.1518 7.29785 11.0761 7.11512C11.0004 6.93239 10.9806 6.73133 11.0192 6.53735C11.0578 6.34336 11.1531 6.16518 11.2929 6.02533C11.4328 5.88548 11.6109 5.79024 11.8049 5.75165C11.9989 5.71307 12.2 5.73287 12.3827 5.80856C12.5654 5.88424 12.7216 6.01242 12.8315 6.17687C12.9414 6.34131 13 6.53465 13 6.73244C12.9966 6.99658 12.8901 7.24893 12.7033 7.43572C12.5165 7.62252 12.2642 7.72898 12 7.73244Z" fill="#141A24"/>
<path fill-rule="evenodd" clip-rule="evenodd" d="M6.66669 15.6658C6.67014 15.4016 6.77661 15.1493 6.9634 14.9625C7.15019 14.7757 7.40254 14.6692 7.66669 14.6658H16.3334C16.5986 14.6658 16.8529 14.7711 17.0405 14.9587C17.228 15.1462 17.3334 15.4006 17.3334 15.6658C17.3334 15.931 17.228 16.1853 17.0405 16.3729C16.8529 16.5604 16.5986 16.6658 16.3334 16.6658H7.66669C7.40254 16.6623 7.15019 16.5559 6.9634 16.3691C6.77661 16.1823 6.67014 15.9299 6.66669 15.6658ZM6.66669 20.9991C6.67014 20.735 6.77661 20.4826 6.9634 20.2958C7.15019 20.109 7.40254 20.0026 7.66669 19.9991H11C11.2652 19.9991 11.5196 20.1045 11.7071 20.292C11.8947 20.4795 12 20.7339 12 20.9991C12 21.2643 11.8947 21.5187 11.7071 21.7062C11.5196 21.8937 11.2652 21.9991 11 21.9991H7.66669C7.40254 21.9956 7.15019 21.8892 6.9634 21.7024C6.77661 21.5156 6.67014 21.2632 6.66669 20.9991Z" fill="#141A24"/>
<path fill-rule="evenodd" clip-rule="evenodd" d="M22.1331 17C21.927 16.998 21.7256 17.0615 21.5578 17.1813C21.3901 17.3011 21.2647 17.4711 21.1998 17.6667L20.8131 18.8134L20.2265 19.2L18.9731 18.88C18.7683 18.8325 18.5537 18.8507 18.3598 18.932C18.1659 19.0134 18.0026 19.1539 17.8931 19.3334L17.1331 20.6667C17.0173 20.8645 16.9738 21.0964 17.0103 21.3226C17.0468 21.5489 17.161 21.7554 17.3331 21.9067L18.1865 22.6534V23.4534L17.3331 24.2C17.161 24.3513 17.0468 24.5578 17.0103 24.7841C16.9738 25.0104 17.0173 25.2423 17.1331 25.44L17.8931 26.7734C18.0026 26.9529 18.1659 27.0933 18.3598 27.1747C18.5537 27.2561 18.7683 27.2743 18.9731 27.2267L20.2398 26.9067L20.7731 27.2134L21.1198 28.4C21.1776 28.6031 21.3 28.7819 21.4683 28.9094C21.6367 29.0368 21.842 29.1061 22.0531 29.1067H23.6665C23.8794 29.1068 24.0866 29.0381 24.2572 28.9107C24.4279 28.7833 24.5527 28.6042 24.6131 28.4L24.9598 27.2134L25.4798 26.9067L26.8131 27.2267C27.0179 27.2743 27.2326 27.2561 27.4264 27.1747C27.6203 27.0933 27.7836 26.9529 27.8931 26.7734L28.6665 25.44C28.7798 25.2548 28.8271 25.0366 28.8004 24.8211C28.7738 24.6056 28.6749 24.4054 28.5198 24.2534L27.6265 23.3734V22.7867L28.5198 21.9067C28.6749 21.7547 28.7738 21.5545 28.8004 21.339C28.8271 21.1235 28.7798 20.9053 28.6665 20.72L27.8931 19.3867C27.7836 19.2072 27.6203 19.0668 27.4264 18.9854C27.2326 18.904 27.0179 18.8858 26.8131 18.9334L25.5598 19.2534L24.9731 18.8667L24.5865 17.72C24.5222 17.5266 24.3989 17.3582 24.2338 17.2385C24.0688 17.1189 23.8703 17.0542 23.6665 17.0534L22.1331 17ZM22.8398 25C23.228 25.0027 23.6082 24.89 23.9323 24.6762C24.2564 24.4625 24.5097 24.1573 24.6601 23.7994C24.8105 23.4415 24.8512 23.047 24.7771 22.6659C24.703 22.2848 24.5173 21.9343 24.2438 21.6589C23.9702 21.3835 23.621 21.1955 23.2404 21.1187C22.8599 21.042 22.4651 21.0801 22.1062 21.228C21.7473 21.3759 21.4404 21.6272 21.2244 21.9498C21.0084 22.2724 20.8931 22.6518 20.8931 23.04C20.8931 23.5576 21.0978 24.0541 21.4625 24.4213C21.8272 24.7885 22.3223 24.9965 22.8398 25Z" fill="#141A24"/>
</g>
<defs>
<clipPath id="clip0_277_326">
<rect width="26.6667" height="26.6667" fill="white" transform="translate(2.66663 2.66583)"/>
</clipPath>
</defs>
</svg>
