<svg width="32" height="32" viewBox="0 0 32 32" fill="none" xmlns="http://www.w3.org/2000/svg">
<path d="M27.4387 1.28009C28.3089 1.28086 29.1436 1.62674 29.759 2.242C30.3744 2.85736 30.7201 3.69207 30.7209 4.56232V27.4373C30.7202 28.3076 30.3744 29.1422 29.759 29.7576C29.1436 30.373 28.309 30.7188 27.4387 30.7195H13.3557C14.3507 30.6023 15.329 30.3709 16.2708 30.0291C17.9867 29.455 19.5419 28.481 20.8069 27.1873C21.959 25.9973 22.7396 24.4966 23.052 22.8699C23.3765 21.2258 23.2 19.4552 22.5237 17.5584L21.4778 14.6434L12.1292 17.9783L13.5862 22.0594L17.3762 20.7039C17.5625 21.2364 17.6005 21.8096 17.4866 22.3621C17.3473 22.9508 17.0298 23.4821 16.5774 23.8836C15.9946 24.3956 15.3128 24.7833 14.5745 25.0213C13.7078 25.3657 12.7557 25.434 11.8489 25.2166C10.977 24.9672 10.201 24.4585 9.62427 23.7586C8.89817 22.8812 8.34301 21.8754 7.98657 20.7938C7.58142 19.7366 7.38347 18.6113 7.40356 17.4793C7.41885 16.5728 7.71126 15.6926 8.24243 14.9578C8.80285 14.2347 9.5679 13.6965 10.4377 13.4129C10.8632 13.2552 11.3086 13.1566 11.761 13.1209C12.1475 13.0871 12.5378 13.1202 12.9133 13.2176C13.2638 13.3104 13.5936 13.4702 13.884 13.6873C14.1835 13.9196 14.4402 14.2023 14.6418 14.5233L20.4338 12.4656C19.9735 11.4594 19.3012 10.5641 18.4631 9.84161C17.6265 9.13023 16.6593 8.58833 15.6155 8.24689C14.5135 7.88804 13.3567 7.72577 12.1985 7.76642C10.9421 7.81012 9.70055 8.05184 8.51978 8.48322C6.71004 9.10241 5.08553 10.1682 3.79712 11.5818C2.53778 12.9808 1.70949 14.7144 1.41235 16.5731C1.34456 16.9479 1.30006 17.3266 1.27856 17.7068V4.56232C1.27939 3.69207 1.62512 2.85736 2.24048 2.242C2.85584 1.62665 3.69055 1.28092 4.56079 1.28009H27.4387ZM19.6438 2.7381C19.1026 2.73812 18.5841 2.95309 18.2014 3.33575C17.8188 3.71841 17.6038 4.23698 17.6038 4.77814C17.6038 5.31934 17.8187 5.83881 18.2014 6.2215C18.584 6.60392 19.1028 6.81913 19.6438 6.81915H26.9905C27.2582 6.81911 27.5234 6.76628 27.7708 6.66388C28.0182 6.56138 28.2434 6.41088 28.4329 6.2215C28.7182 5.93616 28.9127 5.57235 28.9915 5.17657C29.0702 4.78072 29.0297 4.36977 28.8752 3.99689C28.7208 3.62436 28.4595 3.30596 28.1243 3.08185C27.7888 2.85771 27.3939 2.73816 26.9905 2.7381H19.6438ZM20.929 4.0965C21.0137 4.09623 21.0981 4.11232 21.177 4.14337C21.252 4.17171 21.3198 4.21626 21.3752 4.27423C21.4328 4.33284 21.4763 4.40363 21.5032 4.48126C21.5337 4.56819 21.5487 4.65967 21.5471 4.75177V4.80743C21.5482 4.89965 21.5332 4.99174 21.5032 5.07892C21.4763 5.15487 21.4339 5.22481 21.3782 5.28302C21.3224 5.34117 21.2546 5.3867 21.1799 5.41681C21.019 5.47505 20.8428 5.47504 20.6819 5.41681C20.6063 5.38732 20.538 5.34136 20.4817 5.28302C20.4254 5.2247 20.3815 5.15539 20.3547 5.07892C20.3247 4.99175 20.3106 4.89963 20.3118 4.80743V4.75177C20.3102 4.65977 20.3243 4.5681 20.3547 4.48126C20.3816 4.40363 20.4261 4.33285 20.4836 4.27423C20.5379 4.21634 20.6048 4.17174 20.679 4.14337C20.7588 4.11262 20.8434 4.09655 20.929 4.0965ZM22.3137 4.0965C22.3985 4.09623 22.4829 4.11232 22.5618 4.14337C22.6368 4.17171 22.7046 4.21628 22.76 4.27423C22.8176 4.33283 22.8611 4.40365 22.8879 4.48126C22.9184 4.56818 22.9334 4.65968 22.9319 4.75177V4.80743C22.933 4.89965 22.918 4.99174 22.8879 5.07892C22.8611 5.15488 22.8186 5.22481 22.7629 5.28302C22.7072 5.34119 22.6394 5.38669 22.5647 5.41681C22.4038 5.47507 22.2276 5.47502 22.0667 5.41681C21.9911 5.38732 21.9228 5.34136 21.8665 5.28302C21.8102 5.2247 21.7663 5.1554 21.7395 5.07892C21.7095 4.99175 21.6954 4.89963 21.6965 4.80743V4.75177C21.695 4.65976 21.7091 4.56811 21.7395 4.48126C21.7664 4.40363 21.8108 4.33285 21.8684 4.27423C21.9227 4.21636 21.9896 4.17173 22.0637 4.14337C22.1435 4.11263 22.2282 4.09654 22.3137 4.0965ZM19.5706 4.13068C19.6486 4.12946 19.7273 4.13645 19.804 4.15118C19.8646 4.16351 19.9229 4.18667 19.9758 4.21857C20.0219 4.24743 20.0606 4.28735 20.0872 4.33478C20.1123 4.38448 20.1254 4.44023 20.1252 4.49591C20.1245 4.54986 20.1103 4.60294 20.0842 4.65021C20.0572 4.70135 20.0136 4.74196 19.9612 4.76642H19.9299C19.9542 4.77156 19.9776 4.7807 19.9993 4.79279C20.052 4.82306 20.0937 4.87018 20.1165 4.92657C20.1413 4.9722 20.1535 5.02406 20.1536 5.07599C20.1552 5.1342 20.1441 5.19218 20.1194 5.24493C20.097 5.29334 20.0611 5.33434 20.0168 5.36407C19.967 5.39873 19.9105 5.42295 19.8508 5.43439C19.7762 5.45039 19.6997 5.45835 19.6233 5.45782H19.0608V4.13068H19.5706ZM26.9924 4.08185C27.1003 4.07837 27.2084 4.09857 27.3079 4.14044C27.3841 4.17613 27.4489 4.2327 27.4944 4.30353C27.5371 4.37523 27.5625 4.45573 27.5696 4.53888H27.2551C27.2492 4.49974 27.235 4.46213 27.2141 4.42853C27.1959 4.39839 27.1687 4.37435 27.136 4.36115C27.0933 4.34462 27.047 4.33753 27.0012 4.33868C26.9614 4.33843 26.9217 4.34555 26.885 4.36115C26.8495 4.37784 26.818 4.40322 26.7942 4.43439C26.766 4.46904 26.7466 4.50999 26.7366 4.55353C26.7212 4.60951 26.7143 4.66836 26.7161 4.72638V4.80157C26.7152 4.85834 26.7212 4.91513 26.7336 4.97052C26.7456 5.01499 26.7658 5.05728 26.7942 5.09357C26.8206 5.12568 26.8553 5.15015 26.8938 5.16583C26.9381 5.18346 26.9858 5.19152 27.0334 5.18927C27.0789 5.19488 27.1257 5.19487 27.1711 5.18927L27.2405 5.15411V4.95587H26.9836L26.9895 4.71466H27.5725V5.26544C27.5393 5.29703 27.5022 5.32418 27.4622 5.3465C27.4028 5.37665 27.3402 5.40049 27.2756 5.41681C27.1889 5.43818 27.0993 5.44815 27.01 5.44611C26.9228 5.44699 26.8361 5.43189 26.7542 5.40216C26.6798 5.37704 26.6117 5.3353 26.5559 5.28009C26.5005 5.22152 26.4571 5.15187 26.4299 5.07599C26.3994 4.98793 26.3854 4.89475 26.387 4.80157V4.72638C26.3856 4.63326 26.3997 4.54005 26.4299 4.45197C26.4565 4.3766 26.5 4.30789 26.5559 4.25079C26.61 4.19541 26.6758 4.15284 26.7483 4.12579C26.8262 4.09576 26.909 4.08067 26.9924 4.08185ZM23.4514 4.67657L23.5647 4.52521L23.885 4.117H24.2961L23.8186 4.70587L24.3079 5.44318H23.9172L23.5969 4.94122L23.4514 5.08478V5.44318H23.1213V4.117H23.4514V4.67657ZM24.7542 5.44318H24.425V4.117H24.7542V5.44318ZM25.8586 4.9588V4.117H26.1887V5.44318H25.8586L25.3342 4.59747V5.44318H25.0051V4.117H25.3342L25.8586 4.9588ZM20.929 4.35236C20.8859 4.35178 20.8431 4.36089 20.804 4.37872C20.7681 4.39743 20.7376 4.42492 20.7141 4.45782C20.6889 4.49509 20.6698 4.53636 20.6584 4.5799C20.6461 4.63524 20.6402 4.69214 20.6409 4.74884V4.80743C20.6403 4.86418 20.6463 4.92095 20.6584 4.97638C20.6707 5.02111 20.6907 5.06415 20.717 5.10236C20.7397 5.13573 20.7707 5.16264 20.8069 5.18048C20.846 5.19834 20.8888 5.20742 20.9319 5.20685C20.9732 5.20754 21.0148 5.1984 21.052 5.18048C21.0887 5.16337 21.1198 5.13632 21.1418 5.10236C21.1682 5.06414 21.1882 5.02113 21.2004 4.97638C21.2126 4.92094 21.2186 4.86419 21.218 4.80743V4.74884C21.2195 4.69193 21.2125 4.63481 21.1975 4.5799C21.1874 4.53591 21.1682 4.49443 21.1418 4.45782C21.1191 4.42425 21.0884 4.39661 21.052 4.37872C21.0136 4.36124 20.9712 4.35213 20.929 4.35236ZM22.3137 4.35236C22.2707 4.35177 22.2279 4.36089 22.1887 4.37872C22.1528 4.39746 22.1214 4.42484 22.0979 4.45782C22.0728 4.49502 22.0546 4.53647 22.0432 4.5799C22.0309 4.63524 22.0249 4.69214 22.0256 4.74884V4.80743C22.0251 4.86419 22.031 4.92094 22.0432 4.97638C22.0555 5.02111 22.0745 5.06415 22.1008 5.10236C22.1235 5.13595 22.1553 5.16257 22.1917 5.18048C22.2308 5.19835 22.2736 5.20744 22.3167 5.20685C22.358 5.20754 22.3995 5.1984 22.4368 5.18048C22.4734 5.16337 22.5046 5.13632 22.5266 5.10236C22.5529 5.06414 22.5729 5.02113 22.5852 4.97638C22.5974 4.92095 22.6034 4.86418 22.6028 4.80743V4.74884C22.6042 4.69194 22.5973 4.63481 22.5823 4.5799C22.5722 4.53591 22.553 4.49443 22.5266 4.45782C22.5039 4.42425 22.4731 4.39662 22.4368 4.37872C22.3984 4.36124 22.3559 4.35213 22.3137 4.35236ZM19.3899 5.18634H19.6233C19.6632 5.18821 19.7036 5.18112 19.7405 5.16583C19.7662 5.15476 19.7881 5.13618 19.804 5.1131C19.8156 5.09482 19.8228 5.07418 19.8245 5.05255C19.8255 5.02431 19.8194 4.99583 19.8069 4.97052C19.7942 4.94525 19.7728 4.92498 19.7463 4.91486C19.7126 4.89949 19.675 4.89334 19.6379 4.89532H19.3899V5.18634ZM19.3899 4.66779H19.594C19.6315 4.6697 19.6696 4.66467 19.7053 4.65314C19.7318 4.64337 19.7546 4.62578 19.7717 4.60333C19.7867 4.57992 19.7939 4.55197 19.7922 4.52423C19.7945 4.49383 19.7873 4.46354 19.7717 4.43732C19.7574 4.41344 19.735 4.39534 19.7083 4.38751C19.6722 4.37743 19.6343 4.37243 19.5969 4.37286H19.3899V4.66779Z" fill="#006BFF"/>
</svg>
