<svg width="32" height="32" viewBox="0 0 32 32" fill="none" xmlns="http://www.w3.org/2000/svg">
<path d="M27.4275 1.28004C27.86 1.27933 28.2884 1.36414 28.6882 1.52907C29.0882 1.69405 29.4523 1.93639 29.7586 2.24196C30.0653 2.54584 30.3094 2.90719 30.4763 3.30543C30.6433 3.70392 30.7298 4.13216 30.7312 4.56422V27.4275C30.7324 27.8595 30.6486 28.2879 30.4841 28.6873C30.3196 29.0866 30.0772 29.4498 29.7722 29.7556C29.4673 30.0613 29.1046 30.304 28.7058 30.4695C28.3071 30.6349 27.8797 30.7204 27.448 30.7205H13.3601C14.3547 30.6047 15.3324 30.3729 16.2732 30.03C17.9877 29.4561 19.542 28.4826 20.8074 27.1912C21.9583 26.0013 22.7377 24.5023 23.0505 22.8767C23.3749 21.2335 23.1991 19.4629 22.5232 17.5652L21.4773 14.6511L12.1336 17.9841L13.5906 22.0632L17.3777 20.7088C17.5639 21.2412 17.6028 21.8145 17.489 22.367C17.3491 22.9558 17.0315 23.4875 16.5798 23.8904C15.9964 24.4001 15.3151 24.7861 14.5779 25.0242C13.7116 25.3685 12.7598 25.4368 11.8533 25.2195C10.982 24.9702 10.207 24.4618 9.63063 23.7625C8.89478 22.8863 8.33094 21.8783 7.96949 20.7927C7.56185 19.737 7.36353 18.6118 7.38648 17.4802C7.40275 16.5747 7.69512 15.6954 8.2234 14.9597C8.78348 14.2371 9.54753 13.6992 10.4168 13.4158C10.8425 13.2595 11.2879 13.1618 11.74 13.1248C12.1261 13.0925 12.5149 13.1246 12.8904 13.2205C13.2414 13.3131 13.5716 13.4731 13.8611 13.6922C14.1612 13.9226 14.418 14.2055 14.6189 14.5261L20.4021 12.4627C19.9428 11.4566 19.2707 10.562 18.4324 9.84059C17.597 9.12755 16.6297 8.58502 15.5857 8.24391C14.4853 7.88564 13.3302 7.72316 12.1736 7.76344C10.917 7.80684 9.67495 8.04879 8.49391 8.48024C6.69017 9.10232 5.07138 10.167 3.7859 11.5769C2.52834 12.9758 1.70041 14.7079 1.40211 16.5652C1.33415 16.9409 1.28963 17.3207 1.26832 17.7019V4.57301C1.26726 4.14032 1.35137 3.71129 1.51637 3.31129C1.68131 2.91142 1.92359 2.548 2.22926 2.24196C2.53527 1.93601 2.89954 1.6931 3.29957 1.52809C3.69938 1.36324 4.12785 1.27886 4.56031 1.28004H27.4275ZM23.5603 2.73707C23.2902 2.73519 23.0222 2.78693 22.7722 2.88942C22.5222 2.99196 22.2954 3.14363 22.1043 3.33473C21.7272 3.71951 21.5175 4.23746 21.5213 4.77614C21.5213 5.31707 21.7364 5.83602 22.1189 6.21852C22.5013 6.6009 23.0196 6.81605 23.5603 6.81617H27.2088C27.4789 6.81811 27.7468 6.7663 27.9968 6.66383C28.2469 6.56129 28.4746 6.40965 28.6658 6.21852C28.8571 6.03013 29.0096 5.80574 29.114 5.55836C29.2185 5.3109 29.2727 5.04474 29.2742 4.77614C29.2741 4.23554 29.0597 3.71708 28.6775 3.33473C28.295 2.95228 27.776 2.73712 27.2351 2.73707H23.5603ZM23.6804 3.93434C23.8013 3.92981 23.9219 3.95635 24.03 4.01051C24.1225 4.05615 24.1999 4.12838 24.2517 4.21754C24.3044 4.30641 24.3378 4.4058 24.3484 4.50856H24.0076C24.0051 4.45027 23.991 4.39261 23.9666 4.33961C23.9452 4.29264 23.9075 4.25476 23.8611 4.23219C23.8046 4.20639 23.7424 4.19418 23.6804 4.19703C23.6292 4.19446 23.5776 4.20579 23.532 4.22926C23.4881 4.25053 23.4507 4.28375 23.4246 4.32496C23.3931 4.3747 23.371 4.43023 23.3601 4.48805C23.3446 4.56172 23.3367 4.63738 23.3367 4.71266V4.82887C23.3358 4.9049 23.3418 4.98141 23.3543 5.05641C23.366 5.11357 23.3871 5.16868 23.4158 5.21949C23.4407 5.2623 23.4768 5.29734 23.5203 5.32106C23.5685 5.34338 23.6215 5.35453 23.6746 5.35328C23.7356 5.35557 23.7967 5.34335 23.8523 5.31813C23.8977 5.29698 23.9354 5.26135 23.9578 5.21657C23.9858 5.16583 24.0012 5.1085 24.0017 5.05055H24.3425C24.3369 5.15385 24.3041 5.25414 24.2488 5.34157C24.1949 5.42931 24.1166 5.50027 24.0242 5.54567C23.9148 5.596 23.7949 5.6214 23.6746 5.61891C23.5749 5.62016 23.4758 5.60101 23.3836 5.56324C23.3002 5.52735 23.2261 5.47255 23.1677 5.40309C23.1063 5.32928 23.0599 5.24367 23.031 5.15211C22.9995 5.04541 22.9835 4.93427 22.9841 4.82301V4.73024C22.9832 4.61881 23.0002 4.50734 23.0339 4.40114C23.0622 4.30944 23.1088 4.22348 23.1707 4.15016C23.2309 4.08161 23.3059 4.02678 23.3894 3.99C23.4811 3.95045 23.5807 3.93116 23.6804 3.93434ZM25.2761 3.94899C25.3568 3.95297 25.437 3.968 25.5134 3.99489C25.5994 4.02741 25.6739 4.08544 25.7263 4.1609C25.7772 4.24285 25.802 4.33893 25.7986 4.43532C25.8007 4.51412 25.7864 4.59321 25.7556 4.66578C25.7263 4.72762 25.6813 4.78174 25.6267 4.82301C25.5873 4.8576 25.543 4.88679 25.4959 4.90992L25.8543 5.58864V5.60621H25.49L25.1755 4.99196H24.9041V5.60621H24.5779V3.94899H25.2761ZM26.9324 5.16676L27.3572 3.94899H27.8064V5.60621H27.4627V5.13453L27.4978 4.37086L27.0486 5.60621H26.8152L26.367 4.36207L26.4021 5.13453V5.60621H26.0642V3.94899H26.5066L26.9324 5.16676ZM24.8982 4.71461H25.1902C25.2414 4.71591 25.2925 4.70476 25.3386 4.68239C25.3772 4.66257 25.4087 4.63115 25.4285 4.59254V4.60426C25.4519 4.56067 25.4633 4.5111 25.4607 4.46168C25.4622 4.41455 25.452 4.3674 25.4314 4.32496C25.4116 4.2862 25.3803 4.25395 25.3416 4.23414C25.2942 4.21285 25.2421 4.20273 25.1902 4.20485H24.8982V4.71461Z" fill="#006BFF"/>
</svg>
