<svg width="24" height="24" viewBox="0 0 24 24" fill="none" xmlns="http://www.w3.org/2000/svg">
<g clip-path="url(#clip0_12494_4943)">
<path d="M9.49199 15.7969L5.625 21.1879C7.34263 22.3571 9.30629 23.103 11.5312 23.2031V16.5196C10.7571 16.4347 10.1179 16.1896 9.49199 15.7969Z" fill="#104A70"/>
<path d="M11.5312 7.40793L11.4865 0.75C9.28869 0.855592 7.3356 1.5614 5.625 2.73353L9.48415 8.10938C10.0965 7.728 10.77 7.48402 11.5312 7.40793Z" fill="#ED7324"/>
<path d="M18.1406 2.60581C16.4213 1.4317 14.4033 0.815759 12.1828 0.75L12.1406 7.37834C12.9035 7.4335 13.6269 7.63433 14.2434 8.01562L18.1406 2.60581Z" fill="#FBBC05"/>
<path d="M7.7531 13.6875L1.5 15.7666C2.23063 17.8194 3.47735 19.5479 5.14985 20.8594L9.04688 15.4761C8.48586 14.9961 8.03755 14.3846 7.7531 13.6875Z" fill="#0F1E2A"/>
<path d="M9 8.44896L5.13923 3.09375C4.01274 3.97916 3.09386 5.05677 2.36662 6.3062C2.01231 6.91493 1.73902 7.53771 1.5 8.21208L7.73471 10.2656C8.01736 9.56555 8.43945 8.93207 9 8.44896Z" fill="#DF5216"/>
<path d="M7.48546 11.9805C7.47648 11.5936 7.51848 11.1828 7.60263 10.8322L1.34243 8.8125C1.0524 9.8143 0.890625 10.8345 0.890625 11.9297C0.890625 13.0312 1.01645 14.0403 1.30914 15.0469L7.64062 13.0566C7.55382 12.7008 7.49445 12.3674 7.48546 11.9805Z" fill="#D53C0D"/>
<path d="M14.8125 15.5773L18.7207 20.9531C20.3949 19.6385 21.7248 17.8896 22.4531 15.835L16.1704 13.7812C15.8757 14.4745 15.3909 15.1041 14.8125 15.5773Z" fill="#378A9B"/>
<path d="M12.1406 16.5426V23.25C14.3537 23.1812 16.4286 22.5232 18.1406 21.3485L14.2262 15.9375C13.6049 16.3148 12.9012 16.4956 12.1406 16.5426Z" fill="#1D77B2"/>
<path d="M22.6375 8.76562L15.1406 11.0832C15.2244 11.4495 15.258 11.63 15.2569 11.9529C15.2558 12.2759 15.2164 12.447 15.1406 12.8145L22.6641 15.1406C22.9585 14.1334 23.1094 13.0536 23.1094 11.9531C23.11 10.8468 22.9448 9.79498 22.6375 8.76562Z" fill="#539E82"/>
</g>
<defs>
<clipPath id="clip0_12494_4943">
<rect width="24" height="24" fill="white"/>
</clipPath>
</defs>
</svg>
