
<svg width="32" height="32" viewBox="0 0 32 32" fill="none" xmlns="http://www.w3.org/2000/svg">
<g clip-path="url(#clip0_277_336)">
<path d="M30.3307 12.7274C30.24 12.6828 30.1433 12.6513 30.0437 12.6338C29.9242 12.6076 29.8432 12.6442 29.8019 12.7773C29.7529 12.9178 29.6937 13.0545 29.6247 13.1863C29.4327 13.5834 29.182 13.9318 28.7798 14.1908C28.721 13.9397 28.6754 13.7137 28.6144 13.4919C28.3414 12.4967 27.6949 11.8998 26.7579 11.8119C25.41 11.6852 24.3104 12.1541 23.4932 13.2426C22.7756 14.1973 22.5521 15.3119 22.4969 16.4714C22.4768 16.8876 22.5216 17.3066 22.5292 17.7246C22.5292 17.7963 22.5134 17.8864 22.4689 17.9366C21.9666 18.5059 21.3772 18.9364 20.6034 19.0383C19.9802 19.1205 19.4812 18.9411 19.1798 18.3036C19.1041 18.1419 19.0457 17.9727 19.0055 17.7988C18.8587 17.1663 18.8401 16.5267 18.8885 15.8788C18.9452 15.1254 19.0442 14.3838 19.3323 13.6842C19.4493 13.392 19.6137 13.121 19.8188 12.8821C20.1513 12.5075 20.631 12.6463 20.7601 13.1282C20.7925 13.2432 20.8069 13.3625 20.8028 13.4819C20.7863 13.8048 20.7472 14.1226 20.7332 14.4437C20.73 14.5155 20.7691 14.6231 20.8269 14.659C21.1444 14.8642 21.5856 14.7802 21.8267 14.4868C22.1044 14.1481 22.1464 13.7596 22.0875 13.342C21.9996 12.7185 21.7058 12.2413 21.1189 11.9816C20.499 11.7068 19.8493 11.7279 19.206 11.8664C18.0379 12.1175 17.2328 12.825 16.737 13.9009C16.7087 13.9623 16.6635 14.0347 16.6068 14.0609C16.3022 14.2044 15.9915 14.3336 15.6715 14.4728C15.6532 14.41 15.6389 14.3652 15.6281 14.3203C15.5438 13.9698 15.4893 13.6085 15.3705 13.2702C15.1793 12.7256 14.846 12.2883 14.2996 12.0357C13.5922 11.7089 12.8646 11.7107 12.1349 11.9048C10.8875 12.2374 10.0982 13.0855 9.65479 14.2593C9.20204 15.4579 9.13674 16.7021 9.36958 17.957C9.49012 18.6068 9.74771 19.208 10.2306 19.6733C11.2197 20.6273 12.3878 20.8128 13.6496 20.3478C14.5421 20.0188 15.0595 19.3053 15.3748 18.4328C15.6855 17.5742 15.7565 16.6827 15.7336 15.7779C15.7289 15.5813 15.7336 15.3833 15.7336 15.1853L16.4457 14.9302L16.3492 15.6352C16.2416 16.4273 16.2315 17.2198 16.3958 18.003C16.5365 18.6764 16.8224 19.2837 17.3527 19.7419C18.1645 20.4436 19.1299 20.6334 20.1632 20.4985C21.1537 20.3693 21.9376 19.8488 22.5859 19.1072C22.6651 19.0165 22.7412 18.9232 22.8223 18.8267C23.0156 19.2543 23.3121 19.6272 23.6851 19.9119C24.3753 20.4361 25.1581 20.5957 26.0109 20.5168C26.8199 20.4422 27.4772 20.096 27.9905 19.4739C28.6453 18.6807 28.8516 17.7264 28.9283 16.7369C28.9642 16.2859 28.9448 15.8303 28.9337 15.3772C28.9301 15.2276 28.9739 15.1397 29.0952 15.0543C29.8507 14.5244 30.1607 13.723 30.3971 12.881C30.3993 12.8519 30.3945 12.8227 30.3829 12.796C30.3713 12.7692 30.3534 12.7457 30.3307 12.7274ZM14.0578 18.018C13.9767 18.2536 13.8591 18.475 13.7095 18.6742C13.3651 19.1273 12.725 19.0893 12.4029 18.6172C12.1686 18.2738 12.0721 17.8806 12.0133 17.4802C11.9641 17.1445 11.9508 16.8036 11.9336 16.6034C11.9627 15.586 12.0305 14.7121 12.3365 13.8816C12.4561 13.5588 12.6171 13.253 12.8154 12.9717C13.1064 12.5599 13.5835 12.5936 13.8602 13.0162C13.9115 13.103 13.9558 13.1938 13.9925 13.2878C14.0829 13.4927 14.1159 13.6566 13.8914 13.8371C13.4652 14.1797 13.4128 15.1953 14.187 15.4777C14.3176 15.525 14.3516 15.595 14.3527 15.7263C14.3585 16.5044 14.314 17.2768 14.0578 18.018ZM27.3319 17.7895C27.2443 18.1185 27.1238 18.4353 26.891 18.6954C26.5135 19.1158 25.965 19.0821 25.6418 18.6236C25.4096 18.2932 25.3149 17.9104 25.2525 17.5229C25.1998 17.1943 25.1843 16.86 25.1625 16.6307C25.2041 15.5774 25.2776 14.6328 25.6443 13.7445C25.7683 13.4429 25.9348 13.1606 26.1386 12.9061C26.4117 12.5685 26.8145 12.613 27.0445 12.9811C27.1403 13.1343 27.1998 13.3136 27.2558 13.4873C27.2877 13.5863 27.2816 13.6789 27.1643 13.7621C26.6319 14.1373 26.6194 15.2161 27.3642 15.4676C27.5077 15.5161 27.5564 15.5982 27.5568 15.7546C27.5582 16.4416 27.5091 17.1226 27.3322 17.7913L27.3319 17.7895Z" fill="#39AE2E"/>
<path d="M15.0395 21.8411C15.0578 21.9986 15.0922 22.1324 15.0861 22.264C15.0574 22.8847 14.9236 23.4666 14.4403 23.9118C14.1807 24.1526 13.845 24.295 13.4914 24.3143C12.5364 24.3861 11.7159 24.0069 10.9493 23.5093C10.1959 23.0192 9.47837 22.4689 8.73646 21.9602C7.93391 21.4088 7.10734 20.8957 6.13869 20.6887C5.85671 20.6285 5.55965 20.631 5.26906 20.6224C5.11587 20.6177 5.06349 20.5711 5.06242 20.4129C5.04854 17.968 5.03073 15.5231 5.00896 13.0781C4.9964 11.7148 4.97309 10.3515 4.953 8.98821C4.953 8.93548 4.9469 8.88274 4.94044 8.78229C4.78008 8.85404 4.6337 8.8996 4.50993 8.97889C3.94668 9.33764 3.63169 9.87327 3.46236 10.5018C3.22881 11.3682 3.21912 12.2307 3.57823 13.0694C3.67115 13.2847 3.80927 13.4834 3.93699 13.7091C3.5255 13.8167 3.12584 13.7902 2.74592 13.613C2.1206 13.3213 1.75683 12.818 1.6492 12.1421C1.42892 10.7648 1.9649 9.70932 3.06414 8.90749C3.79528 8.37366 4.63155 8.07159 5.50728 7.90297C6.13654 7.78243 6.78266 7.75122 7.42089 7.67659C7.5931 7.6565 7.6322 7.73364 7.6322 7.89185C7.62742 11.3295 7.62538 14.7671 7.6261 18.2047C7.6261 18.6532 7.6261 19.1015 7.6261 19.5497C7.6261 19.6347 7.62144 19.7072 7.73732 19.7391C9.07369 20.105 10.291 20.7465 11.5132 21.3776C12.0474 21.6534 12.5992 21.8874 13.1994 21.9978C13.7753 22.1107 14.3708 22.0685 14.925 21.8755L15.0395 21.8411Z" fill="#39AE2E"/>
</g>
<defs>
<clipPath id="clip0_277_336">
<rect width="28.8" height="16.646" fill="white" transform="translate(1.59998 7.67694)"/>
</clipPath>
</defs>
</svg>
