<svg width="32" height="32" viewBox="0 0 32 32" fill="none" xmlns="http://www.w3.org/2000/svg">
<path d="M16.4654 14.7867C16.4654 12.9252 17.2023 11.2576 18.4045 10.0166C17.1635 8.77562 15.4571 8 13.5956 8C11.6954 8 9.98901 8.77562 8.7868 10.0166C9.98901 11.2188 10.7259 12.9252 10.7259 14.7479C10.7259 13.1579 12.0056 11.8781 13.5956 11.8781C15.1857 11.9169 16.4654 13.1966 16.4654 14.7867Z" fill="#05D0E0"/>
<path d="M20.3434 21.5735V14.7869C20.3434 12.9254 19.6067 11.2576 18.4045 10.0166C17.2023 11.2576 16.4654 12.9252 16.4654 14.7867L16.4653 21.5735C16.4653 22.1165 16.698 22.5818 17.047 22.9697C17.396 23.3187 17.9002 23.5514 18.4431 23.5514C19.4902 23.5126 20.3434 22.6206 20.3434 21.5735Z" fill="#01A9B2"/>
<path d="M3.93905 8C2.85318 8 2 8.89196 2 9.93905C2 11.0249 2.89196 11.8781 3.93905 11.8781C5.52907 11.8781 6.80884 13.1579 6.80884 14.7479C6.80884 12.8864 7.54568 11.2188 8.74789 10.0166C7.54568 8.77562 5.83931 8 3.93905 8Z" fill="#0282C9"/>
<path d="M6.80884 14.7479L6.80865 21.5346C6.80865 22.6205 7.70062 23.4737 8.7477 23.4737C9.09673 23.4737 9.40698 23.3961 9.67845 23.241C10.2989 22.892 10.6867 22.2715 10.6867 21.5346V14.7868C10.6867 12.9253 9.94991 11.2577 8.7477 10.0555C7.54549 11.2577 6.80884 12.9252 6.80884 14.7479Z" fill="#016BB1"/>
<path d="M3.93905 11.8781C5.00995 11.8781 5.87809 11.01 5.87809 9.93905C5.87809 8.86814 5.00995 8 3.93905 8C2.86814 8 2 8.86814 2 9.93905C2 11.01 2.86814 11.8781 3.93905 11.8781Z" fill="#06429E"/>
<path d="M8.7477 23.5124C9.81861 23.5124 10.6867 22.6443 10.6867 21.5734C10.6867 20.5025 9.81861 19.6343 8.7477 19.6343C7.6768 19.6343 6.80865 20.5025 6.80865 21.5734C6.80865 22.6443 7.6768 23.5124 8.7477 23.5124Z" fill="#01569A"/>
<path d="M20.3434 14.7869C20.3434 13.1969 21.6229 11.9169 23.213 11.9169C24.803 11.9169 26.0827 13.1966 26.0827 14.7867V21.5733C26.0827 22.6592 26.9747 23.5124 28.0218 23.5124C29.1077 23.5124 29.9608 22.6204 29.9608 21.5733V14.7867C29.9996 11.0249 26.9747 8 23.213 8C21.3515 8 19.6455 8.77562 18.4045 10.0166C19.6067 11.2576 20.3434 12.9254 20.3434 14.7869Z" fill="#20D1CC"/>
<path d="M18.4043 23.5124C19.4752 23.5124 20.3434 22.6444 20.3434 21.5735C20.3434 20.5026 19.4752 19.6343 18.4043 19.6343C17.3334 19.6343 16.4653 20.5026 16.4653 21.5735C16.4653 22.6444 17.3334 23.5124 18.4043 23.5124Z" fill="#008C9D"/>
<path d="M28.0609 23.5124C29.1318 23.5124 30 22.6443 30 21.5734C30 20.5025 29.1318 19.6343 28.0609 19.6343C26.99 19.6343 26.1219 20.5025 26.1219 21.5734C26.1219 22.6443 26.99 23.5124 28.0609 23.5124Z" fill="#03ABA3"/>
</svg>
