<svg width="32" height="32" viewBox="0 0 32 32" fill="none" xmlns="http://www.w3.org/2000/svg">
<path d="M12.0388 3.81445C11.9556 4.40325 11.5588 4.56965 11.322 4.88325C9.67077 7.05925 8.56997 9.46565 8.88997 12.3585C8.99237 13.2865 9.42117 14.1569 9.97157 14.9185C11.7828 17.3953 14.3684 18.5217 16.9988 19.5521C17.978 19.9361 18.97 20.2625 19.9428 20.6721C20.7108 20.9985 21.4212 21.4593 22.01 22.0993C23.226 23.4177 23.098 24.9729 21.658 26.0033C20.3588 26.9377 18.8996 27.0721 17.3956 26.8737C16.6212 26.7713 15.8916 26.5025 15.162 26.2081C13.594 25.5745 11.9876 25.3121 10.3172 25.6769C8.96037 25.9713 7.81477 26.6689 6.89957 27.7569C6.47717 28.2625 6.28517 28.4161 5.84357 27.7057C5.26757 26.7777 4.54437 25.9649 4.01957 24.9793C3.36677 23.7505 2.91237 22.4385 2.65637 21.0817C2.10597 18.1761 2.28517 15.2961 3.28357 12.5057C4.39077 9.40805 6.27237 7.00165 8.92197 5.28645C9.88197 4.65285 10.906 4.18565 12.0388 3.81445Z" fill="#008DFF"/>
<path d="M28.7231 22.5984C28.5759 21.984 28.4863 21.5296 28.3583 21.088C27.2703 17.1968 24.7231 15.008 21.2095 13.8944C19.7503 13.4336 18.2335 13.2864 16.8191 12.5696C15.7567 12.0384 15.2639 10.3232 15.7631 9.31842C16.4415 7.94882 17.4783 7.12962 18.9375 7.00162C21.0047 6.82242 22.9823 7.14882 24.7871 8.28802C27.8847 10.2464 29.8175 13.472 29.6511 17.9136C29.5871 19.456 29.3247 20.9728 28.7231 22.5984Z" fill="#FF5000"/>
</svg>
