<svg width="32" height="32" viewBox="0 0 32 32" fill="none" xmlns="http://www.w3.org/2000/svg">
<path d="M24.2281 30.72H7.7712C4.70944 30.72 2.20703 28.2176 2.20703 25.1559V6.84419C2.20703 3.78243 4.70944 1.28003 7.7712 1.28003H24.2281C27.2899 1.28003 29.7923 3.78243 29.7923 6.84419V25.1559C29.7923 28.1882 27.2899 30.72 24.2281 30.72Z" fill="#2A3BEE"/>
<path d="M15.1312 14.2631C15.1312 13.4388 15.1312 12.6145 15.1312 11.7901C15.1312 11.5841 15.1312 11.378 15.1018 11.1719C14.8663 9.34662 13.2471 8.02182 11.3924 8.13958C9.59651 8.2279 8.15394 9.75878 8.1245 11.6135C8.1245 12.4967 8.1245 13.3799 8.1245 14.2631C8.15394 16.265 9.68483 17.7959 11.6868 17.7959C12.6288 17.7959 13.6004 17.7959 14.5424 17.7959C14.9546 17.7959 15.1312 17.6487 15.1312 17.2071C15.1312 16.1767 15.1312 15.2052 15.1312 14.2631Z" fill="white"/>
<path d="M16.8682 17.7076C16.8682 18.5613 16.8682 19.4151 16.8682 20.2983C16.8977 21.7997 17.5748 22.9479 18.9585 23.5661C21.2842 24.5965 23.8455 22.9185 23.875 20.3866C23.875 19.5329 23.875 18.6791 23.875 17.8548C23.875 15.794 22.3441 14.2631 20.2833 14.2631C19.3412 14.2631 18.3697 14.2631 17.4276 14.2631C17.0154 14.2631 16.8682 14.4103 16.8682 14.8519C16.8682 15.794 16.8682 16.7361 16.8682 17.7076Z" fill="white"/>
<path d="M19.0468 12.4968C20.2832 12.4968 21.2548 11.5252 21.2548 10.3182C21.2548 9.11116 20.2832 8.13964 19.0762 8.13964C17.8691 8.13964 16.8976 9.11116 16.8976 10.3182C16.8682 11.4958 17.8397 12.4968 19.0468 12.4968Z" fill="white"/>
<path d="M12.9526 19.474C11.7456 19.474 10.7741 20.4456 10.7446 21.6232C10.7446 22.8596 11.7162 23.8312 12.9232 23.8312C14.1302 23.8312 15.1312 22.8596 15.1312 21.6526C15.1312 20.475 14.1597 19.474 12.9526 19.474Z" fill="white"/>
</svg>
